<svg xmlns="http://www.w3.org/2000/svg" xmlns:xlink="http://www.w3.org/1999/xlink" viewBox="0 0 38.97 38.219">
  <defs>
    <clipPath id="as" clipPathUnits="userSpaceOnUse">
      <path d="M0 800h800V0H0Z"/>
    </clipPath>
    <clipPath id="at" clipPathUnits="userSpaceOnUse">
      <path d="M497.477 298.07h147.378v-3.775H497.477Z"/>
    </clipPath>
    <clipPath id="au" clipPathUnits="userSpaceOnUse">
      <path d="M485.835 309.708h170.661v-4.036H485.835Z"/>
    </clipPath>
    <clipPath id="av" clipPathUnits="userSpaceOnUse">
      <path d="M485.836 133.394h170.66v-3.949h-170.66z"/>
    </clipPath>
    <clipPath id="aw" clipPathUnits="userSpaceOnUse">
      <path d="M497.421 144.878h147.491v-3.884H497.421Z"/>
    </clipPath>
    <clipPath id="ax" clipPathUnits="userSpaceOnUse">
      <path d="M485.835 309.708h4.039V129.445h-4.039z"/>
    </clipPath>
    <clipPath id="ay" clipPathUnits="userSpaceOnUse">
      <path d="M497.421 298.067h3.83V140.994h-3.83z"/>
    </clipPath>
    <clipPath id="az" clipPathUnits="userSpaceOnUse">
      <path d="M641.073 298.07h3.839V140.996h-3.839z"/>
    </clipPath>
    <clipPath id="aA" clipPathUnits="userSpaceOnUse">
      <path d="M652.459 309.708h4.037V129.445h-4.037z"/>
    </clipPath>
    <clipPath id="aC" clipPathUnits="userSpaceOnUse">
      <path d="M501.251 294.295h139.858V144.878H501.251Z"/>
    </clipPath>
    <clipPath id="aE" clipPathUnits="userSpaceOnUse">
      <path d="M530.711 263.172h80.911v-2.097h-80.911z"/>
    </clipPath>
    <clipPath id="aG" clipPathUnits="userSpaceOnUse">
      <path d="M530.68 178.083h80.973v-2.16H530.68Z"/>
    </clipPath>
    <clipPath id="aI" clipPathUnits="userSpaceOnUse">
      <path d="M530.68 263.17h2.135v-87.247h-2.135z"/>
    </clipPath>
    <clipPath id="aK" clipPathUnits="userSpaceOnUse">
      <path d="M609.521 263.172h2.132v-87.249h-2.132z"/>
    </clipPath>
    <clipPath id="aS">
      <path fill="#fff" d="M361.793 135.312H-350v70.635h711.793v-70.635"/>
    </clipPath>
    <clipPath id="aR" clipPathUnits="userSpaceOnUse"/>
    <clipPath id="aQ" clipPathUnits="userSpaceOnUse"/>
    <clipPath id="aP" clipPathUnits="userSpaceOnUse"/>
    <clipPath id="aO" clipPathUnits="userSpaceOnUse"/>
    <clipPath id="aN" clipPathUnits="userSpaceOnUse"/>
    <clipPath id="aM" clipPathUnits="userSpaceOnUse"/>
    <clipPath id="aJ" clipPathUnits="userSpaceOnUse"/>
    <clipPath id="aH" clipPathUnits="userSpaceOnUse"/>
    <clipPath id="aF" clipPathUnits="userSpaceOnUse"/>
    <clipPath id="aD" clipPathUnits="userSpaceOnUse"/>
    <clipPath id="aB" clipPathUnits="userSpaceOnUse"/>
    <path id="c" d="M628.945 1606.09h-.097.097"/>
    <path id="d" d="M1019.81 1652.38h-2.49 2.49"/>
    <path id="e" d="M447.934 1787.08c-5.473 26.16 1.308 51.27 6.343 57.43 5.086 6.22 15.532 17.56 18.434 18.97 2.891 1.41 28.344 34.65 42.031 38.15 13.36 3.42 22.586 1.76 26.742 4.03 4.141 2.26 12.61-.49 19.121-2.24 6.348-1.71 10.446-8.48 3.254-11.37-7.265-2.92-28.039-12.82-41.468-24.56-13.336-11.65-32.614-33.6-39.223-45.57-6.422-11.62-22.879-32.33-25.691-38.07-2.77-5.65-9.09 1.06-9.543 3.23"/>
    <path id="f" d="M437.254 1790.11c7.047 24.64 1.961 50.85-2.375 58.48-4.336 7.62-13.25 21.9-15.875 24.43-2.621 2.53-23.039 40.57-35.848 50.33-12.808 9.76-22.679 13.86-26.57 17.85-3.887 3.98-13.688 7.15-21.371 9.92-7.684 2.77-14.473.58-6.891-6.06 7.582-6.63 28.481-26.43 40.68-43.25 12.199-16.83 29.25-45.99 34.613-60.43 5.363-14.45 20.766-43.41 23.25-50.9 2.485-7.5 9.762-2.56 10.387-.37"/>
    <path id="g" d="M361.203 2016.29c12.969-7.24 30.942-10.06 51.027-36.44 21.383-28.08 19.325-47.16 31.958-76.8 9.472-22.23 9.722-49 8.863-59.09-.863-10.08 1.637-11.38.488-15.36-1.152-3.98 1.254-7.06-1.027-12.75-2.282-5.68-6.032-10.15-5.852-15.28.18-5.12-.492-9.82-1.515-12.49-1.028-2.67-3.633-3.61-3.219-8.4.414-4.79 2.23-10.81-1.031-2.69-3.262 8.12-6.477 21.89-8.989 28.85-7.16 19.85-.297 13.54-12.734 38.76-13.703 27.79-19.285 50.23-27.84 71.23-3.504 8.61-13.254 31.15-16.355 38.72-3.106 7.56-8.618 9.45-12.278 17.87-4.781 11-4.426 15.45-3.886 21.42.605 6.73-2.098 7.29-1.368 11.04 1.168 5.97 1.868 8.62 3.758 11.41"/>
    <path id="h" d="M448.027 1759.48c-4.293 7.52-6.757 17.73-10.847 34.66-3.59 14.88-8.512 35.25-17.106 64.06-10.347 34.7-26.629 74.85-39.711 107.1-10.441 25.75-18.691 46.09-21.039 56.25l.914.35c2.328-10.07 10.559-30.37 20.981-56.06 13.094-32.29 29.386-72.47 39.754-107.23 8.597-28.83 13.523-49.22 17.121-64.12 4.062-16.81 6.515-26.97 10.722-34.35l-.789-.66"/>
    <path id="i" d="M564.301 2025.18c-1.438-1.18-11.688-3.83-20.52-6.57-8.828-2.74-27.633-10.92-37.191-24.63-9.563-13.69-24.082-28.4-33.949-41.87-9.012-12.3-15.047-19.4-22.043-36.87-7.207-18.01-8.524-24.97-11.672-46.34-3.153-21.38 5.441-105.34 6.785-102.85 1.344 2.49 6.41 33.24 7.543 39.32 1.133 6.08 25.746 45.67 32.539 54.26 6.789 8.57 14.902 19.19 21.012 30.16 3.957 7.1 16.875 29.31 20.199 34.84 5.863 9.76 19.074 47.01 28.531 63.79 5.977 10.61 7.199 26.71 8.945 29.9 1.75 3.18 2.407 6.98 2.985 7.52l-3.164-.66"/>
    <path id="j" d="M452.129 1763.36c8.414 32.28 33.894 59.48 73.836 92.68 42.023 34.92 52.695 34.75 58.058 33.07-.531 3.72-8.73 11.26-14.804 13.55-3.453 1.31-7.5.9-11.504.49-2.684-.28-5.348-.56-7.801-.31-18.226 1.79-24.937-6.93-31.187-8.62-6.325-1.71-14.797-7.33-20.438-11.53-12.644-9.41-17.664-17.24-26.824-31.14-2.719-4.12-12.383-4.35-21.613-35.91-1.727-5.9-3.543-25.35-.657-36.98 2.633-10.61-1.23-13.95-1.363-16.16-.129-2.18 2.293-6.83 4.297.86"/>
    <path id="k" d="M430.883 1764.53c-6.184 40.04-30.215 79.1-68.289 129.81-39.442 52.54-52.332 59.28-59.543 61.6 1.965 2.35 14.363 2.33 22.148.04 7.203-2.1 14.821-8.49 21.692-11.76 19.707-9.38 24.937-19.33 31.023-24.01 6.09-4.67 13.649-13.32 18.609-19.42 11.122-13.66 15.082-22.36 22.524-38.26 2.242-4.8 11.496-9.46 18.183-42.32 1.325-6.5 1.915-27.3-1.91-38.93-3.699-11.24.278-16.72.254-19.44-.027-2.71-3.109-7.55-4.691 2.69"/>
    <path id="l" d="M492.941 1652.15h-97.546c-.899 0-1.637 1.35-1.684 3.08l-7.645 136.16.735 1.49h113.734c.567 0 1.02-.92.988-2l-6.894-135.65c-.051-1.73-.789-3.08-1.688-3.08"/>
    <linearGradient id="a" x1="0" x2="1" y1="0" y2="0" gradientTransform="scale(756.395 -756.395) rotate(45 2.156 .756)" gradientUnits="userSpaceOnUse" spreadMethod="pad">
      <stop offset="0" stop-color="#decdba"/>
      <stop offset="1" stop-color="#c2ad97"/>
    </linearGradient>
    <linearGradient id="b">
      <stop offset="0" stop-color="#428eff"/>
      <stop offset="1" stop-color="#1c65d8"/>
    </linearGradient>
    <radialGradient xlink:href="#b" id="aT" cx="50.018" cy="12.061" r="10.584" fx="50.018" fy="12.061" gradientTransform="matrix(.1271 .04054 -.0369 .11569 19.413 13.403)" gradientUnits="userSpaceOnUse"/>
    <mask id="aL" maskUnits="userSpaceOnUse">
      <path fill="#fff" d="M28.152 7.113h-4.257V2.506h4.257Z"/>
    </mask>
  </defs>
  <defs>
    <linearGradient id="t" x1="0" x2="1" y1="0" y2="0" gradientTransform="matrix(-19.26274 0 0 19.26274 38.155 28.158)" gradientUnits="userSpaceOnUse" spreadMethod="pad">
      <stop offset="0" stop-color="#a18e83"/>
      <stop offset="1" stop-color="#706155"/>
    </linearGradient>
    <linearGradient id="v" x1="0" x2="1" y1="0" y2="0" gradientTransform="matrix(0 -23.499 -23.499 0 1012.78 1894.65)" gradientUnits="userSpaceOnUse" spreadMethod="pad">
      <stop offset="0" stop-color="#706155"/>
      <stop offset="1" stop-color="#a18e83"/>
    </linearGradient>
    <linearGradient id="m" x1="0" x2="1" y1="0" y2="0" gradientTransform="matrix(45.4978 -.06825 -.06825 -45.4978 624.139 1495.04)" gradientUnits="userSpaceOnUse" spreadMethod="pad">
      <stop offset="0" stop-color="#e8e3dd"/>
      <stop offset="1" stop-color="#8b7765"/>
    </linearGradient>
    <linearGradient id="n" x1="0" x2="1" y1="0" y2="0" gradientTransform="matrix(8.05532 -.01208 -.01208 -8.05532 651.83 1495)" gradientUnits="userSpaceOnUse" spreadMethod="pad">
      <stop offset="0" stop-color="#e8e3dd"/>
      <stop offset=".384" stop-color="#e8e3dd"/>
      <stop offset="1" stop-color="#69584b"/>
    </linearGradient>
    <linearGradient id="F" x1="0" x2="1" y1="0" y2="0" gradientTransform="matrix(45.4965 -.06824 -.06824 -45.4965 690.85 1495.04)" gradientUnits="userSpaceOnUse" spreadMethod="pad">
      <stop offset="0" stop-color="#e8e3dd"/>
      <stop offset="1" stop-color="#8b7765"/>
    </linearGradient>
    <linearGradient id="H" x1="0" x2="1" y1="0" y2="0" gradientTransform="matrix(8.05625 -.01208 -.01208 -8.05625 718.54 1495)" gradientUnits="userSpaceOnUse" spreadMethod="pad">
      <stop offset="0" stop-color="#e8e3dd"/>
      <stop offset=".384" stop-color="#e8e3dd"/>
      <stop offset="1" stop-color="#69584b"/>
    </linearGradient>
    <linearGradient id="J" x1="0" x2="1" y1="0" y2="0" gradientTransform="matrix(26.5704 -.04095 -.06826 -45.5051 669.593 1495.04)" gradientUnits="userSpaceOnUse" spreadMethod="pad">
      <stop offset="0" stop-color="#e8e3dd"/>
      <stop offset="1" stop-color="#8b7765"/>
    </linearGradient>
    <linearGradient id="L" x1="0" x2="1" y1="0" y2="0" gradientTransform="matrix(4.7064 -.00725 -.01209 -8.06028 685.762 1495.01)" gradientUnits="userSpaceOnUse" spreadMethod="pad">
      <stop offset="0" stop-color="#e8e3dd"/>
      <stop offset=".384" stop-color="#e8e3dd"/>
      <stop offset="1" stop-color="#69584b"/>
    </linearGradient>
    <linearGradient id="N" x1="0" x2="1" y1="0" y2="0" gradientTransform="matrix(45.4965 -.06824 -.06824 -45.4965 1096.61 1763.46)" gradientUnits="userSpaceOnUse" spreadMethod="pad">
      <stop offset="0" stop-color="#e8e3dd"/>
      <stop offset="1" stop-color="#8b7765"/>
    </linearGradient>
    <linearGradient id="P" x1="0" x2="1" y1="0" y2="0" gradientTransform="matrix(8.05531 -.01208 -.01208 -8.05531 1124.3 1763.42)" gradientUnits="userSpaceOnUse" spreadMethod="pad">
      <stop offset="0" stop-color="#736357"/>
      <stop offset=".384" stop-color="#736357"/>
      <stop offset="1" stop-color="#34261e"/>
    </linearGradient>
    <linearGradient id="o" x1="0" x2="1" y1="0" y2="0" gradientTransform="matrix(8.05531 -.01208 -.01208 -8.05531 1124.3 1763.42)" gradientUnits="userSpaceOnUse" spreadMethod="pad">
      <stop offset="0" stop-color="#e8e3dd"/>
      <stop offset=".384" stop-color="#e8e3dd"/>
      <stop offset="1" stop-color="#69584b"/>
    </linearGradient>
    <linearGradient id="T" x1="0" x2="1" y1="0" y2="0" gradientTransform="matrix(8.05531 -.01208 -.01208 -8.05531 1120.02 1763.43)" gradientUnits="userSpaceOnUse" spreadMethod="pad">
      <stop offset="0" stop-color="#736357"/>
      <stop offset=".384" stop-color="#736357"/>
      <stop offset="1" stop-color="#6a5a4f"/>
    </linearGradient>
    <linearGradient id="V" x1="0" x2="1" y1="0" y2="0" gradientTransform="matrix(31.2444 .13167 .13167 -31.2444 1099.75 1654.02)" gradientUnits="userSpaceOnUse" spreadMethod="pad">
      <stop offset="0" stop-color="#97816e"/>
      <stop offset=".384" stop-color="#97816e"/>
      <stop offset=".917" stop-color="#736357"/>
      <stop offset="1" stop-color="#736357"/>
    </linearGradient>
    <linearGradient id="X" x1="0" x2="1" y1="0" y2="0" gradientTransform="matrix(31.2444 .13167 .13167 -31.2444 1099.75 1654.02)" gradientUnits="userSpaceOnUse" spreadMethod="pad">
      <stop offset="0" stop-color="#eee8e2"/>
      <stop offset=".384" stop-color="#eee8e2"/>
      <stop offset=".917" stop-color="#e8e3dd"/>
      <stop offset="1" stop-color="#e8e3dd"/>
    </linearGradient>
    <linearGradient id="Z" x1="0" x2="1" y1="0" y2="0" gradientTransform="matrix(45.4978 -.06825 -.06825 -45.4978 994.631 1763.46)" gradientUnits="userSpaceOnUse" spreadMethod="pad">
      <stop offset="0" stop-color="#e8e3dd"/>
      <stop offset="1" stop-color="#8b7765"/>
    </linearGradient>
    <linearGradient id="p" x1="0" x2="1" y1="0" y2="0" gradientTransform="matrix(8.05531 -.01208 -.01208 -8.05531 1022.32 1763.42)" gradientUnits="userSpaceOnUse" spreadMethod="pad">
      <stop offset="0" stop-color="#e8e3dd"/>
      <stop offset=".384" stop-color="#e8e3dd"/>
      <stop offset="1" stop-color="#69584b"/>
    </linearGradient>
    <linearGradient id="ab" x1="0" x2="1" y1="0" y2="0" gradientTransform="matrix(26.5692 -.04095 -.06825 -45.5029 1071.07 1763.46)" gradientUnits="userSpaceOnUse" spreadMethod="pad">
      <stop offset="0" stop-color="#e8e3dd"/>
      <stop offset="1" stop-color="#8b7765"/>
    </linearGradient>
    <linearGradient id="q" x1="0" x2="1" y1="0" y2="0" gradientTransform="matrix(4.7064 -.00725 -.01209 -8.06028 1087.24 1763.44)" gradientUnits="userSpaceOnUse" spreadMethod="pad">
      <stop offset="0" stop-color="#e8e3dd"/>
      <stop offset=".384" stop-color="#e8e3dd"/>
      <stop offset="1" stop-color="#69584b"/>
    </linearGradient>
    <linearGradient id="ad" x1="0" x2="1" y1="0" y2="0" gradientTransform="matrix(26.5704 -.04095 -.06826 -45.5051 973.213 1763.46)" gradientUnits="userSpaceOnUse" spreadMethod="pad">
      <stop offset="0" stop-color="#e8e3dd"/>
      <stop offset="1" stop-color="#8b7765"/>
    </linearGradient>
    <linearGradient id="r" x1="0" x2="1" y1="0" y2="0" gradientTransform="matrix(4.7064 -.00725 -.01209 -8.06028 968.404 1763.44)" gradientUnits="userSpaceOnUse" spreadMethod="pad">
      <stop offset="0" stop-color="#e8e3dd"/>
      <stop offset=".384" stop-color="#e8e3dd"/>
      <stop offset="1" stop-color="#69584b"/>
    </linearGradient>
    <linearGradient id="ah" x1="0" x2="1" y1="0" y2="0" gradientTransform="matrix(25.7759 -6.44851 -11.0448 -44.1475 788.587 1495.58)" gradientUnits="userSpaceOnUse" spreadMethod="pad">
      <stop offset="0" stop-color="#e8e3dd"/>
      <stop offset="1" stop-color="#8b7765"/>
    </linearGradient>
    <linearGradient id="s" x1="0" x2="1" y1="0" y2="0" gradientTransform="matrix(4.56626 -1.14237 -1.95662 -7.82084 804.272 1491.65)" gradientUnits="userSpaceOnUse" spreadMethod="pad">
      <stop offset="0" stop-color="#e8e3dd"/>
      <stop offset=".384" stop-color="#e8e3dd"/>
      <stop offset="1" stop-color="#69584b"/>
    </linearGradient>
    <linearGradient id="aj" x1="0" x2="1" y1="0" y2="0" gradientTransform="matrix(25.7104 -6.7029 -11.4809 -44.0353 764.794 1494.21)" gradientUnits="userSpaceOnUse" spreadMethod="pad">
      <stop offset="0" stop-color="#e8e3dd"/>
      <stop offset="1" stop-color="#8b7765"/>
    </linearGradient>
    <linearGradient id="al" x1="0" x2="1" y1="0" y2="0" gradientTransform="matrix(45.8106 0 0 -45.8106 1031.8 1763.58)" gradientUnits="userSpaceOnUse" spreadMethod="pad">
      <stop offset="0" stop-color="#302720"/>
      <stop offset="1" stop-color="#1d140f"/>
    </linearGradient>
    <linearGradient id="an" x1="0" x2="1" y1="0" y2="0" gradientTransform="matrix(24.7489 0 0 -24.7489 726.218 1494.52)" gradientUnits="userSpaceOnUse" spreadMethod="pad">
      <stop offset="0" stop-color="#68574d"/>
      <stop offset=".615" stop-color="#68574d"/>
      <stop offset="1" stop-color="#fff"/>
    </linearGradient>
    <linearGradient id="ap" x1="0" x2="1" y1="0" y2="0" gradientTransform="scale(36.3119 -36.3119) rotate(14.357 174.227 67.12)" gradientUnits="userSpaceOnUse" spreadMethod="pad">
      <stop offset="0" stop-color="#68574d"/>
      <stop offset=".615" stop-color="#68574d"/>
      <stop offset="1" stop-color="#fff"/>
    </linearGradient>
    <linearGradient id="ar" x1="0" x2="1" y1="0" y2="0" gradientTransform="matrix(20.4962 0 0 -20.4962 658.988 1495.36)" gradientUnits="userSpaceOnUse" spreadMethod="pad">
      <stop offset="0" stop-color="#68574d"/>
      <stop offset=".615" stop-color="#68574d"/>
      <stop offset="1" stop-color="#fff"/>
    </linearGradient>
    <linearGradient xlink:href="#m" id="x" x1="0" x2="1" y1="0" y2="0" gradientTransform="matrix(45.4978 -.06825 -.06825 -45.4978 624.139 1495.04)" gradientUnits="userSpaceOnUse" spreadMethod="pad"/>
    <linearGradient xlink:href="#m" id="z" x1="0" x2="1" y1="0" y2="0" gradientTransform="matrix(45.4978 -.06825 -.06825 -45.4978 624.139 1495.04)" gradientUnits="userSpaceOnUse" spreadMethod="pad"/>
    <linearGradient xlink:href="#n" id="B" x1="0" x2="1" y1="0" y2="0" gradientTransform="matrix(8.05532 -.01208 -.01208 -8.05532 651.83 1495)" gradientUnits="userSpaceOnUse" spreadMethod="pad"/>
    <linearGradient xlink:href="#n" id="D" x1="0" x2="1" y1="0" y2="0" gradientTransform="matrix(8.05532 -.01208 -.01208 -8.05532 651.83 1495)" gradientUnits="userSpaceOnUse" spreadMethod="pad"/>
    <linearGradient xlink:href="#o" id="R" x1="0" x2="1" y1="0" y2="0" gradientTransform="matrix(8.05531 -.01208 -.01208 -8.05531 1124.3 1763.42)" gradientUnits="userSpaceOnUse" spreadMethod="pad"/>
    <linearGradient xlink:href="#r" id="af" x1="0" x2="1" y1="0" y2="0" gradientTransform="matrix(4.7064 -.00725 -.01209 -8.06028 968.404 1763.44)" gradientUnits="userSpaceOnUse" spreadMethod="pad"/>
    <clipPath id="u" clipPathUnits="userSpaceOnUse">
      <path d="M628.945 1871.16h717.305l61.45 23.49H617.855l11.09-23.49"/>
    </clipPath>
    <clipPath id="w" clipPathUnits="userSpaceOnUse">
      <path d="m643.914 1383.96-9.691.01 9.691-.01m-11.277.01-2.879.01 2.879-.01m24.187.01v.13a4.01 4.01 0 0 1 2.649 2.57 3.217 3.217 0 0 0-2.649-2.7m-9.988 3.37-12.609.01.332 215.32 12.609-.02-.332-215.31m12.91 216.26c-.137.38-.351.84-.699 1.32-.008.02-.02.03-.031.05.347-.39.601-.85.73-1.37"/>
    </clipPath>
    <clipPath id="y" clipPathUnits="userSpaceOnUse">
      <path d="m623.801 1387.2.164 107.84-.164-107.84"/>
    </clipPath>
    <clipPath id="A" clipPathUnits="userSpaceOnUse">
      <path d="M659.488 1386.81c.012.11.02.22.02.34l.328 212.3a3.9 3.9 0 0 0 .168-.89l-.16-102.83-.047-29.62-.106-69.36-.011-8.72a4.197 4.197 0 0 0-.192-1.22"/>
    </clipPath>
    <clipPath id="C" clipPathUnits="userSpaceOnUse">
      <path d="m660.004 1598.58-.043 3.98c.027-.19.047-.39.047-.59l-.004-3.39"/>
    </clipPath>
    <clipPath id="E" clipPathUnits="userSpaceOnUse">
      <path d="m710.672 1383.96-9.738.01 9.738-.01m-11.309.01-2.894.01 2.894-.01m24.172.01v.13a4.013 4.013 0 0 1 2.649 2.57 3.218 3.218 0 0 0-2.649-2.7m-33.023 3.22.164 107.84-.164-107.84m23.035.15-12.609.01.332 215.32 12.609-.02-.332-215.31m12.906 216.26c-.133.38-.348.84-.695 1.32-.008.02-.02.03-.028.04.34-.38.594-.84.723-1.36"/>
    </clipPath>
    <clipPath id="G" clipPathUnits="userSpaceOnUse">
      <path d="M726.199 1386.81c.012.11.02.22.02.34l.324 212.31c.152-.5.168-.85.168-.9l-.203-132.45-.106-69.36-.011-8.72a4.197 4.197 0 0 0-.192-1.22m.512 211.76-.039 3.98c.031-.2.047-.41.047-.62l-.008-3.36"/>
    </clipPath>
    <clipPath id="I" clipPathUnits="userSpaceOnUse">
      <path d="M673.145 1383.98h-.34.34m15.464.14v.18a3.073 3.073 0 0 1 1.559 1.92 2.466 2.466 0 0 0-1.559-2.1m-19.285 2.32.156 99.55-.156-99.55m13.453.92-7.363.01.332 215.32 7.363-.01-.332-215.32m7.727 216.43c-.066.25-.16.48-.277.69-.051.15-.11.31-.18.47-.031.08-.067.16-.102.22.317-.38.52-.85.559-1.38m-10.633 2.28-7.168.02h-.59.004l7.754-.02"/>
    </clipPath>
    <clipPath id="K" clipPathUnits="userSpaceOnUse">
      <path d="M690.172 1386.29c.004.04.004.08.004.12l.328 213.07c.094-.54.098-.91.098-.91l-.024 4.1s-.004.25-.066.65v.28c0 .04-.004.08-.004.12.062-.25.097-.51.101-.78l-.168-108.43-.043-28.4-.105-69.36-.016-9.66c0-.28-.039-.54-.105-.8"/>
    </clipPath>
    <clipPath id="M" clipPathUnits="userSpaceOnUse">
      <path d="m1116.42 1652.38-9.72.02 9.72-.02m-11.31.02-2.88.01 2.88-.01m24.19.01v.13c1.25.37 2.24 1.34 2.65 2.57a3.216 3.216 0 0 0-2.65-2.7m-33.03 3.22.17 111.1-.17-111.1m23.04.14-12.61.02.33 215.32 12.61-.02-.33-215.32m12.91 216.27c-.14.38-.35.84-.7 1.32-.01.01-.01.02-.02.03.34-.37.59-.84.72-1.35m-3.44 2.43h-2.18l-2 .01 4.19-.01h-.01m-4.85.01h-2.42 2.42m-4.28 0-12.61.02 12.61-.02m-18.33.03h-1.5 1.5"/>
    </clipPath>
    <clipPath id="O" clipPathUnits="userSpaceOnUse">
      <path d="M1131.95 1655.11c0 .04.01.08.01.12.13.39.19.8.19 1.23l.12 77.91-.12-78c0-.44-.07-.86-.2-1.26"/>
    </clipPath>
    <clipPath id="Q" clipPathUnits="userSpaceOnUse">
      <path d="M1131.96 1655.23c.02.11.02.23.02.34l.33 212.31c.15-.48.16-.83.17-.89l-.16-103.2-.05-29.42-.12-77.91c0-.43-.06-.84-.19-1.23"/>
    </clipPath>
    <clipPath id="S" clipPathUnits="userSpaceOnUse">
      <path d="M1123.86 1652.37h-.01l-4.55.01 4.61-.01h-.05"/>
    </clipPath>
    <clipPath id="U" clipPathUnits="userSpaceOnUse">
      <path d="M1129.3 1652.36h-1.23.7c.18 0 .36.02.53.05v-.05m-4.56.01h-.83.83"/>
    </clipPath>
    <clipPath id="W" clipPathUnits="userSpaceOnUse">
      <path d="m1128.07 1652.36-3.33.01h.35l2.99-.01h-.01"/>
    </clipPath>
    <clipPath id="Y" clipPathUnits="userSpaceOnUse">
      <path d="m1014.42 1652.38-9.71.02 9.71-.02m-11.29.02-2.88.01 2.88-.01m24.19.01v.13c1.24.37 2.24 1.34 2.65 2.57a3.216 3.216 0 0 0-2.65-2.7m-33.027 3.22.168 111.1-.168-111.1m23.037.14-12.61.02.33 215.32 12.61-.02-.33-215.32m12.91 216.27c-.14.38-.35.84-.7 1.32l-.03.03c.34-.37.6-.84.73-1.35m-3.44 2.43h-2.18l-2 .01 4.18-.01m-4.86.01h-2.42 2.42m-4.28 0-12.6.02 12.6-.02m-18.32.03h-1.504 1.504"/>
    </clipPath>
    <clipPath id="aa" clipPathUnits="userSpaceOnUse">
      <path d="M1089.2 1652.38h-.01l-.48.01h.01l.49-.01h-.01m-2.45.01h-.19.19m3.34.16v.17c.75.39 1.33 1.08 1.56 1.92-.08-.95-.7-1.76-1.56-2.09m-19.29 2.32.17 108.59-.17-108.6m13.46.93-7.37.01.34 215.31h7.36l-.33-215.32m7.72 216.43c-.06.24-.16.47-.27.68l-.18.48c-.04.08-.07.15-.1.22.31-.38.51-.86.55-1.38m-2.39 2.27-8.02.01 7.97-.01h.05"/>
    </clipPath>
    <clipPath id="ac" clipPathUnits="userSpaceOnUse">
      <path d="M991.34 1652.38h-.004l-.484.01h.011l.492-.01h-.015m-2.449.01h-.164.164m3.339.16v.17a3.082 3.082 0 0 1 1.559 1.92 2.453 2.453 0 0 0-1.559-2.09m-19.285 2.32.168 108.59-.168-108.6m13.453.93-7.363.01.332 215.31h7.363l-.332-215.32m7.723 216.43c-.062.24-.156.47-.273.69-.051.15-.114.31-.18.47-.031.08-.066.15-.102.22.317-.38.516-.86.555-1.38m-2.387 2.27-8.019.01 7.965-.01h.054"/>
    </clipPath>
    <clipPath id="ae" clipPathUnits="userSpaceOnUse">
      <path d="M972.816 1654.72c0 .04.004.08.004.12l.325 213.07c.082-.46.097-.8.097-.89l-.156-104.08-.047-28.57-.121-78.85c0-.28-.035-.54-.102-.8"/>
    </clipPath>
    <clipPath id="ag" clipPathUnits="userSpaceOnUse">
      <path d="m780.281 1383.35.043.17c.828.19 1.555.73 1.977 1.49a2.472 2.472 0 0 0-2.02-1.66m-7.359 1.67-9.008 2.25c-.012.01-.023.01-.035.01h.027l.297-.08 3.238-.81 5.481-1.37m2.484 2.88-7.144 1.78 52.265 208.88 7.145-1.78-52.266-208.88m59.711 208.18c-.008.25-.043.49-.101.72a8.065 8.065 0 0 1-.106.75c.153-.32.238-.68.238-1.05.004-.14-.007-.28-.031-.42m-1.789 2.78-.476.12h-.016l.453-.11c.016-.01.027-.01.039-.01m-2.406.6-.539.13c-.004.01-.008.01-.016.01l-.25.06.805-.2m-2.426.61-4.449 1.11 4.449-1.11"/>
    </clipPath>
    <clipPath id="ai" clipPathUnits="userSpaceOnUse">
      <path d="m755.387 1382.07.043.16c.832.19 1.562.72 1.992 1.47a2.432 2.432 0 0 0-2.035-1.63m-4.832 4.59-7.125 1.86 54.316 208.36 7.125-1.86-54.316-208.36m14.14 107.57 27.395 105.09.012.03c-.004-.01-.008-.02-.008-.03l-27.399-105.09m47.614 100.02a3.14 3.14 0 0 1-.094.72c-.012.17-.031.33-.055.51-.012.08-.027.16-.043.23a2.45 2.45 0 0 0 .192-1.46m-1.735 2.79-.492.12a.19.19 0 0 1-.066.02l-1.871.49-.465.12c-.012 0-.028.01-.039.01l2.871-.75c.019 0 .043-.01.062-.01m-3.687.96-1.16.3-7.739 2.02-1.91.49-1 .26a.105.105 0 0 1-.055.02c.02 0 .043-.01.063-.02l11.801-3.07m-14.785 1.36c.003 0 .003 0 .003.01 0-.01 0-.01-.003-.01"/>
    </clipPath>
    <clipPath id="ak" clipPathUnits="userSpaceOnUse">
      <path d="M1035.63 1652.52h-.78c-.82 0-1.56.31-2.13.81.22-.13.46-.25.72-.34.61-.3 1.45-.42 2.19-.47m29.26.05v.13c1.25.37 2.25 1.35 2.66 2.59a3.226 3.226 0 0 0-2.66-2.72m-10.07 3.35h-14.11v215.32h14.11v-215.32m12.66 216.3c-.13.38-.35.83-.69 1.3-.01.02-.02.03-.03.04.34-.38.59-.84.72-1.34m-35.59.47a3.235 3.235 0 0 0 2.61 1.92v-.33c-1.23-.34-2.17-.91-2.61-1.59"/>
    </clipPath>
    <clipPath id="am" clipPathUnits="userSpaceOnUse">
      <path d="m726.898 1602.64-.679-215.49 12.48-.76v206.96z"/>
    </clipPath>
    <clipPath id="ao" clipPathUnits="userSpaceOnUse">
      <path d="m835.074 1595.89-52.472-210.13 10.867-.53 49.75 201.93z"/>
    </clipPath>
    <clipPath id="aq" clipPathUnits="userSpaceOnUse">
      <path d="M669.324 1386.44h-10.336v217.84l10.336-6.53z"/>
    </clipPath>
  </defs>
  <path fill="#736357" d="m19.927 17.77-.466.936V0l.466.873V17.77"/>
  <path fill="#998675" d="m27.673 36.477.39 1.742V29.36l-.39-.929v8.045"/>
  <path fill="#7b6c60" d="M23.426 27.787h4.543v.734h-4.543z"/>
  <path fill="url(#t)" d="M19.486 28.52h3.948v-.268l-.168.044-.004.001-.05.014-.001-.006a.086.086 0 0 1-.072-.058.105.105 0 0 1-.011-.026l-.113-.434h-.1l.058.229a.086.086 0 0 1-.05.1v.002l-.01.002h-.002l-.001.001-.318.08-.09.022-.035.009h-.002l-.017.005-.005.001-.018.004-.041.01-.002.001-.048.012-.002-.005a.087.087 0 0 1-.071-.06.11.11 0 0 1-.01-.026l-.098-.387h-2.228l-.44.734m9.591 0h9.063l-1.45-.734h-7.613v.734"/>
  <g clip-path="url(#u)" transform="rotate(180 24.93 38.532) scale(.03528)">
    <path fill="url(#v)" d="M628.945 1871.16h717.305l61.45 23.49H617.855l11.09-23.49"/>
  </g>
  <path fill="#998675" d="m27.673 27.801.39.938V9.983l-.39 1.07v16.748"/>
  <path fill="#736357" d="m19.927 27.79-.682 1.14.216-18.705.466.873v16.691M10.5 19.293l-.634.001V.07l.634.675v18.55"/>
  <path fill="#998675" d="M27.973 38.065h1.105V9.188H.2v1.105h27.772v27.772"/>
  <path fill="#202124" d="m33.729 14.808-.25.123-.378-4.782.25-.123zM34.662 14.73l-.272.06.787-4.732.272-.06z"/>
  <path fill="#998675" d="M38.197 29.645H19.06v-1.122h19.136zM9.873 19.896H8.767V1.313h1.106z"/>
  <path fill="#998675" d="M8.767 10.224h10.708V.07H18.37v9.05H9.873V.07H8.767v10.155m29.43 9.671H8.767v-1.105h29.43Z"/>
  <path fill="#998675" d="M19.475 29.637H18.37V.155h1.105zm-1.106-19.344H9.872v-.069h8.497z"/>
  <path fill="#c5b19b" d="M9.87 18.791h8.5v-8.566h-8.5v8.566m18.1 1.105h-8.497v8.627h8.498v-8.627m0-9.603h-8.498v8.498h8.498v-8.498M8.765 9.188V.07H9.87v9.12h8.5V.154h1.105v9.033h9.603v9.603h9.119v1.105h-9.12v8.627h9.12v1.122h-9.12v8.42h-1.105v-8.42H19.06v-.008h-.691v-9.74H8.766v-9.604H.2V9.188h8.566"/>
  <path fill="#e8e3dd" d="m26.577 20.551.012 7.546c0 .08.065.144.145.144h.117l-.012-7.835h-.117a.145.145 0 0 0-.145.145"/>
  <path fill="#e8e3dd" d="m26.583 20.52.012 7.608a.113.113 0 0 0 .114.113l1.033-.001a.114.114 0 0 0 .113-.114l-.012-7.608a.113.113 0 0 0-.113-.114l-1.033.002a.113.113 0 0 0-.114.114"/>
  <g clip-path="url(#w)" transform="rotate(180 24.93 38.532) scale(.03528)">
    <path fill="url(#x)" d="m643.914 1383.96-9.691.01 9.691-.01m-11.277.01-2.879.01 2.879-.01m24.187.01v.13a4.01 4.01 0 0 1 2.649 2.57 3.217 3.217 0 0 0-2.649-2.7m-9.988 3.37-12.609.01.332 215.32 12.609-.02-.332-215.31m12.91 216.26c-.137.38-.351.84-.699 1.32-.008.02-.02.03-.031.05.347-.39.601-.85.73-1.37"/>
  </g>
  <g clip-path="url(#y)" transform="rotate(180 24.93 38.532) scale(.03528)">
    <path fill="url(#z)" d="m623.801 1387.2.164 107.84-.164-107.84"/>
  </g>
  <g clip-path="url(#A)" transform="rotate(180 24.93 38.532) scale(.03528)">
    <path fill="url(#B)" d="M659.488 1386.81c.012.11.02.22.02.34l.328 212.3a3.9 3.9 0 0 0 .168-.89l-.16-102.83-.047-29.62-.106-69.36-.011-8.72a4.197 4.197 0 0 0-.192-1.22"/>
  </g>
  <g clip-path="url(#C)" transform="rotate(180 24.93 38.532) scale(.03528)">
    <path fill="url(#D)" d="m660.004 1598.58-.043 3.98c.027-.19.047-.39.047-.59l-.004-3.39"/>
  </g>
  <path fill="#e8e3dd" d="m24.224 20.551.012 7.546c0 .08.065.144.145.144h.116l-.012-7.835h-.116a.145.145 0 0 0-.145.145"/>
  <path fill="#e8e3dd" d="m24.23 20.52.012 7.608a.113.113 0 0 0 .113.113l1.033-.001a.114.114 0 0 0 .113-.114l-.011-7.608a.114.114 0 0 0-.114-.114l-1.033.002a.113.113 0 0 0-.113.114"/>
  <g clip-path="url(#E)" transform="rotate(180 24.93 38.532) scale(.03528)">
    <path fill="url(#F)" d="m710.672 1383.96-9.738.01 9.738-.01m-11.309.01-2.894.01 2.894-.01m24.172.01v.13a4.013 4.013 0 0 1 2.649 2.57 3.218 3.218 0 0 0-2.649-2.7m-33.023 3.22.164 107.84-.164-107.84m23.035.15-12.609.01.332 215.32 12.609-.02-.332-215.31m12.906 216.26c-.133.38-.348.84-.695 1.32-.008.02-.02.03-.028.04.34-.38.594-.84.723-1.36"/>
  </g>
  <g clip-path="url(#G)" transform="rotate(180 24.93 38.532) scale(.03528)">
    <path fill="url(#H)" d="M726.199 1386.81c.012.11.02.22.02.34l.324 212.31c.152-.5.168-.85.168-.9l-.203-132.45-.106-69.36-.011-8.72a4.197 4.197 0 0 0-.192-1.22m.512 211.76-.039 3.98c.031-.2.047-.41.047-.62l-.008-3.36"/>
  </g>
  <path fill="#e8e3dd" d="m25.498 20.516.012 7.614a.11.11 0 0 0 .11.11h.042l-.012-7.835h-.042c-.06 0-.11.05-.11.11"/>
  <path fill="#e8e3dd" d="m25.5 20.492.013 7.662a.086.086 0 0 0 .087.087l.562-.001a.087.087 0 0 0 .087-.087l-.012-7.662a.088.088 0 0 0-.087-.087l-.562.001a.088.088 0 0 0-.087.087"/>
  <g clip-path="url(#I)" transform="rotate(180 24.93 38.532) scale(.03528)">
    <path fill="url(#J)" d="M673.145 1383.98h-.34.34m15.464.14v.18a3.073 3.073 0 0 1 1.559 1.92 2.466 2.466 0 0 0-1.559-2.1m-19.285 2.32.156 99.55-.156-99.55m13.453.92-7.363.01.332 215.32 7.363-.01-.332-215.32m7.727 216.43c-.066.25-.16.48-.277.69-.051.15-.11.31-.18.47-.031.08-.067.16-.102.22.317-.38.52-.85.559-1.38m-10.633 2.28-7.168.02h-.59.004l7.754-.02"/>
  </g>
  <g clip-path="url(#K)" transform="rotate(180 24.93 38.532) scale(.03528)">
    <path fill="url(#L)" d="M690.172 1386.29c.004.04.004.08.004.12l.328 213.07c.094-.54.098-.91.098-.91l-.024 4.1s-.004.25-.066.65v.28c0 .04-.004.08-.004.12.062-.25.097-.51.101-.78l-.168-108.43-.043-28.4-.105-69.36-.016-9.66c0-.28-.039-.54-.105-.8"/>
  </g>
  <path fill="#e8e3dd" d="m9.91 11.081.01 7.546c0 .08.066.145.146.145h.117l-.013-7.836h-.117a.144.144 0 0 0-.144.145"/>
  <path fill="#e8e3dd" d="m9.916 11.05.01 7.609c0 .062.052.113.115.113l1.033-.002a.113.113 0 0 0 .113-.113l-.012-7.609a.112.112 0 0 0-.113-.113l-1.033.001a.113.113 0 0 0-.113.114"/>
  <g clip-path="url(#M)" transform="rotate(180 24.93 38.532) scale(.03528)">
    <path fill="url(#N)" d="m1116.42 1652.38-9.72.02 9.72-.02m-11.31.02-2.88.01 2.88-.01m24.19.01v.13c1.25.37 2.24 1.34 2.65 2.57a3.216 3.216 0 0 0-2.65-2.7m-33.03 3.22.17 111.1-.17-111.1m23.04.14-12.61.02.33 215.32 12.61-.02-.33-215.32m12.91 216.27c-.14.38-.35.84-.7 1.32-.01.01-.01.02-.02.03.34-.37.59-.84.72-1.35m-3.44 2.43h-2.18l-2 .01 4.19-.01h-.01m-4.85.01h-2.42 2.42m-4.28 0-12.61.02 12.61-.02m-18.33.03h-1.5 1.5"/>
  </g>
  <g clip-path="url(#O)" transform="rotate(180 24.93 38.532) scale(.03528)">
    <path fill="url(#P)" d="M1131.95 1655.11c0 .04.01.08.01.12.13.39.19.8.19 1.23l.12 77.91-.12-78c0-.44-.07-.86-.2-1.26"/>
  </g>
  <g clip-path="url(#Q)" transform="rotate(180 24.93 38.532) scale(.03528)">
    <path fill="url(#R)" d="M1131.96 1655.23c.02.11.02.23.02.34l.33 212.31c.15-.48.16-.83.17-.89l-.16-103.2-.05-29.42-.12-77.91c0-.43-.06-.84-.19-1.23"/>
  </g>
  <g clip-path="url(#S)" transform="rotate(180 24.93 38.532) scale(.03528)">
    <path fill="url(#T)" d="M1123.86 1652.37h-.01l-4.55.01 4.61-.01h-.05"/>
  </g>
  <g clip-path="url(#U)" transform="rotate(180 24.93 38.532) scale(.03528)">
    <path fill="url(#V)" d="M1129.3 1652.36h-1.23.7c.18 0 .36.02.53.05v-.05m-4.56.01h-.83.83"/>
  </g>
  <g clip-path="url(#W)" transform="rotate(180 24.93 38.532) scale(.03528)">
    <path fill="url(#X)" d="m1128.07 1652.36-3.33.01h.35l2.99-.01h-.01"/>
  </g>
  <path fill="#e8e3dd" d="m13.507 11.081.012 7.546c0 .08.065.145.145.145h.117l-.013-7.836h-.116a.145.145 0 0 0-.145.145"/>
  <path fill="#e8e3dd" d="m13.513 11.05.012 7.609c0 .062.05.113.113.113l1.033-.002a.113.113 0 0 0 .113-.113l-.011-7.609a.113.113 0 0 0-.114-.113l-1.033.001a.114.114 0 0 0-.113.114"/>
  <g clip-path="url(#Y)" transform="rotate(180 24.93 38.532) scale(.03528)">
    <path fill="url(#Z)" d="m1014.42 1652.38-9.71.02 9.71-.02m-11.29.02-2.88.01 2.88-.01m24.19.01v.13c1.24.37 2.24 1.34 2.65 2.57a3.216 3.216 0 0 0-2.65-2.7m-33.027 3.22.168 111.1-.168-111.1m23.037.14-12.61.02.33 215.32 12.61-.02-.33-215.32m12.91 216.27c-.14.38-.35.84-.7 1.32l-.03.03c.34-.37.6-.84.73-1.35m-3.44 2.43h-2.18l-2 .01 4.18-.01m-4.86.01h-2.42 2.42m-4.28 0-12.6.02 12.6-.02m-18.32.03h-1.504 1.504"/>
  </g>
  <path fill="#e8e3dd" d="m11.334 11.047.012 7.614a.11.11 0 0 0 .11.11h.043l-.012-7.835h-.042a.11.11 0 0 0-.11.11"/>
  <path fill="#e8e3dd" d="m11.338 11.023.012 7.662a.087.087 0 0 0 .087.086h.562a.087.087 0 0 0 .087-.088l-.012-7.662a.087.087 0 0 0-.087-.086h-.563a.088.088 0 0 0-.086.087"/>
  <g clip-path="url(#aa)" transform="rotate(180 24.93 38.532) scale(.03528)">
    <path fill="url(#ab)" d="M1089.2 1652.38h-.01l-.48.01h.01l.49-.01h-.01m-2.45.01h-.19.19m3.34.16v.17c.75.39 1.33 1.08 1.56 1.92-.08-.95-.7-1.76-1.56-2.09m-19.29 2.32.17 108.59-.17-108.6m13.46.93-7.37.01.34 215.31h7.36l-.33-215.32m7.72 216.43c-.06.24-.16.47-.27.68l-.18.48c-.04.08-.07.15-.1.22.31-.38.51-.86.55-1.38m-2.39 2.27-8.02.01 7.97-.01h.05"/>
  </g>
  <path fill="#e8e3dd" d="m14.787 11.047.012 7.614a.11.11 0 0 0 .11.11h.042l-.012-7.835h-.042c-.06 0-.11.05-.11.11"/>
  <path fill="#e8e3dd" d="m14.79 11.023.012 7.662a.087.087 0 0 0 .087.086h.562a.087.087 0 0 0 .087-.088l-.012-7.662a.087.087 0 0 0-.087-.086h-.562a.088.088 0 0 0-.087.087"/>
  <g clip-path="url(#ac)" transform="rotate(180 24.93 38.532) scale(.03528)">
    <path fill="url(#ad)" d="M991.34 1652.38h-.004l-.484.01h.011l.492-.01h-.015m-2.449.01h-.164.164m3.339.16v.17a3.082 3.082 0 0 1 1.559 1.92 2.453 2.453 0 0 0-1.559-2.09m-19.285 2.32.168 108.59-.168-108.6m13.453.93-7.363.01.332 215.31h7.363l-.332-215.32m7.723 216.43c-.062.24-.156.47-.273.69-.051.15-.114.31-.18.47-.031.08-.066.15-.102.22.317-.38.516-.86.555-1.38m-2.387 2.27-8.019.01 7.965-.01h.054"/>
  </g>
  <g clip-path="url(#ae)" transform="rotate(180 24.93 38.532) scale(.03528)">
    <path fill="url(#af)" d="M972.816 1654.72c0 .04.004.08.004.12l.325 213.07c.082-.46.097-.8.097-.89l-.156-104.08-.047-28.57-.121-78.85c0-.28-.035-.54-.102-.8"/>
  </g>
  <path fill="#e8e3dd" d="m20.404 20.788 1.848 7.387a.11.11 0 0 0 .134.08l.04-.01-1.901-7.601-.04.01a.11.11 0 0 0-.081.134"/>
  <path fill="#e8e3dd" d="m20.4 20.764 1.86 7.433a.087.087 0 0 0 .106.063l.546-.136a.087.087 0 0 0 .063-.105l-1.86-7.433a.086.086 0 0 0-.105-.064l-.546.137a.087.087 0 0 0-.063.105"/>
  <g clip-path="url(#ag)" transform="rotate(180 24.93 38.532) scale(.03528)">
    <path fill="url(#ah)" d="m780.281 1383.35.043.17c.828.19 1.555.73 1.977 1.49a2.472 2.472 0 0 0-2.02-1.66m-7.359 1.67-9.008 2.25c-.012.01-.023.01-.035.01h.027l.297-.08 3.238-.81 5.481-1.37m2.484 2.88-7.144 1.78 52.265 208.88 7.145-1.78-52.266-208.88m59.711 208.18c-.008.25-.043.49-.101.72a8.065 8.065 0 0 1-.106.75c.153-.32.238-.68.238-1.05.004-.14-.007-.28-.031-.42m-1.789 2.78-.476.12h-.016l.453-.11c.016-.01.027-.01.039-.01m-2.406.6-.539.13c-.004.01-.008.01-.016.01l-.25.06.805-.2m-2.426.61-4.449 1.11 4.449-1.11"/>
  </g>
  <path fill="#e8e3dd" d="m21.209 20.853 1.92 7.368a.11.11 0 0 0 .135.079l.04-.01-1.976-7.583-.04.01a.11.11 0 0 0-.08.136"/>
  <path fill="#e8e3dd" d="m21.206 20.83 1.933 7.413a.087.087 0 0 0 .105.062l.545-.142a.087.087 0 0 0 .062-.106l-1.933-7.414a.087.087 0 0 0-.106-.062l-.544.142a.087.087 0 0 0-.062.106"/>
  <g clip-path="url(#ai)" transform="rotate(180 24.93 38.532) scale(.03528)">
    <path fill="url(#aj)" d="m755.387 1382.07.043.16c.832.19 1.562.72 1.992 1.47a2.432 2.432 0 0 0-2.035-1.63m-4.832 4.59-7.125 1.86 54.316 208.36 7.125-1.86-54.316-208.36m14.14 107.57 27.395 105.09.012.03c-.004-.01-.008-.02-.008-.03l-27.399-105.09m47.614 100.02a3.14 3.14 0 0 1-.094.72c-.012.17-.031.33-.055.51-.012.08-.027.16-.043.23a2.45 2.45 0 0 0 .192-1.46m-1.735 2.79-.492.12a.19.19 0 0 1-.066.02l-1.871.49-.465.12c-.012 0-.028.01-.039.01l2.871-.75c.019 0 .043-.01.062-.01m-3.687.96-1.16.3-7.739 2.02-1.91.49-1 .26a.105.105 0 0 1-.055.02c.02 0 .043-.01.063-.02l11.801-3.07m-14.785 1.36c.003 0 .003 0 .003.01 0-.01 0-.01-.003-.01"/>
  </g>
  <path fill="#e8e3dd" d="M12.193 11.076v7.545c0 .08.065.145.145.145h.118v-7.835h-.118a.145.145 0 0 0-.145.145"/>
  <path fill="#302720" d="M12.199 11.045v7.607a.114.114 0 0 0 .114.114h1.04a.114.114 0 0 0 .115-.114v-7.607a.114.114 0 0 0-.114-.114h-1.041a.113.113 0 0 0-.114.114"/>
  <g clip-path="url(#ak)" transform="rotate(180 24.93 38.532) scale(.03528)">
    <path fill="url(#al)" d="M1035.63 1652.52h-.78c-.82 0-1.56.31-2.13.81.22-.13.46-.25.72-.34.61-.3 1.45-.42 2.19-.47m29.26.05v.13c1.25.37 2.25 1.35 2.66 2.59a3.226 3.226 0 0 0-2.66-2.72m-10.07 3.35h-14.11v215.32h14.11v-215.32m12.66 216.3c-.13.38-.35.83-.69 1.3-.01.02-.02.03-.03.04.34-.38.59-.84.72-1.34m-35.59.47a3.235 3.235 0 0 0 2.61 1.92v-.33c-1.23-.34-2.17-.91-2.61-1.59"/>
  </g>
  <g clip-path="url(#am)" transform="rotate(180 24.93 38.532) scale(.03528)">
    <path fill="url(#an)" d="m726.898 1602.64-.679-215.49 12.48-.76v206.96l-11.801 9.29"/>
  </g>
  <g clip-path="url(#ao)" transform="rotate(180 24.93 38.532) scale(.03528)">
    <path fill="url(#ap)" d="m835.074 1595.89-52.472-210.13 10.867-.53 49.75 201.93-8.145 8.73"/>
  </g>
  <g clip-path="url(#aq)" transform="rotate(180 24.93 38.532) scale(.03528)">
    <path fill="url(#ar)" d="M669.324 1386.44h-10.336v217.84l10.336-6.53v-211.31"/>
  </g>
  <path fill="#998675" d="M18.369.07v.085h1.105V.069H18.37m-8.5 9.05v.07h8.5v-.07h-8.5"/>
  <path fill="#38a851" d="M34.063 15.616c.529 0 1.172-1.365 1.493-2.316.123-.366.198-.67.2-.812l.001-.025c.018-.48.31-.383.31-.383s.029-.542.315-.669c0 0-.008-.578.237-.641 0 0-.031-.479.256-.503 0 0-.04-.416.114-.444 0 0 .361-1.275.229-1.548 0 0-.415 1.115-.687 1.178 0 0-.027.556-.463.527 0 0 .18.378-.14.6a.672.672 0 0 1-.149.076s.064.453-.292.546c0 0-.039.53-.41.595l-.007.001s-.05.536-.531.559c0 0-.274 1.298-.764 1.428 0 0-.445 1.832.288 1.831"/>
  <path fill="#389451" d="M34.391 14.838c.33-.14.545-.268.685-.375.19-.383.358-.802.48-1.163-.141-.224-.309-.374-.324-.716-.022-.486.295-.674.523-1.344.052-.153.127-.41.172-.66a.672.672 0 0 1-.148.076s.004.031.005.08c0 .134-.035.398-.297.466 0 0-.039.53-.41.595l-.007.001s-.046.5-.484.555c.035.44.04 1.031-.013 1.568-.034.346-.092.67-.181.917"/>
  <path fill="#fff" d="M32.035 15.758v.02l.003.026.164 1.777.07.748.032.35.016.177s1.181.333 2.664-.056l.181-1.158.285-1.818.01-.062a.11.11 0 0 0-.04-.034 8.222 8.222 0 0 1-.462.088c-.575.093-1.557.197-2.51.035a4.644 4.644 0 0 1-.407-.086l-.006-.007"/>
  <path fill="#ffe1d1" d="M33.512 18.989c.42 0 .925-.046 1.472-.189l.466-2.976.009-.058-.009.058-.285 1.818-.181 1.158a5.81 5.81 0 0 1-1.472.189 4.822 4.822 0 0 0 0 0m-1.2-.214-.009-.097-.017-.19.026.287"/>
  <ellipse cx="33.502" cy="18.947" fill="#8a796e" rx="1.656" ry=".219"/>
  <path fill="#f9f9f9" d="M33.512 18.989c.42 0 .925-.046 1.472-.189l.181-1.158.285-1.818.009-.058c-.015.084-.213.159-.524.213a2.817 2.817 0 0 1-.923 1.674 2.81 2.81 0 0 1-1.741.676l.015.16.017.19.01.096.007.08c.003.002.474.134 1.192.134"/>
  <path fill="#ffe1d1" d="M35.46 15.762"/>
  <path fill="#ffd1bb" d="M35.46 15.762"/>
  <path fill="#fff" d="M32.035 15.758v.02l.003.026.164 1.777a2.611 2.611 0 0 0 .245-1.73 4.64 4.64 0 0 1-.406-.086l-.006-.007"/>
  <path fill="#f9ded2" d="M32.035 15.756c0 .17.766.31 1.712.31s1.713-.14 1.713-.31c0-.17-.767-.31-1.713-.31-.946 0-1.712.14-1.712.31"/>
  <path fill="#683d04" d="M32.249 15.714c0 .115.664.209 1.484.209s1.485-.094 1.485-.209c0-.114-.665-.208-1.485-.208-.82 0-1.484.093-1.484.208"/>
  <circle cx="35.399" cy="9.805" r=".831" fill="#202124" fill-rule="evenodd"/>
  <path fill="#267b51" d="M33.122 13.683s.017.121.053.298c.106.515.379 1.5.887 1.3.293-.116.446-.697.511-1.36.087-.879.018-1.901-.083-2.172-.179-.476.14-.494.14-.494s-.173-.514.047-.737c0 0-.22-.535-.015-.684 0 0-.205-.434.054-.562 0 0-.19-.372-.057-.455 0 0-.132-1.318-.355-1.524 0 0 .023 1.19-.207 1.348 0 0 .179.527-.237.66 0 0 .39.364-.022.735 0 0 .227.399-.07.616 0 0 .16.514-.17.707 0 0 .15.516-.29.715 0 0 .222 1.308-.186 1.609"/>
  <path fill="#0a7543" d="M33.913 15.057c.112-.06.24-.122.386-.18l.093-.04c.09-.246.147-.57.181-.916a.775.775 0 0 1-.613.297.87.87 0 0 1-.428-.115c.01.125.07.33.256.666.06.109.1.204.125.288"/>
  <path fill="#267b51" d="M33.137 15.779c.11.036.185.047.217.05h.02c.108-.004.249-.013.411-.035.684-.089 1.763-.387 2.595-1.35.113-.129.22-.27.321-.424 1.297-1.974 2.272-1.915 2.272-1.915s-.057-.154-.23-.1a.485.485 0 0 1-.052.013c-.195.038-.55.031-.55.031-.114.232-.491.205-.491.205-.036.229-.41.232-.41.232.012.336-.473.342-.473.342-.009.46-.434.428-.434.428-.02.366-.55.508-.55.508a.42.42 0 0 1-.045.182c-.114.213-.404.169-.404.169s.048.321-1.035.761c-.5.203-.79.422-.956.599a.982.982 0 0 0-.206.304"/>
  <path fill="#38a851" d="M29.793 9.145c.018.02.944 1.036 1.779 2.821.215.46.425.972.61 1.53.808 2.422 1.32 2.247 1.43 2.172a.137.137 0 0 0 .021-.019s.583-.107.155-.88c-.428-.773-.194-.857-.194-.857s-.377-.166-.313-.542c0 0-.476-.266-.416-.757 0 0-.409-.1-.357-.476 0 0-.46-.158-.393-.666 0 0-.5-.234-.471-.634 0 0-.496-.19-.472-.57 0 0-.404-.136-.377-.358l-1.002-.764"/>
  <path fill="#337b54" d="M33.491 15.703c.057 0 .097-.02.12-.035a9.62 9.62 0 0 0-2.04-3.702c.216.46.426.972.612 1.53.133.4.258.728.374.999.513.392.712.738.786.98a.896.896 0 0 1 .04.206.296.296 0 0 0 .108.022"/>
  <path fill="#267b51" d="M28.758 12.664s1.343.108 2.446 1.416c.058.068.114.139.17.214.777 1.038 1.431 1.375 1.763 1.485.11.036.185.047.217.05l.019.002v-.002a.691.691 0 0 0-.03-.354c-.083-.27-.323-.672-.982-1.122 0 0-.124-.1-.16-.209a.195.195 0 0 1-.01-.035s-.24.022-.252-.197c0 0-.285-.047-.402-.257a.388.388 0 0 1-.048-.19s-.527-.047-.555-.385c0 0-.456-.012-.535-.305 0 0-.293.02-.436-.136a.271.271 0 0 1-.04-.054s-.796-.317-1.165.08"/>
  <path fill="#4d7a59" d="M35.738 13.946c.22-.038.487-.114.754-.268.517-.298.53-.593 1.094-1.035.505-.394.947-.512 1.105-.625a2.954 2.954 0 0 1-.482.031h-.069c-.092.188-.358.206-.455.206h-.035c-.036.228-.41.23-.41.23v.013c0 .324-.473.33-.473.33-.008.403-.335.428-.416.428h-.018c-.02.366-.55.508-.55.508a.42.42 0 0 1-.045.182"/>
  <path fill="#3f704f" d="M31.537 13.655a.388.388 0 0 1-.048-.19s-.527-.047-.555-.384c0 0-.456-.013-.535-.306l-.032.001c-.08 0-.29-.012-.404-.137.184.322.488.688.976.884.215.087.421.122.598.132"/>
  <path fill="#0a7543" d="M34.192 13.835c.326 0 .294-.665.178-1.33a10.51 10.51 0 0 0-.322-1.33c.001.689.081 1.528-.25 2.169a.367.367 0 0 0 .115.382c.114.075.205.109.279.109"/>
  <path fill="#388e51" d="M33.373 15.83v-.001a.442.442 0 0 0 .01-.105.857.857 0 0 0-.04-.25c-.083-.27-.323-.67-.982-1.121 0 0-.124-.1-.16-.209-.136.018-.236.06-.421.06a1.39 1.39 0 0 1-.576-.125c.058.069.114.14.17.215.777 1.038 1.431 1.375 1.763 1.485.11.036.185.047.217.05l.019.002"/>
  <path fill="#ececec" d="m32.303 18.678.017.178s1.181.333 2.664-.056l.181-1.158c-.155.23-.364.463-.647.662-.792.557-1.673.496-2.215.374"/>
  <path fill="#388e51" d="M33.785 15.794c.684-.089 1.763-.387 2.595-1.349a24.248 24.248 0 0 0-2.595 1.35"/>
  <path fill="#202124" d="m33.565 8.956-.807.069.138 1.605.807-.07z"/>
  <path fill="#f8b819" d="M17.842 9.137h-6.706V2.053h6.706Z"/>
  <g clip-path="url(#as)" transform="matrix(.0393 0 0 -.0393 -7.957 14.224)">
    <g clip-path="url(#at)" opacity=".1">
      <path d="m497.477 298.067 3.774-3.772h139.833l3.772 3.775z"/>
    </g>
    <g clip-path="url(#au)" opacity=".25">
      <path fill="#fff" d="m652.459 305.672 4.037 4.036H485.835l4.039-4.036Z"/>
    </g>
    <g clip-path="url(#av)" opacity=".2">
      <path d="m489.82 133.392-3.984-3.946h170.66l-3.982 3.948z"/>
    </g>
    <g clip-path="url(#aw)" opacity=".3">
      <path fill="#fff" d="m644.912 140.996-3.839 3.875-139.822.007-3.83-3.884z"/>
    </g>
    <g clip-path="url(#ax)" opacity=".2">
      <path fill="#fff" d="m489.874 305.672-4.039 4.036.001-180.263 3.984 3.947z"/>
    </g>
    <g clip-path="url(#ay)" opacity=".05">
      <path d="m497.477 298.067-.056-157.073 3.83 3.884v149.417Z"/>
    </g>
    <g clip-path="url(#az)" opacity=".5">
      <path fill="#fff" d="m644.856 298.07-3.771-3.775-.011-149.424 3.839-3.875z"/>
    </g>
    <g clip-path="url(#aA)" opacity=".15">
      <path d="m652.459 305.672.056-172.278 3.981-3.95v180.264Z"/>
    </g>
  </g>
  <path fill="#ede5d3" d="M17.236 8.531h-5.495V2.659h5.496z"/>
  <g clip-path="url(#aB)" transform="matrix(.0393 0 0 -.0393 -7.957 14.224)">
    <g clip-path="url(#aC)" opacity=".1">
      <path d="M505.022 290.522H641.11l-.025 3.773H501.253V144.877l3.77.028Z"/>
    </g>
  </g>
  <g clip-path="url(#aD)" transform="matrix(.05515 0 0 -.05515 -16.905 17.817)">
    <g clip-path="url(#aE)" opacity=".1">
      <path d="m530.71 263.17 2.103-2.095h76.708l2.1 2.097z"/>
    </g>
  </g>
  <g clip-path="url(#aF)" transform="matrix(.05515 0 0 -.05515 -16.905 17.817)">
    <g clip-path="url(#aG)" opacity=".3">
      <path fill="#fff" d="m611.653 175.923-2.133 2.156-76.705.004-2.136-2.16Z"/>
    </g>
  </g>
  <g clip-path="url(#aH)" transform="matrix(.05515 0 0 -.05515 -16.905 17.817)">
    <g clip-path="url(#aI)" opacity=".05">
      <path d="m530.71 263.17-.03-87.247 2.135 2.16-.002 82.992z"/>
    </g>
  </g>
  <g clip-path="url(#aJ)" transform="matrix(.05515 0 0 -.05515 -16.905 17.817)">
    <g clip-path="url(#aK)" opacity=".4">
      <path fill="#fff" d="m611.622 263.172-2.102-2.097v-82.996l2.133-2.156z"/>
    </g>
  </g>
  <path fill="#202124" d="M16.651 7.936h-4.166V3.43h4.166Z"/>
  <g mask="url(#aL)" transform="matrix(.97833 0 0 .97833 -10.884 .972)">
    <g clip-path="url(#aM)" color="#000" transform="matrix(.01108 0 0 .01108 26.024 4.766)">
      <path fill="none" d="M7.926 166.964c0-48.999 25.191-374.464 101.073-374.464h109.002c-151.765 0-202.147 325.462-202.147 374.464m-15.852 0V-207.5H-109c75.883 0 101.074 325.462 101.074 374.464m7.928 0V-207.5H-109c75.883 0 101.074 325.462 101.074 374.464m-7.925 0c0-48.999-50.382-374.464-202.147-374.464H-327c227.648 0 303.22 325.462 303.22 374.464m7.929 0c0-48.999-50.382-374.464-202.147-374.464H-327c227.648 0 303.22 325.462 303.22 374.464m47.56 0C23.78 117.965 99.353-207.5 327-207.5H217.999c-151.765 0-202.147 325.462-202.147 374.464m7.928 0C23.78 117.965 99.353-207.5 327-207.5H217.999c-151.765 0-202.147 325.462-202.147 374.464m-7.926 0C7.926 117.965 33.117-207.5 109-207.5H-.002v374.464m7.928 0C7.926 117.965 33.117-207.5 109-207.5H-.002v374.464m-7.921 0c0-48.999-25.191-374.464-101.073-374.464h-109.002c151.765 0 202.147 325.462 202.147 374.464m7.928 0c0-48.999-25.191-374.464-101.073-374.464h-109.002c151.765 0 202.147 325.462 202.147 374.464" style="-inkscape-stroke:none"/>
      <path fill="#202124" d="M-327-208.5v2c7.084 0 14.02.317 20.81.932 6.791.614 13.438 1.526 19.94 2.718a215.987 215.987 0 0 1 37.313 10.371 221.608 221.608 0 0 1 17.404 7.432 231.067 231.067 0 0 1 16.586 8.783c26.971 15.704 50.6 36.584 71.176 60.36a368.808 368.808 0 0 1 11.98 14.593c7.747 9.938 15.016 20.266 21.824 30.838a475.383 475.383 0 0 1 9.871 16.024 512.63 512.63 0 0 1 9.194 16.281 547.895 547.895 0 0 1 8.53 16.428A582.185 582.185 0 0 1-74.49-5.277a626.026 626.026 0 0 1 13.863 32.59 664.901 664.901 0 0 1 20.52 60.742 597.819 597.819 0 0 1 6.877 26.398c1.934 8.211 3.52 15.783 4.771 22.563 2.504 13.56 3.68 23.952 3.68 29.949h2c0-6.254-1.187-16.753-3.705-30.371-1.26-6.81-2.852-14.397-4.795-22.625a606.72 606.72 0 0 0-6.905-26.461 662.682 662.682 0 0 0-9.123-29.426 664.996 664.996 0 0 0-11.459-31.5A627.805 627.805 0 0 0-72.672-6.113a584.218 584.218 0 0 0-7.908-16.52 550.09 550.09 0 0 0-8.563-16.486c-11.86-21.914-25.512-43.457-41.105-63.445-11.695-14.992-24.48-29.108-38.422-41.85a286.225 286.225 0 0 0-14.328-12.266c-9.812-7.847-20.146-15.01-31.022-21.34-10.875-6.329-22.29-11.826-34.265-16.341a217.874 217.874 0 0 0-37.623-10.455c-4.023-.738-8.204-1.163-12.336-1.684h80.246c4.698 0 9.299.315 13.803.926 13.51 1.833 26.155 6.335 37.982 13.027a127.77 127.77 0 0 1 11.557 7.404c7.524 5.4 14.692 11.7 21.517 18.76 3.413 3.53 6.741 7.25 9.985 11.143 3.243 3.892 6.4 7.955 9.474 12.172a280.031 280.031 0 0 1 8.975 13.091v.002c5.816 9.01 11.302 18.558 16.47 28.498v.002a434.748 434.748 0 0 1 7.516 15.186v.002a493.984 493.984 0 0 1 7.047 15.664 555.454 555.454 0 0 1 6.586 16.031 617.679 617.679 0 0 1 6.133 16.287v.002a710.712 710.712 0 0 1 10.945 32.9v.003c6.722 21.932 12.31 43.664 16.863 64.017v.002a919.781 919.781 0 0 1 6.069 29.348v.002c3.543 18.68 6.099 35.41 7.77 48.979.835 6.784 1.448 12.778 1.853 17.832.405 5.053.601 9.166.601 12.185h2c0-6.21-.789-16.693-2.466-30.303a685.714 685.714 0 0 0-3.194-22.615 860.039 860.039 0 0 0-4.6-26.451 921.909 921.909 0 0 0-6.08-29.414 901.675 901.675 0 0 0-7.636-31.486v-.002a823.715 823.715 0 0 0-9.268-32.68v-.002a712.837 712.837 0 0 0-10.976-32.994 621.555 621.555 0 0 0-6.153-16.34v-.002a557.83 557.83 0 0 0-6.607-16.088v-.002a495.599 495.599 0 0 0-7.072-15.726v-.002a436.112 436.112 0 0 0-7.551-15.256v-.002a380.132 380.132 0 0 0-8.035-14.676 328.566 328.566 0 0 0-8.531-13.984v-.002a282.008 282.008 0 0 0-9.041-13.184 240.757 240.757 0 0 0-9.557-12.275 204.11 204.11 0 0 0-10.088-11.254 174.057 174.057 0 0 0-10.63-10.123 149.376 149.376 0 0 0-11.184-8.877 130.017 130.017 0 0 0-11.745-7.518 115.842 115.842 0 0 0-12.31-6.045c-6.793-2.842-13.907-4.784-21.207-6.162h89.787c2.28 0 4.517.305 6.71.9 6.586 1.788 12.79 6.194 18.667 12.842 1.959 2.216 3.876 4.68 5.752 7.371 3.752 5.384 7.338 11.683 10.754 18.744a219.575 219.575 0 0 1 4.996 11.147 289.344 289.344 0 0 1 4.742 12.18s.002 0 .002.002c4.615 12.66 8.85 26.703 12.73 41.627 5.174 19.9 9.71 41.367 13.653 63.22 3.942 21.854 7.292 44.1 10.1 65.555 8.423 64.367 11.964 121.63 11.964 139.877h2.002c0-6.168-.393-16.64-1.23-30.248-1.256-20.411-3.51-47.878-6.932-78.45-2.28-20.38-5.08-42.141-8.449-64.115a1269.994 1269.994 0 0 0-5.484-32.972c-3.95-21.892-8.49-43.402-13.68-63.366-2.595-9.981-5.352-19.576-8.277-28.638-2.926-9.062-6.02-17.591-9.291-25.442-6.542-15.7-13.783-28.69-21.85-37.816-5.312-6.01-11.054-10.15-17.14-12.418h98.255v373.465h2.004V-206.5h98.26c-1.466.546-2.947 1.006-4.367 1.787-4.481 2.464-8.74 6.068-12.774 10.631-6.05 6.844-11.636 15.863-16.81 26.568a222.593 222.593 0 0 0-5.04 11.248 292.111 292.111 0 0 0-4.775 12.268 373.384 373.384 0 0 0-4.517 13.174C42.2-103.64 34.947-71.658 29.023-38.82a1270.007 1270.007 0 0 0-5.486 32.972 1511.094 1511.094 0 0 0-4.63 32.655 1689.743 1689.743 0 0 0-3.817 31.46c-3.422 30.572-5.678 58.039-6.934 78.45-.837 13.607-1.23 24.08-1.23 30.248h2c0-6.082.394-16.5 1.23-30.07.837-13.57 2.116-30.294 3.889-48.989.886-9.347 1.896-19.187 3.035-29.373a1690.213 1690.213 0 0 1 3.81-31.443 1508.38 1508.38 0 0 1 4.626-32.63 1263.884 1263.884 0 0 1 5.474-32.925c3.943-21.853 8.48-43.323 13.653-63.222 2.586-9.95 5.333-19.508 8.244-28.526a371.476 371.476 0 0 1 4.488-13.101c1.538-4.22 3.12-8.288 4.742-12.182a219.574 219.574 0 0 1 4.996-11.147 162.89 162.89 0 0 1 5.25-10.002 116.9 116.9 0 0 1 5.504-8.742c1.876-2.691 3.793-5.155 5.752-7.37 1.959-2.217 3.953-4.184 5.986-5.888 2.034-1.703 4.107-3.144 6.22-4.308 4.223-2.327 8.61-3.547 13.173-3.547h89.785c-11.814 2.23-23.025 6.274-33.517 12.207-12.026 6.8-23.199 15.81-33.557 26.518h-.002a204.11 204.11 0 0 0-10.088 11.254c-13.091 15.71-24.776 34.14-35.164 54.12a436.091 436.091 0 0 0-7.549 15.258C71.596-71.63 65-55.413 59.072-38.983A712.802 712.802 0 0 0 48.098-5.987a823.762 823.762 0 0 0-9.27 32.681 901.534 901.534 0 0 0-7.635 31.489 922.009 922.009 0 0 0-6.08 29.414c-5.327 28.083-8.435 51.699-9.656 66.992-.407 5.098-.605 9.271-.605 12.377h2.002c0-12.08 3.14-41.637 10.226-78.998C34.167 50.605 45.198 5.373 60.957-38.305c15.759-43.678 36.254-85.8 62.201-116.935a202.942 202.942 0 0 1 9.983-11.143c6.825-7.06 13.993-13.361 21.517-18.76 3.763-2.699 7.613-5.173 11.555-7.404 7.885-4.461 16.134-7.95 24.76-10.322 8.626-2.373 17.63-3.631 27.025-3.631H298.244c-10.866 1.37-21.457 3.297-31.574 6.12-37.618 10.493-70.118 30.481-98 55.966-13.94 12.742-26.727 26.858-38.422 41.85a404.647 404.647 0 0 0-11.334 15.263 440.077 440.077 0 0 0-10.619 15.737c-6.844 10.623-13.222 21.488-19.152 32.445a550.186 550.186 0 0 0-8.563 16.488A599.335 599.335 0 0 0 65.406 10.33c-11.585 27.275-20.56 53.767-27.222 77.18a606.676 606.676 0 0 0-6.905 26.459c-3.887 16.455-6.369 30.355-7.591 40.572-.612 5.109-.909 9.297-.909 12.424h2c0-2.998.296-7.097.903-12.139 1.82-15.126 6.456-38.761 14.425-66.77C46.748 64.717 55.7 38.3 67.248 11.112c6.93-16.313 14.793-32.903 23.654-49.277a512.635 512.635 0 0 1 9.194-16.281c9.53-16.171 20.074-31.958 31.695-46.864a368.856 368.856 0 0 1 11.982-14.593c8.231-9.51 16.949-18.559 26.174-26.996 13.839-12.657 28.817-23.941 45-33.364 10.789-6.281 22.113-11.735 33.99-16.215a216.51 216.51 0 0 1 18.235-5.97c12.436-3.47 25.436-5.89 39.017-7.12 6.791-.614 13.727-.931 20.811-.931v-2h-544.998z" style="-inkscape-stroke:none"/>
    </g>
    <g clip-path="url(#aN)" color="#000" transform="matrix(.01108 0 0 .01108 26.024 4.766)">
      <path fill="none" d="M.002 166.964V-207.5H-109c75.883 0 101.074 325.462 101.074 374.464m-7.925 0c0-48.999-50.382-374.464-202.147-374.464H-327c227.648 0 303.22 325.462 303.22 374.464m7.929 0c0-48.999-50.382-374.464-202.147-374.464H-327c227.648 0 303.22 325.462 303.22 374.464m47.56 0C23.78 117.965 99.353-207.5 327-207.5H217.999c-151.765 0-202.147 325.462-202.147 374.464m7.928 0C23.78 117.965 99.353-207.5 327-207.5H217.999c-151.765 0-202.147 325.462-202.147 374.464m-7.926 0C7.926 117.965 33.117-207.5 109-207.5H-.002v374.464m7.928 0C7.926 117.965 33.117-207.5 109-207.5H-.002v374.464m-7.921 0c0-48.999-25.191-374.464-101.073-374.464h-109.002c151.765 0 202.147 325.462 202.147 374.464m7.928 0c0-48.999-25.191-374.464-101.073-374.464h-109.002c151.765 0 202.147 325.462 202.147 374.464" style="-inkscape-stroke:none"/>
      <path fill="#202124" d="M-327-208.5a1 1 0 0 0-.986 1 1 1 0 0 0 .986 1c7.084 0 14.02.317 20.81.932 20.373 1.844 39.436 6.37 57.252 13.09 11.878 4.479 23.202 9.933 33.99 16.214a244.759 244.759 0 0 1 15.784 10.026 262.466 262.466 0 0 1 14.996 11.156c9.737 7.792 18.958 16.267 27.682 25.277 13.085 13.516 25.05 28.24 35.96 43.676a438.374 438.374 0 0 1 10.56 15.656c6.808 10.573 13.156 21.39 19.064 32.305a547.895 547.895 0 0 1 8.53 16.428A597.55 597.55 0 0 1-67.247 11.11a638.817 638.817 0 0 1 6.621 16.201A663.233 663.233 0 0 1-49.203 58.72c3.414 10.172 6.44 20 9.096 29.336a597.819 597.819 0 0 1 6.877 26.398c1.934 8.211 3.52 15.783 4.771 22.563 2.504 13.56 3.68 23.952 3.68 29.949a1 1 0 0 0 1 1 1 1 0 0 0 1-1c0-6.254-1.187-16.753-3.705-30.371-1.26-6.81-2.852-14.397-4.795-22.625a606.72 606.72 0 0 0-6.905-26.461 662.682 662.682 0 0 0-9.123-29.426 664.996 664.996 0 0 0-11.459-31.5c-8.442-21.496-18.517-43.787-30.377-65.701-11.86-21.914-25.512-43.457-41.105-63.445-19.491-24.986-42.015-47.543-67.861-65.356a246.893 246.893 0 0 0-15.91-10.1 233.12 233.12 0 0 0-16.721-8.851c-20.635-9.864-43.168-16.559-67.504-19.629h80.246c4.698 0 9.299.315 13.803.926 4.503.61 8.91 1.518 13.222 2.705a104.765 104.765 0 0 1 12.659 4.379 113.652 113.652 0 0 1 12.101 5.943 127.77 127.77 0 0 1 11.557 7.404c3.762 2.7 7.435 5.626 11.021 8.758 7.172 6.265 13.994 13.36 20.48 21.145 3.244 3.892 6.4 7.955 9.475 12.172a280.031 280.031 0 0 1 8.975 13.091v.002a327.041 327.041 0 0 1 8.478 13.9 378.69 378.69 0 0 1 7.993 14.598v.002a434.748 434.748 0 0 1 7.515 15.186v.002c4.853 10.296 9.395 20.91 13.633 31.695a617.679 617.679 0 0 1 6.133 16.287v.002a710.712 710.712 0 0 1 10.945 32.9 821.932 821.932 0 0 1 9.244 32.604 899.815 899.815 0 0 1 7.62 31.416v.002a919.781 919.781 0 0 1 6.068 29.348v.002a851.596 851.596 0 0 1 4.586 26.406c3.872 24.64 5.638 43.531 5.638 52.59a1 1 0 0 0 1 1 1 1 0 0 0 .707-.293 1 1 0 0 0 .293-.707c0-6.21-.789-16.693-2.466-30.303a685.714 685.714 0 0 0-3.194-22.615 860.039 860.039 0 0 0-4.6-26.451 921.941 921.941 0 0 0-6.08-29.412v-.002a901.675 901.675 0 0 0-7.636-31.486v-.002a823.715 823.715 0 0 0-9.268-32.68v-.002a712.837 712.837 0 0 0-10.976-32.994 621.425 621.425 0 0 0-6.153-16.342 557.83 557.83 0 0 0-6.607-16.088v-.002a495.599 495.599 0 0 0-7.072-15.726v-.002a436.115 436.115 0 0 0-7.551-15.256v-.002a380.132 380.132 0 0 0-8.035-14.676 328.58 328.58 0 0 0-8.531-13.986 282.008 282.008 0 0 0-9.042-13.184 240.757 240.757 0 0 0-9.556-12.275 204.113 204.113 0 0 0-10.088-11.254 174.057 174.057 0 0 0-10.63-10.123 149.376 149.376 0 0 0-11.184-8.877 130.017 130.017 0 0 0-11.745-7.518c-8.017-4.534-16.412-8.085-25.197-10.504-2.713-.747-5.533-1.177-8.32-1.703h89.787c2.28 0 4.517.305 6.71.9 6.586 1.788 12.79 6.194 18.667 12.842 7.835 8.864 15.011 21.685 21.502 37.262a289.344 289.344 0 0 1 4.742 12.18s.002 0 .002.002c10.768 29.54 19.484 66.605 26.383 104.847C-15.221 48.947-8.926 142.635-8.926 166.965a1 1 0 0 0 .295.707 1 1 0 0 0 .707.293 1 1 0 0 0 .705-.293 1 1 0 0 0 .295-.707c0-12.336-1.573-41.89-5.123-79.307-.887-9.354-1.898-19.2-3.039-29.39-3.421-30.572-8.01-64.25-13.934-97.088a1003.959 1003.959 0 0 0-6.375-32.407c-2.277-10.61-4.71-20.977-7.304-30.959-5.19-19.963-11.027-38.38-17.569-54.08-6.541-15.7-13.783-28.69-21.85-37.816-5.311-6.01-11.053-10.15-17.14-12.418h98.256v373.465a1 1 0 0 0 .293.707 1 1 0 0 0 .707.293 1 1 0 0 0 .002 0 1 1 0 0 0 .002 0 1 1 0 0 0 1-1V-206.5h98.26c-1.466.546-2.947 1.006-4.367 1.787-4.482 2.464-8.74 6.068-12.774 10.631-4.033 4.563-7.86 10.092-11.496 16.443-3.636 6.351-7.083 13.523-10.354 21.373a292.111 292.111 0 0 0-4.775 12.268 373.384 373.384 0 0 0-4.517 13.174C42.2-103.64 34.947-71.658 29.023-38.82a1270.007 1270.007 0 0 0-5.486 32.972c-5.052 32.96-8.824 65.444-11.486 93.506-1.775 18.708-3.057 35.451-3.895 49.059-.837 13.607-1.23 24.08-1.23 30.248a1 1 0 0 0 .293.707 1 1 0 0 0 .707.293 1 1 0 0 0 1-1c0-6.082.394-16.5 1.23-30.07.837-13.57 2.116-30.294 3.889-48.989 2.659-28.042 6.427-60.52 11.47-93.445a1263.884 1263.884 0 0 1 5.475-32.926 999.615 999.615 0 0 1 6.365-32.344c2.274-10.586 4.7-20.929 7.288-30.879 3.88-14.924 8.117-28.966 12.732-41.626 1.538-4.22 3.12-8.288 4.742-12.182a219.574 219.574 0 0 1 4.996-11.147 162.89 162.89 0 0 1 5.25-10.002c3.585-6.26 7.338-11.68 11.256-16.113 1.959-2.216 3.955-4.183 5.988-5.887 4.068-3.407 8.288-5.763 12.678-6.955 2.195-.595 4.433-.9 6.715-.9a1 1 0 0 0 .854-1.496 1 1 0 0 0-.854-.504h-326.998zm544.998 0c-4.787 0-9.474.322-14.062.945-9.178 1.247-17.96 3.703-26.358 7.217a115.87 115.87 0 0 0-12.312 6.045c-8.018 4.534-15.655 10.049-22.926 16.395-7.271 6.345-14.175 13.522-20.72 21.377a240.757 240.757 0 0 0-9.557 12.275c-6.198 8.499-12.051 17.604-17.573 27.17-5.521 9.566-10.71 19.593-15.584 29.933-4.873 10.341-9.43 20.996-13.681 31.819a621.551 621.551 0 0 0-6.153 16.342A712.802 712.802 0 0 0 48.098-5.988a823.762 823.762 0 0 0-9.27 32.681 915.835 915.835 0 0 0-13.715 60.903c-5.327 28.083-8.435 51.699-9.656 66.992-.407 5.098-.605 9.271-.605 12.377a1 1 0 0 0 1 1 1 1 0 0 0 1-1c0-3.02.196-7.132.601-12.186.81-10.106 2.455-23.977 5.037-40.404a851.823 851.823 0 0 1 4.588-26.408 919.55 919.55 0 0 1 6.067-29.35c4.553-20.354 10.143-42.086 16.865-64.02a710.704 710.704 0 0 1 10.945-32.902c9.85-27.299 21.547-53.988 35.272-77.77a327.065 327.065 0 0 1 8.48-13.902 280.006 280.006 0 0 1 8.973-13.091 238.308 238.308 0 0 1 9.476-12.172 202.938 202.938 0 0 1 9.983-11.143c6.825-7.06 13.995-13.36 21.52-18.76 7.524-5.398 15.404-9.894 23.655-13.347 8.252-3.453 16.876-5.862 25.883-7.084 4.504-.611 9.103-.926 13.801-.926h80.246c-4.132.521-8.313.946-12.336 1.684-26.226 4.811-50.138 14.138-71.888 26.796a246.92 246.92 0 0 0-15.91 10.102 264.645 264.645 0 0 0-15.112 11.238 286.23 286.23 0 0 0-14.328 12.266 311.358 311.358 0 0 0-13.559 13.182 339.732 339.732 0 0 0-12.802 13.986c-12.43 14.353-23.747 29.746-34.014 45.682-6.845 10.623-13.223 21.488-19.152 32.445A567.025 567.025 0 0 0 72.672-6.111a627.761 627.761 0 0 0-13.906 32.693A666.916 666.916 0 0 0 38.184 87.51a606.676 606.676 0 0 0-6.905 26.459c-3.887 16.455-6.369 30.355-7.591 40.572-.612 5.109-.909 9.297-.909 12.424a1 1 0 0 0 1 1 1 1 0 0 0 .707-.293 1 1 0 0 0 .293-.707c0-2.998.296-7.097.903-12.139 1.213-10.084 3.679-23.95 7.548-40.373a597.775 597.775 0 0 1 6.877-26.396C46.748 64.717 55.7 38.3 67.248 11.11A612.906 612.906 0 0 1 74.49-5.275a582.191 582.191 0 0 1 7.881-16.463 547.903 547.903 0 0 1 8.531-16.428 512.635 512.635 0 0 1 9.194-16.281 475.482 475.482 0 0 1 9.87-16.026 438.442 438.442 0 0 1 10.561-15.656 402.747 402.747 0 0 1 11.264-15.182 368.856 368.856 0 0 1 11.982-14.593 337.513 337.513 0 0 1 12.713-13.9c17.447-18.022 36.884-33.897 58.461-46.46a231.067 231.067 0 0 1 16.586-8.783 221.61 221.61 0 0 1 17.404-7.432C272.693-201.437 298.663-206.5 327-206.5a1 1 0 0 0 .854-.504 1 1 0 0 0 0-.992 1 1 0 0 0-.854-.504Z" style="-inkscape-stroke:none"/>
    </g>
    <g clip-path="url(#aO)" color="#000" transform="matrix(.01108 0 0 .01108 26.024 4.766)">
      <path fill="none" d="M-15.851 166.964c0-48.999-50.382-374.464-202.147-374.464H-327c227.648 0 303.22 325.462 303.22 374.464m47.56 0C23.78 117.965 99.353-207.5 327-207.5H217.999c-151.765 0-202.147 325.462-202.147 374.464m7.928 0C23.78 117.965 99.353-207.5 327-207.5H217.999c-151.765 0-202.147 325.462-202.147 374.464m-7.926 0C7.926 117.965 33.117-207.5 109-207.5H-.002v374.464m7.928 0C7.926 117.965 33.117-207.5 109-207.5H-.002v374.464m-7.921 0c0-48.999-25.191-374.464-101.073-374.464h-109.002c151.765 0 202.147 325.462 202.147 374.464m7.928 0c0-48.999-25.191-374.464-101.073-374.464h-109.002c151.765 0 202.147 325.462 202.147 374.464" style="-inkscape-stroke:none"/>
      <path fill="#202124" d="M-327-208.5a1 1 0 0 0 0 2c113.347 0 188.838 81.006 236.098 168.332 23.63 43.663 40.17 88.878 50.795 126.223 10.625 37.344 15.328 66.916 15.328 78.91a1 1 0 0 0 1 1 1 1 0 0 0 1-1c0-12.508-4.746-41.996-15.405-79.457-10.658-37.461-27.24-82.8-50.959-126.627-43.327-80.06-110.684-154.965-209.101-167.381h80.246c4.698 0 9.299.315 13.803.926 4.503.61 8.91 1.518 13.222 2.705a104.765 104.765 0 0 1 12.659 4.379 113.652 113.652 0 0 1 12.101 5.943 127.77 127.77 0 0 1 11.557 7.404c7.524 5.4 14.692 11.7 21.517 18.76 3.413 3.53 6.741 7.25 9.985 11.143 3.243 3.892 6.4 7.955 9.474 12.172a280.031 280.031 0 0 1 8.975 13.091v.002a327.041 327.041 0 0 1 8.478 13.9 378.69 378.69 0 0 1 7.993 14.598v.002a434.748 434.748 0 0 1 7.515 15.186v.002c7.28 15.444 13.857 31.604 19.766 47.982v.002a710.712 710.712 0 0 1 10.945 32.9 821.932 821.932 0 0 1 9.244 32.604 899.815 899.815 0 0 1 7.62 31.416v.002a919.781 919.781 0 0 1 6.068 29.348v.002a851.596 851.596 0 0 1 4.586 26.406c2.582 16.427 4.227 30.298 5.037 40.405.405 5.053.601 9.166.601 12.185a1 1 0 0 0 1 1 1 1 0 0 0 1-1c0-6.21-.789-16.693-2.466-30.303a685.714 685.714 0 0 0-3.194-22.615 860.039 860.039 0 0 0-4.6-26.451 922.05 922.05 0 0 0-6.08-29.412v-.002a901.675 901.675 0 0 0-7.636-31.486v-.002a823.715 823.715 0 0 0-9.268-32.68v-.002a712.837 712.837 0 0 0-10.976-32.994 621.555 621.555 0 0 0-6.153-16.34v-.002a557.83 557.83 0 0 0-6.607-16.088v-.002a495.599 495.599 0 0 0-7.072-15.727v-.002a436.109 436.109 0 0 0-7.551-15.255v-.002c-5.194-9.99-10.71-19.592-16.566-28.66v-.003a282.008 282.008 0 0 0-9.042-13.183 240.757 240.757 0 0 0-9.556-12.276 204.113 204.113 0 0 0-10.088-11.253c-6.906-7.139-14.173-13.523-21.814-19-7.642-5.478-15.657-10.049-24.055-13.563-4.2-1.757-8.494-3.25-12.887-4.459-2.713-.747-5.533-1.177-8.32-1.703h89.787c6.846 0 13.292 2.744 19.392 7.855 2.034 1.704 4.03 3.671 5.989 5.887 5.876 6.648 11.382 15.523 16.506 26.115a219.576 219.576 0 0 1 4.996 11.147c9.736 23.366 17.941 52.928 24.761 84.687a999.65 999.65 0 0 1 6.364 32.344c5.913 32.78 10.495 66.442 13.912 96.998a1758.793 1758.793 0 0 1 3.033 29.373c1.773 18.695 3.054 35.418 3.89 48.988.837 13.57 1.23 23.989 1.23 30.07a1 1 0 0 0 1 1 1 1 0 0 0 1-1c0-6.167-.394-16.64-1.231-30.247-.838-13.608-2.118-30.35-3.893-49.059-.887-9.354-1.898-19.2-3.039-29.39-1.14-10.191-2.41-20.727-3.816-31.461-2.812-21.47-6.168-43.735-10.118-65.627a1003.959 1003.959 0 0 0-6.375-32.407c-4.555-21.219-9.73-41.474-15.582-59.597-2.925-9.062-6.02-17.591-9.29-25.442a222.593 222.593 0 0 0-5.04-11.248 164.32 164.32 0 0 0-5.314-10.125c-3.636-6.35-7.463-11.88-11.496-16.443-8.067-9.126-17.036-14.418-26.88-14.418h-109.001zm326.998 0a1 1 0 0 0-1 1v374.465a1 1 0 0 0 .293.707 1 1 0 0 0 .707.293 1 1 0 0 0 1-1V-206.5h98.264c-3.776 1.407-7.443 3.407-10.922 6.314-2.13 1.78-4.202 3.822-6.219 6.104-2.017 2.281-3.98 4.804-5.896 7.55-1.916 2.747-3.782 5.718-5.6 8.893a164.32 164.32 0 0 0-5.314 10.125 222.593 222.593 0 0 0-5.04 11.248 292.111 292.111 0 0 0-4.775 12.268 373.384 373.384 0 0 0-4.517 13.174c-2.926 9.062-5.681 18.657-8.276 28.638-5.19 19.964-9.73 41.474-13.68 63.366C21.125 4.964 15.6 50.242 12.051 87.658c-1.775 18.708-3.057 35.451-3.895 49.059-.837 13.607-1.23 24.08-1.23 30.248a1 1 0 0 0 .293.707 1 1 0 0 0 .707.293 1 1 0 0 0 1-1c0-6.082.394-16.5 1.23-30.07.837-13.57 2.116-30.294 3.889-48.989A1732.32 1732.32 0 0 1 20.89 27.09c2.807-21.456 6.157-43.701 10.1-65.555 7.884-43.707 18.145-85.876 31.126-117.031 4.868-11.683 10.122-21.815 15.75-29.89 1.876-2.692 3.793-5.156 5.752-7.372 1.959-2.216 3.955-4.183 5.988-5.887 2.034-1.703 4.105-3.144 6.217-4.308 2.113-1.164 4.266-2.05 6.461-2.647 2.195-.595 4.433-.9 6.715-.9a1 1 0 0 0 0-2zm218 0c-14.362 0-27.822 2.891-40.42 8.162a115.87 115.87 0 0 0-12.312 6.045c-12.026 6.8-23.2 15.81-33.559 26.518a204.11 204.11 0 0 0-10.088 11.254 240.757 240.757 0 0 0-9.556 12.275c-6.198 8.499-12.051 17.604-17.573 27.17a380.13 380.13 0 0 0-8.035 14.676 436.091 436.091 0 0 0-7.549 15.257 495.635 495.635 0 0 0-7.074 15.729c-4.56 10.618-8.808 21.478-12.76 32.432C51.17-17.076 44.454 5.206 38.828 26.693a901.534 901.534 0 0 0-7.635 31.489 922.009 922.009 0 0 0-6.08 29.414 860.02 860.02 0 0 0-4.6 26.45c-2.59 16.452-4.242 30.346-5.056 40.542-.407 5.098-.605 9.271-.605 12.377a1 1 0 0 0 .293.707 1 1 0 0 0 .707.293 1 1 0 0 0 1-1c0-3.02.196-7.132.601-12.186.81-10.106 2.455-23.977 5.037-40.404a851.823 851.823 0 0 1 4.588-26.408c5.315-28.021 12.849-60.47 22.932-93.37a710.704 710.704 0 0 1 10.945-32.902 617.675 617.675 0 0 1 6.133-16.287c4.238-10.785 8.778-21.4 13.63-31.697 7.28-15.444 15.264-30.173 23.989-43.688 5.817-9.01 11.962-17.48 18.45-25.263 22.703-27.244 49.514-46.057 81.04-50.334 4.504-.611 9.103-.926 13.801-.926h80.246c-10.867 1.37-21.457 3.297-31.574 6.12-12.54 3.497-24.51 8.051-35.93 13.51-11.42 5.46-22.292 11.827-32.63 18.952-15.509 10.688-29.82 23.083-42.999 36.686-8.785 9.068-17.066 18.673-24.863 28.668-15.593 19.988-29.246 41.53-41.105 63.445A567.025 567.025 0 0 0 72.672-6.111a614.801 614.801 0 0 0-7.266 16.441 657.598 657.598 0 0 0-18.1 47.752 662.745 662.745 0 0 0-9.122 29.428c-7.994 28.096-12.662 51.705-14.496 67.031-.612 5.109-.909 9.297-.909 12.424a1 1 0 0 0 1 1 1 1 0 0 0 1-1c0-2.998.296-7.097.903-12.139 1.82-15.126 6.456-38.761 14.425-66.77a660.469 660.469 0 0 1 9.096-29.337 663.188 663.188 0 0 1 11.424-31.405A626.035 626.035 0 0 1 74.49-5.276a564.864 564.864 0 0 1 16.412-32.89c8.862-16.374 18.716-32.526 29.625-47.963a402.747 402.747 0 0 1 11.264-15.182c11.62-14.906 24.318-28.933 38.156-41.59a283.965 283.965 0 0 1 14.221-12.18 262.498 262.498 0 0 1 14.996-11.157 244.755 244.755 0 0 1 15.783-10.026 231.067 231.067 0 0 1 16.586-8.783 221.61 221.61 0 0 1 17.405-7.432 215.985 215.985 0 0 1 37.312-10.37 220.725 220.725 0 0 1 19.94-2.72c6.79-.614 13.726-.931 20.81-.931a1 1 0 0 0 .854-.504A1 1 0 0 0 327-208.5Z" style="-inkscape-stroke:none"/>
    </g>
    <g clip-path="url(#aP)" color="#000" transform="matrix(.01108 0 0 .01108 26.024 4.766)">
      <path fill="none" d="M23.78 166.964C23.78 117.965 99.353-207.5 327-207.5H217.999c-151.765 0-202.147 325.462-202.147 374.464m-7.926 0C7.926 117.965 33.117-207.5 109-207.5H-.002v374.464m7.928 0C7.926 117.965 33.117-207.5 109-207.5H-.002v374.464m-7.921 0c0-48.999-25.191-374.464-101.073-374.464h-109.002c151.765 0 202.147 325.462 202.147 374.464m7.928 0c0-48.999-25.191-374.464-101.073-374.464h-109.002c151.765 0 202.147 325.462 202.147 374.464" style="-inkscape-stroke:none"/>
      <path fill="#202124" d="M-217.998-208.5a1 1 0 0 0-.986 1 1 1 0 0 0 .986 1c4.698 0 9.299.315 13.803.926 13.51 1.833 26.155 6.335 37.982 13.027 11.827 6.692 22.836 15.574 33.074 26.164 3.413 3.53 6.741 7.25 9.985 11.143 3.243 3.892 6.4 7.955 9.474 12.172 9.224 12.65 17.693 26.68 25.446 41.591 10.337 19.883 19.401 41.333 27.28 63.172A710.704 710.704 0 0 1-50.007-5.402 822.016 822.016 0 0 1-40.764 27.2a899.815 899.815 0 0 1 7.62 31.416 919.738 919.738 0 0 1 6.068 29.35c5.315 28.02 8.408 51.653 9.623 66.812.405 5.054.601 9.166.601 12.186a1 1 0 0 0 1 1 1 1 0 0 0 .707-.293 1 1 0 0 0 .293-.707c0-3.106-.196-7.28-.603-12.377-.407-5.098-1.025-11.121-1.863-17.926a685.714 685.714 0 0 0-3.194-22.615 860.02 860.02 0 0 0-4.6-26.451c-5.326-28.084-12.874-60.6-22.984-93.584a712.837 712.837 0 0 0-10.976-32.994 621.555 621.555 0 0 0-6.153-16.342c-4.252-10.823-8.806-21.478-13.68-31.819a436.118 436.118 0 0 0-7.55-15.257 380.132 380.132 0 0 0-8.035-14.676 328.642 328.642 0 0 0-8.531-13.986c-5.857-9.07-12.052-17.605-18.598-25.46a204.11 204.11 0 0 0-10.088-11.253c-6.906-7.139-14.173-13.523-21.814-19a130.017 130.017 0 0 0-11.745-7.518 115.842 115.842 0 0 0-12.31-6.045c-6.793-2.842-13.907-4.784-21.207-6.162h89.787c2.282 0 4.52.305 6.715.9 6.585 1.788 12.79 6.194 18.666 12.842 1.959 2.216 3.876 4.68 5.752 7.371 5.628 8.076 10.882 18.208 15.75 29.89 6.49 15.578 12.301 33.91 17.474 53.81 2.587 9.95 5.014 20.292 7.287 30.878a999.65 999.65 0 0 1 6.364 32.344c7.884 43.707 13.4 88.982 16.945 126.371 1.773 18.695 3.054 35.418 3.89 48.989.837 13.57 1.23 23.988 1.23 30.07a1 1 0 0 0 .292.707 1 1 0 0 0 .707.293 1 1 0 0 0 1-1c0-6.168-.393-16.64-1.23-30.248-1.256-20.411-3.51-47.878-6.932-78.45-1.14-10.19-2.41-20.726-3.816-31.46-2.812-21.47-6.168-43.735-10.118-65.627a1003.959 1003.959 0 0 0-6.375-32.407c-4.555-21.219-9.73-41.474-15.582-59.597a373.426 373.426 0 0 0-4.515-13.174 292.113 292.113 0 0 0-4.776-12.268 222.593 222.593 0 0 0-5.039-11.248c-3.45-7.136-7.083-13.524-10.914-19.017-1.915-2.747-3.88-5.27-5.896-7.551-8.067-9.126-17.036-14.418-26.88-14.418zm217.996 0a1 1 0 0 0-1 1v374.465a1 1 0 0 0 .293.707 1 1 0 0 0 .707.293 1 1 0 0 0 1-1V-206.5h98.264c-1.466.546-2.947 1.006-4.367 1.787-2.241 1.232-4.426 2.748-6.555 4.527-2.13 1.78-4.202 3.822-6.219 6.104-8.067 9.126-15.308 22.116-21.85 37.816a292.111 292.111 0 0 0-4.775 12.268 373.384 373.384 0 0 0-4.517 13.174c-2.926 9.062-5.681 18.657-8.276 28.638-5.19 19.964-9.73 41.474-13.68 63.366a1270.007 1270.007 0 0 0-5.486 32.972 1511.094 1511.094 0 0 0-4.63 32.655 1730.235 1730.235 0 0 0-6.856 60.851c-1.775 18.708-3.057 35.451-3.895 49.059-.837 13.607-1.23 24.08-1.23 30.248a1 1 0 0 0 .293.707 1 1 0 0 0 .707.293 1 1 0 0 0 .707-.293 1 1 0 0 0 .293-.707c0-6.082.394-16.5 1.23-30.07.837-13.57 2.116-30.294 3.889-48.989.886-9.347 1.896-19.187 3.035-29.373a1690.213 1690.213 0 0 1 3.81-31.443 1508.38 1508.38 0 0 1 4.626-32.63 1263.884 1263.884 0 0 1 5.474-32.925 999.615 999.615 0 0 1 6.365-32.344c2.274-10.586 4.7-20.929 7.288-30.879 2.586-9.95 5.333-19.507 8.244-28.525 2.91-9.017 5.985-17.494 9.23-25.283a219.574 219.574 0 0 1 4.996-11.147 162.89 162.89 0 0 1 5.25-10.002c3.585-6.26 7.338-11.68 11.256-16.113 5.877-6.648 12.08-11.054 18.666-12.842 2.195-.595 4.433-.9 6.715-.9a1 1 0 0 0 .854-.504 1 1 0 0 0 0-.992 1 1 0 0 0-.854-.504Zm218 0c-38.299 0-70.196 20.56-96.379 51.979-26.183 31.419-46.74 73.726-62.547 117.539C43.265 4.83 32.216 50.15 25.113 87.596c-7.102 37.444-10.261 66.947-10.261 79.369a1 1 0 0 0 1 1 1 1 0 0 0 1-1c0-12.08 3.14-41.637 10.226-78.998C34.165 50.605 45.196 5.373 60.955-38.305c15.759-43.678 36.254-85.8 62.201-116.935 25.947-31.136 57.258-51.26 94.842-51.26h80.246C199.827-194.084 132.47-119.18 89.143-39.12 65.423 4.71 48.843 50.05 38.183 87.51c-10.658 37.46-15.404 66.948-15.404 79.455a1 1 0 0 0 1 1 1 1 0 0 0 1-1c0-11.993 4.703-41.564 15.328-78.908C50.733 50.712 67.272 5.497 90.902-38.166 138.162-125.492 213.653-206.5 327-206.5a1 1 0 0 0 0-2z" style="-inkscape-stroke:none"/>
    </g>
    <g clip-path="url(#aQ)" color="#000" transform="matrix(.01108 0 0 .01108 26.024 4.766)">
      <path fill="none" d="M7.926 166.964C7.926 117.965 33.117-207.5 109-207.5H-.002v374.464m-7.921 0c0-48.999-25.191-374.464-101.073-374.464h-109.002c151.765 0 202.147 325.462 202.147 374.464m7.928 0c0-48.999-25.191-374.464-101.073-374.464h-109.002c151.765 0 202.147 325.462 202.147 374.464" style="-inkscape-stroke:none"/>
      <path fill="#202124" d="M-217.998-208.5a1 1 0 0 0 0 2c37.584 0 68.896 20.124 94.844 51.26 3.243 3.892 6.4 7.955 9.474 12.172a280.031 280.031 0 0 1 8.975 13.091c11.633 18.02 21.947 38.199 31.033 59.354a555.454 555.454 0 0 1 6.586 16.031 617.679 617.679 0 0 1 6.133 16.287c7.88 21.84 14.576 44.068 20.19 65.506a899.815 899.815 0 0 1 7.618 31.416 919.738 919.738 0 0 1 6.069 29.35 851.542 851.542 0 0 1 4.586 26.408c2.582 16.427 4.227 30.298 5.037 40.404.405 5.054.601 9.166.601 12.186a1 1 0 0 0 1 1 1 1 0 0 0 .707-.293 1 1 0 0 0 .293-.707c0-3.106-.196-7.28-.603-12.377-1.221-15.293-4.33-38.909-9.656-66.992a922.009 922.009 0 0 0-6.08-29.414c-4.564-20.398-10.165-42.18-16.905-64.17a712.837 712.837 0 0 0-10.976-32.994c-3.952-10.954-8.2-21.814-12.76-32.432-6.839-15.927-14.376-31.313-22.658-45.662a328.642 328.642 0 0 0-8.531-13.986 282.008 282.008 0 0 0-9.042-13.184 240.757 240.757 0 0 0-9.556-12.275c-9.819-11.783-20.44-22.038-31.902-30.254-13.822-9.908-28.935-16.643-45.262-19.725h89.787c2.282 0 4.52.305 6.715.9 6.585 1.788 12.79 6.194 18.666 12.842 1.959 2.216 3.876 4.68 5.752 7.371 5.628 8.076 10.882 18.208 15.75 29.89 3.245 7.79 6.32 16.267 9.23 25.284 2.91 9.018 5.658 18.576 8.244 28.526 2.587 9.95 5.014 20.292 7.287 30.878a999.65 999.65 0 0 1 6.364 32.344c7.884 43.707 13.4 88.982 16.945 126.371 1.773 18.695 3.054 35.418 3.89 48.989.837 13.57 1.23 23.988 1.23 30.07a1 1 0 0 0 1 1 1 1 0 0 0 .706-.293 1 1 0 0 0 .293-.707c0-12.336-1.573-41.89-5.123-79.307-2.662-28.062-6.436-60.546-11.488-93.506A1269.994 1269.994 0 0 0-29.02-38.82c-5.923-32.838-13.18-64.819-21.957-92.004-2.925-9.062-6.02-17.591-9.29-25.442a222.593 222.593 0 0 0-5.04-11.248c-5.174-10.705-10.76-19.724-16.81-26.568-2.017-2.282-4.09-4.324-6.219-6.104-4.258-3.559-8.74-6.068-13.441-7.345a27.425 27.425 0 0 0-7.22-.969zm217.996 0a1 1 0 0 0-1 1v374.465a1 1 0 0 0 1 1 1 1 0 0 0 1-1V-206.5h98.264c-6.087 2.268-11.829 6.408-17.14 12.418-8.068 9.126-15.309 22.116-21.85 37.816-13.084 31.401-23.35 73.662-31.249 117.446C13.226 48.748 6.926 142.294 6.926 166.965a1 1 0 0 0 1 1 1 1 0 0 0 1-1c0-24.328 6.295-118.016 22.064-205.43 7.885-43.707 18.146-85.876 31.127-117.031 6.49-15.578 13.667-28.398 21.502-37.262C91.455-201.622 99.872-206.5 109-206.5a1 1 0 0 0 0-2z" style="-inkscape-stroke:none"/>
    </g>
    <path fill="#38a852" d="M26.024 6.617v-4.15h-1.209c.841 0 1.12 3.607 1.12 4.15m.089 0v-4.15h-1.209c.841 0 1.12 3.607 1.12 4.15m-.087 0c0-.543-.559-4.15-2.241-4.15h-1.208c2.523 0 3.36 3.607 3.36 4.15m.089 0c0-.543-.559-4.15-2.241-4.15h-1.208c2.523 0 3.36 3.607 3.36 4.15m.528 0c0-.543.838-4.15 3.361-4.15H28.44c-1.682 0-2.24 3.607-2.24 4.15m.087 0c0-.543.838-4.15 3.361-4.15H28.44c-1.682 0-2.24 3.607-2.24 4.15m-.089 0c0-.543.28-4.15 1.12-4.15h-1.208v4.15m.088 0c0-.543.28-4.15 1.12-4.15h-1.208v4.15m-.087 0c0-.543-.28-4.15-1.12-4.15h-1.209c1.682 0 2.24 3.607 2.24 4.15m.089 0c0-.543-.28-4.15-1.12-4.15h-1.209c1.682 0 2.24 3.607 2.24 4.15"/>
    <path fill="#428eff" d="M25.848 6.617c0-.543-.559-4.15-2.241-4.15h-1.208c2.523 0 3.36 3.607 3.36 4.15m.089 0c0-.543-.559-4.15-2.241-4.15h-1.208c2.523 0 3.36 3.607 3.36 4.15m.528 0c0-.543.838-4.15 3.361-4.15H28.44c-1.682 0-2.24 3.607-2.24 4.15m.087 0c0-.543.838-4.15 3.361-4.15H28.44c-1.682 0-2.24 3.607-2.24 4.15m-.089 0c0-.543.28-4.15 1.12-4.15h-1.208v4.15m.088 0c0-.543.28-4.15 1.12-4.15h-1.208v4.15m-.087 0c0-.543-.28-4.15-1.12-4.15h-1.209c1.682 0 2.24 3.607 2.24 4.15m.089 0c0-.543-.28-4.15-1.12-4.15h-1.209c1.682 0 2.24 3.607 2.24 4.15"/>
    <path fill="#dadce0" d="M26.287 6.617c0-.543.838-4.15 3.361-4.15H28.44c-1.682 0-2.24 3.607-2.24 4.15m.087 0c0-.543.838-4.15 3.361-4.15H28.44c-1.682 0-2.24 3.607-2.24 4.15m-.089 0c0-.543.28-4.15 1.12-4.15h-1.208v4.15m.088 0c0-.543.28-4.15 1.12-4.15h-1.208v4.15m-.087 0c0-.543-.28-4.15-1.12-4.15h-1.209c1.682 0 2.24 3.607 2.24 4.15m.089 0c0-.543-.28-4.15-1.12-4.15h-1.209c1.682 0 2.24 3.607 2.24 4.15"/>
    <path fill="#ffbb01" d="M26.111 6.617c0-.543.28-4.15 1.12-4.15h-1.208v4.15m.088 0c0-.543.28-4.15 1.12-4.15h-1.208v4.15m-.087 0c0-.543-.28-4.15-1.12-4.15h-1.209c1.682 0 2.24 3.607 2.24 4.15m.089 0c0-.543-.28-4.15-1.12-4.15h-1.209c1.682 0 2.24 3.607 2.24 4.15"/>
    <path fill="#ff5145" d="M25.936 6.617c0-.543-.28-4.15-1.12-4.15h-1.209c1.682 0 2.24 3.607 2.24 4.15m.089 0c0-.543-.28-4.15-1.12-4.15h-1.209c1.682 0 2.24 3.607 2.24 4.15"/>
    <g clip-path="url(#aR)" color="#000" transform="matrix(.01108 0 0 .01108 26.024 4.766)">
      <path fill="none" d="M-7.923 166.964c0-48.999-25.191-374.464-101.073-374.464h-109.002c151.765 0 202.147 325.462 202.147 374.464" style="-inkscape-stroke:none"/>
      <path fill="#202124" d="M-217.998-208.5a1 1 0 0 0 0 2c37.584 0 68.896 20.124 94.844 51.26 25.947 31.136 46.442 73.257 62.2 116.935 15.76 43.678 26.791 88.91 33.878 126.272 7.087 37.361 10.224 66.919 10.224 78.998a1 1 0 0 0 1 1 1 1 0 0 0 1-1c0-12.422-3.157-41.925-10.26-79.37-7.102-37.444-18.153-82.765-33.96-126.577-15.808-43.813-36.364-86.12-62.547-117.54-21.659-25.99-47.297-44.34-77.164-49.978h89.787c9.128 0 17.545 4.878 25.38 13.742 7.836 8.864 15.012 21.684 21.503 37.262 12.981 31.155 23.24 73.324 31.125 117.031C-15.22 48.95-8.924 142.637-8.924 166.965a1 1 0 0 0 1 1 1 1 0 0 0 1-1c0-24.671-6.299-118.217-22.096-205.785-7.898-43.784-18.164-86.045-31.248-117.446-6.541-15.7-13.783-28.69-21.85-37.816-8.066-9.126-17.035-14.418-26.878-14.418z" style="-inkscape-stroke:none"/>
    </g>
    <g clip-path="url(#aS)" display="block" transform="matrix(.01011 0 0 .01011 26.024 5.07)">
      <path fill="#202124" d="M-14.457 137.816c-6.276.306-17.255 15.663-36.71 70.158h-51.169c40.033-56.061 62.163-70.74 74.54-70.147l13.343-.011h-.004zm-139.047 70.158c58.855-54.946 91.862-70.117 110.62-70.162l15.085.019c-12.377-.593-34.507 14.082-74.54 70.147h-51.169l.004-.004zM.003 137.827v70.416l-51.169-.269c20.015-56.061 31.083-70.74 37.27-70.147H.003zm14.458-.011c6.276.306 17.255 15.663 36.71 70.158h51.169c-40.033-56.061-62.162-70.74-74.54-70.147l-13.343-.011h.004zm139.047 70.158c-58.855-54.946-91.862-70.117-110.621-70.162l-15.084.019c12.377-.593 34.506 14.082 74.54 70.147h51.169l-.004-.004zM.002 137.827v70.416l51.169-.269c-20.015-56.061-31.083-70.74-37.27-70.147H.002z"/>
      <path fill="none" stroke="#202124" stroke-miterlimit="10" stroke-width="2" d="M-14.457 137.816c-6.276.306-17.255 15.663-36.71 70.158h-51.169c40.033-56.061 62.163-70.74 74.54-70.147l13.343-.011h-.004zm-139.047 70.158c58.855-54.946 91.862-70.117 110.62-70.162l15.085.019c-12.377-.593-34.507 14.082-74.54 70.147h-51.169l.004-.004zM.003 137.827v70.416l-51.169-.269c20.015-56.061 31.083-70.74 37.27-70.147H.003zm14.458-.011c6.276.306 17.255 15.663 36.71 70.158h51.169c-40.033-56.061-62.162-70.74-74.54-70.147l-13.343-.011h.004zm139.047 70.158c-58.855-54.946-91.862-70.117-110.621-70.162l-15.084.019c12.377-.593 34.506 14.082 74.54 70.147h51.169l-.004-.004zM.002 137.827v70.416l51.169-.269c-20.015-56.061-31.083-70.74-37.27-70.147H.002z"/>
      <path fill="#dadce0" d="M-153.504 207.974c58.855-54.946 91.862-70.117 110.62-70.162l15.085.019c-12.377-.593-34.507 14.082-74.54 70.147h-51.169l.004-.004zM.003 137.827v70.416l-51.169-.269c20.015-56.061 31.083-70.74 37.27-70.147H.003zm14.458-.011c6.276.306 17.255 15.663 36.71 70.158h51.169c-40.033-56.061-62.162-70.74-74.54-70.147l-13.343-.011h.004zm139.047 70.158c-58.855-54.946-91.862-70.117-110.621-70.162l-15.084.019c12.377-.593 34.506 14.082 74.54 70.147h51.169l-.004-.004zM.002 137.827v70.416l51.169-.269c-20.015-56.061-31.083-70.74-37.27-70.147H.002z"/>
      <path fill="none" stroke="#202124" stroke-linecap="round" stroke-linejoin="round" stroke-width="2" d="M-153.504 207.974c58.855-54.946 91.862-70.117 110.62-70.162l15.085.019c-12.377-.593-34.507 14.082-74.54 70.147h-51.169l.004-.004zM.003 137.827v70.416l-51.169-.269c20.015-56.061 31.083-70.74 37.27-70.147H.003s0 0 0 0zm14.458-.011c6.276.306 17.255 15.663 36.71 70.158h51.169c-40.033-56.061-62.162-70.74-74.54-70.147l-13.343-.011h.004zm139.047 70.158c-58.855-54.946-91.862-70.117-110.621-70.162l-15.084.019c12.377-.593 34.506 14.082 74.54 70.147h51.169l-.004-.004zM.002 137.827v70.416l51.169-.269c-20.015-56.061-31.083-70.74-37.27-70.147H.002s0 0 0 0z"/>
      <path fill="#ffbb01" d="M.003 137.827v70.416l-51.169-.269c20.015-56.061 31.083-70.74 37.27-70.147H.003zm14.458-.011c6.276.306 17.255 15.663 36.71 70.158h51.169c-40.033-56.061-62.162-70.74-74.54-70.147l-13.343-.011h.004zm139.047 70.158c-58.855-54.946-91.862-70.117-110.621-70.162l-15.084.019c12.377-.593 34.506 14.082 74.54 70.147h51.169l-.004-.004zM.002 137.827v70.416l51.169-.269c-20.015-56.061-31.083-70.74-37.27-70.147H.002z"/>
      <path fill="none" stroke="#202124" stroke-linecap="round" stroke-linejoin="round" stroke-width="2" d="M.003 137.827v70.416l-51.169-.269c20.015-56.061 31.083-70.74 37.27-70.147H.003s0 0 0 0zm14.458-.011c6.276.306 17.255 15.663 36.71 70.158h51.169c-40.033-56.061-62.162-70.74-74.54-70.147l-13.343-.011h.004zm139.047 70.158c-58.855-54.946-91.862-70.117-110.621-70.162l-15.084.019c12.377-.593 34.506 14.082 74.54 70.147h51.169l-.004-.004zM.002 137.827v70.416l51.169-.269c-20.015-56.061-31.083-70.74-37.27-70.147H.002s0 0 0 0z"/>
      <path fill="#ff5145" d="M14.461 137.816c6.276.306 17.255 15.663 36.71 70.158h51.169c-40.033-56.061-62.162-70.74-74.54-70.147l-13.343-.011h.004zm139.047 70.158c-58.855-54.946-91.862-70.117-110.621-70.162l-15.084.019c12.377-.593 34.506 14.082 74.54 70.147h51.169l-.004-.004zM.002 137.827v70.416l51.169-.269c-20.015-56.061-31.083-70.74-37.27-70.147H.002z"/>
      <path fill="none" stroke="#202124" stroke-linecap="round" stroke-linejoin="round" stroke-width="2" d="M14.461 137.816c6.276.306 17.255 15.663 36.71 70.158h51.169c-40.033-56.061-62.162-70.74-74.54-70.147l-13.343-.011h.004zm139.047 70.158c-58.855-54.946-91.862-70.117-110.621-70.162l-15.084.019c12.377-.593 34.506 14.082 74.54 70.147h51.169l-.004-.004zM.002 137.827v70.416l51.169-.269c-20.015-56.061-31.083-70.74-37.27-70.147H.002s0 0 0 0z"/>
      <path fill="#428eff" d="M153.508 207.974c-58.855-54.946-91.862-70.117-110.621-70.162l-15.084.019c12.377-.593 34.506 14.082 74.54 70.147h51.169l-.004-.004zM.002 137.827v70.416l51.169-.269c-20.015-56.061-31.083-70.74-37.27-70.147H.002z"/>
      <path fill="none" stroke="#202124" stroke-linecap="round" stroke-linejoin="round" stroke-width="2" d="M153.508 207.974c-58.855-54.946-91.862-70.117-110.621-70.162l-15.084.019c12.377-.593 34.506 14.082 74.54 70.147h51.169l-.004-.004zM.002 137.827v70.416l51.169-.269c-20.015-56.061-31.083-70.74-37.27-70.147H.002s0 0 0 0z"/>
      <path fill="#38a852" d="M.002 137.827v70.416l51.169-.269c-20.015-56.061-31.083-70.74-37.27-70.147H.002z"/>
      <path fill="none" stroke="#202124" stroke-linecap="round" stroke-linejoin="round" stroke-width="2" d="M.002 137.827v70.416l51.169-.269c-20.015-56.061-31.083-70.74-37.27-70.147H.002s0 0 0 0z"/>
    </g>
  </g>
  <path fill="#428eff" d="M21.745 15.808h1.376v3.003h-1.376z"/>
  <path fill="#2f3035" d="M23.288 18.81h-.266l.755-3.012h.266z"/>
  <circle cx="25.089" cy="17.415" r="1.412" fill="url(#aT)" fill-rule="evenodd"/>
  <path fill="#1c65d8" fill-rule="evenodd" d="m21.745 15.801-.37.344v2.664h.378z"/>
</svg>
