<svg xmlns="http://www.w3.org/2000/svg" width="16" height="16" shape-rendering="crispEdges"><path fill="#29B7E3" d="M2 0h1v1H2zM3 0h1v1H3zM4 0h1v1H4zM5 0h1v1H5zM6 0h1v1H6zM7 0h1v1H7zM8 0h1v1H8zM9 0h1v1H9zM10 0h1v1h-1zM11 0h1v1h-1zM12 0h1v1h-1zM13 0h1v1h-1zM1 1h1v1H1z" style="fill:#428eff;fill-opacity:1"/><path fill="#00AADE" d="M2 1h1v1H2zM3 1h1v1H3zM4 1h1v1H4zM5 1h1v1H5zM6 1h1v1H6zM7 1h1v1H7zM8 1h1v1H8zM9 1h1v1H9zM10 1h1v1h-1zM11 1h1v1h-1zM12 1h1v1h-1zM13 1h1v1h-1zM14 1h1v1h-1z" style="fill:#428eff;fill-opacity:1"/><path fill="#29B7E3" d="M0 2h1v1H0z" style="fill:#428eff;fill-opacity:1"/><path fill="#00AADE" d="M1 2h1v1H1zM2 2h1v1H2zM3 2h1v1H3zM4 2h1v1H4zM5 2h1v1H5zM6 2h1v1H6zM7 2h1v1H7zM8 2h1v1H8zM9 2h1v1H9zM10 2h1v1h-1zM11 2h1v1h-1zM12 2h1v1h-1zM13 2h1v1h-1zM14 2h1v1h-1z" style="fill:#428eff;fill-opacity:1"/><path fill="#008FBB" d="M15 2h1v1h-1z" style="fill:#428eff;fill-opacity:1"/><path fill="#29B7E3" d="M0 3h1v1H0z" style="fill:#428eff;fill-opacity:1"/><path fill="#00AADE" d="M1 3h1v1H1zM2 3h1v1H2zM3 3h1v1H3zM4 3h1v1H4zM5 3h1v1H5zM6 3h1v1H6zM7 3h1v1H7zM8 3h1v1H8z" style="fill:#428eff;fill-opacity:1"/><path fill="#F8F9FA" d="M9 3h1v1H9zM10 3h1v1h-1z"/><path fill="#00AADE" d="M11 3h1v1h-1z" style="fill:#428eff;fill-opacity:1"/><path fill="#F8F9FA" d="M12 3h1v1h-1z"/><path fill="#00AADE" d="M13 3h1v1h-1zM14 3h1v1h-1z" style="fill:#428eff;fill-opacity:1"/><path fill="#008FBB" d="M15 3h1v1h-1z" style="fill:#428eff;fill-opacity:1"/><path fill="#29B7E3" d="M0 4h1v1H0z" style="fill:#428eff;fill-opacity:1"/><path fill="#00AADE" d="M1 4h1v1H1zM2 4h1v1H2zM3 4h1v1H3zM4 4h1v1H4zM5 4h1v1H5zM6 4h1v1H6zM7 4h1v1H7z" style="fill:#428eff;fill-opacity:1"/><path fill="#F8F9FA" d="M8 4h1v1H8zM9 4h1v1H9zM10 4h1v1h-1zM11 4h1v1h-1zM12 4h1v1h-1zM13 4h1v1h-1z"/><path fill="#00AADE" d="M14 4h1v1h-1z" style="fill:#428eff;fill-opacity:1"/><path fill="#008FBB" d="M15 4h1v1h-1z" style="fill:#428eff;fill-opacity:1"/><path fill="#29B7E3" d="M0 5h1v1H0z" style="fill:#428eff;fill-opacity:1"/><path fill="#00AADE" d="M1 5h1v1H1z" style="fill:#428eff;fill-opacity:1"/><path fill="#F8F9FA" d="M2 5h1v1H2zM3 5h1v1H3zM4 5h1v1H4z"/><path fill="#00AADE" d="M5 5h1v1H5zM6 5h1v1H6zM7 5h1v1H7z" style="fill:#428eff;fill-opacity:1"/><path fill="#F8F9FA" d="M8 5h1v1H8zM9 5h1v1H9zM10 5h1v1h-1zM11 5h1v1h-1zM12 5h1v1h-1z"/><path fill="#00AADE" d="M13 5h1v1h-1zM14 5h1v1h-1z" style="fill:#428eff;fill-opacity:1"/><path fill="#008FBB" d="M15 5h1v1h-1z" style="fill:#428eff;fill-opacity:1"/><path fill="#29B7E3" d="M0 6h1v1H0z" style="fill:#428eff;fill-opacity:1"/><path fill="#00AADE" d="M1 6h1v1H1zM2 6h1v1H2z" style="fill:#428eff;fill-opacity:1"/><path fill="#F8F9FA" d="M3 6h1v1H3zM4 6h1v1H4zM5 6h1v1H5zM6 6h1v1H6zM7 6h1v1H7zM8 6h1v1H8zM9 6h1v1H9zM10 6h1v1h-1zM11 6h1v1h-1z"/><path fill="#00AADE" d="M12 6h1v1h-1zM13 6h1v1h-1zM14 6h1v1h-1z" style="fill:#428eff;fill-opacity:1"/><path fill="#008FBB" d="M15 6h1v1h-1z" style="fill:#428eff;fill-opacity:1"/><path fill="#29B7E3" d="M0 7h1v1H0z" style="fill:#428eff;fill-opacity:1"/><path fill="#00AADE" d="M1 7h1v1H1zM2 7h1v1H2zM3 7h1v1H3z" style="fill:#428eff;fill-opacity:1"/><path fill="#F8F9FA" d="M4 7h1v1H4zM5 7h1v1H5zM6 7h1v1H6zM7 7h1v1H7zM8 7h1v1H8zM9 7h1v1H9zM10 7h1v1h-1zM11 7h1v1h-1z"/><path fill="#00AADE" d="M12 7h1v1h-1zM13 7h1v1h-1zM14 7h1v1h-1z" style="fill:#428eff;fill-opacity:1"/><path fill="#008FBB" d="M15 7h1v1h-1z" style="fill:#428eff;fill-opacity:1"/><path fill="#29B7E3" d="M0 8h1v1H0z" style="fill:#428eff;fill-opacity:1"/><path fill="#00AADE" d="M1 8h1v1H1zM2 8h1v1H2zM3 8h1v1H3zM4 8h1v1H4z" style="fill:#428eff;fill-opacity:1"/><path fill="#F8F9FA" d="M5 8h1v1H5zM6 8h1v1H6zM7 8h1v1H7zM8 8h1v1H8zM9 8h1v1H9zM10 8h1v1h-1zM11 8h1v1h-1z"/><path fill="#00AADE" d="M12 8h1v1h-1zM13 8h1v1h-1zM14 8h1v1h-1z" style="fill:#428eff;fill-opacity:1"/><path fill="#008FBB" d="M15 8h1v1h-1z" style="fill:#428eff;fill-opacity:1"/><path fill="#29B7E3" d="M0 9h1v1H0z" style="fill:#428eff;fill-opacity:1"/><path fill="#00AADE" d="M1 9h1v1H1zM2 9h1v1H2zM3 9h1v1H3zM4 9h1v1H4z" style="fill:#428eff;fill-opacity:1"/><path fill="#F8F9FA" d="M5 9h1v1H5zM6 9h1v1H6zM7 9h1v1H7zM8 9h1v1H8zM9 9h1v1H9zM10 9h1v1h-1z"/><path fill="#00AADE" d="M11 9h1v1h-1zM12 9h1v1h-1zM13 9h1v1h-1zM14 9h1v1h-1z" style="fill:#428eff;fill-opacity:1"/><path fill="#008FBB" d="M15 9h1v1h-1z" style="fill:#428eff;fill-opacity:1"/><path fill="#29B7E3" d="M0 10h1v1H0z" style="fill:#428eff;fill-opacity:1"/><path fill="#00AADE" d="M1 10h1v1H1zM2 10h1v1H2zM3 10h1v1H3zM4 10h1v1H4zM5 10h1v1H5z" style="fill:#428eff;fill-opacity:1"/><path fill="#F8F9FA" d="M6 10h1v1H6zM7 10h1v1H7zM8 10h1v1H8zM9 10h1v1H9z"/><path fill="#00AADE" d="M10 10h1v1h-1zM11 10h1v1h-1zM12 10h1v1h-1zM13 10h1v1h-1zM14 10h1v1h-1z" style="fill:#428eff;fill-opacity:1"/><path fill="#008FBB" d="M15 10h1v1h-1z" style="fill:#428eff;fill-opacity:1"/><path fill="#29B7E3" d="M0 11h1v1H0z" style="fill:#428eff;fill-opacity:1"/><path fill="#00AADE" d="M1 11h1v1H1zM2 11h1v1H2z" style="fill:#428eff;fill-opacity:1"/><path fill="#F8F9FA" d="M3 11h1v1H3zM4 11h1v1H4zM5 11h1v1H5zM6 11h1v1H6zM7 11h1v1H7zM8 11h1v1H8z"/><path fill="#00AADE" d="M9 11h1v1H9zM10 11h1v1h-1zM11 11h1v1h-1zM12 11h1v1h-1zM13 11h1v1h-1zM14 11h1v1h-1z" style="fill:#428eff;fill-opacity:1"/><path fill="#008FBB" d="M15 11h1v1h-1z" style="fill:#428eff;fill-opacity:1"/><path fill="#29B7E3" d="M0 12h1v1H0z" style="fill:#428eff;fill-opacity:1"/><path fill="#00AADE" d="M1 12h1v1H1zM2 12h1v1H2zM3 12h1v1H3z" style="fill:#428eff;fill-opacity:1"/><path fill="#F8F9FA" d="M4 12h1v1H4zM5 12h1v1H5zM6 12h1v1H6z"/><path fill="#00AADE" d="M7 12h1v1H7zM8 12h1v1H8zM9 12h1v1H9zM10 12h1v1h-1zM11 12h1v1h-1zM12 12h1v1h-1zM13 12h1v1h-1zM14 12h1v1h-1z" style="fill:#428eff;fill-opacity:1"/><path fill="#008FBB" d="M15 12h1v1h-1z" style="fill:#428eff;fill-opacity:1"/><path fill="#29B7E3" d="M0 13h1v1H0z" style="fill:#428eff;fill-opacity:1"/><path fill="#00AADE" d="M1 13h1v1H1zM2 13h1v1H2zM3 13h1v1H3zM4 13h1v1H4zM5 13h1v1H5zM6 13h1v1H6zM7 13h1v1H7zM8 13h1v1H8zM9 13h1v1H9zM10 13h1v1h-1zM11 13h1v1h-1zM12 13h1v1h-1zM13 13h1v1h-1zM14 13h1v1h-1z" style="fill:#428eff;fill-opacity:1"/><path fill="#008FBB" d="M15 13h1v1h-1z" style="fill:#428eff;fill-opacity:1"/><path fill="#00AADE" d="M1 14h1v1H1zM2 14h1v1H2zM3 14h1v1H3zM4 14h1v1H4zM5 14h1v1H5zM6 14h1v1H6zM7 14h1v1H7zM8 14h1v1H8zM9 14h1v1H9zM10 14h1v1h-1zM11 14h1v1h-1zM12 14h1v1h-1zM13 14h1v1h-1z" style="fill:#428eff;fill-opacity:1"/><path fill="#008FBB" d="M14 14h1v1h-1zM2 15h1v1H2zM3 15h1v1H3zM4 15h1v1H4zM5 15h1v1H5zM6 15h1v1H6zM7 15h1v1H7zM8 15h1v1H8zM9 15h1v1H9zM10 15h1v1h-1zM11 15h1v1h-1zM12 15h1v1h-1zM13 15h1v1h-1z" style="fill:#428eff;fill-opacity:1"/></svg>