<svg xmlns="http://www.w3.org/2000/svg" xmlns:xlink="http://www.w3.org/1999/xlink" xml:space="preserve" width="260mm" height="150mm" viewBox="0 0 260 150"><defs><linearGradient id="c"><stop offset="0" style="stop-color:#949494;stop-opacity:1"/><stop offset="1" style="stop-color:#3a3a3a;stop-opacity:.14393939"/></linearGradient><linearGradient id="a"><stop offset="0" style="stop-color:#0058db;stop-opacity:1"/><stop offset="1" style="stop-color:#0062f5;stop-opacity:1"/></linearGradient><linearGradient xlink:href="#a" id="f" x1="46.435" x2="62.012" y1="53.934" y2="53.934" gradientTransform="translate(-8.866 82.985) scale(.63392)" gradientUnits="userSpaceOnUse"/><linearGradient xlink:href="#a" id="g" x1="46.435" x2="62.012" y1="53.934" y2="53.934" gradientTransform="translate(1.113 82.99) scale(.63392)" gradientUnits="userSpaceOnUse"/><linearGradient xlink:href="#a" id="h" x1="46.435" x2="62.012" y1="53.934" y2="53.934" gradientTransform="translate(11.14 82.98) scale(.63392)" gradientUnits="userSpaceOnUse"/><linearGradient xlink:href="#a" id="i" x1="46.435" x2="62.012" y1="53.934" y2="53.934" gradientTransform="translate(-171.574 1.369) scale(.63392)" gradientUnits="userSpaceOnUse"/><linearGradient xlink:href="#a" id="k" x1="46.435" x2="62.012" y1="53.934" y2="53.934" gradientTransform="translate(-171.608 -8.672) scale(.63392)" gradientUnits="userSpaceOnUse"/><linearGradient xlink:href="#a" id="n" x1="46.435" x2="62.012" y1="53.934" y2="53.934" gradientTransform="translate(-161.58 -8.683) scale(.63392)" gradientUnits="userSpaceOnUse"/><linearGradient xlink:href="#a" id="j" x1="46.435" x2="62.012" y1="53.934" y2="53.934" gradientTransform="translate(-171.576 11.356) scale(.63392)" gradientUnits="userSpaceOnUse"/><linearGradient xlink:href="#a" id="o" x1="46.435" x2="62.012" y1="53.934" y2="53.934" gradientTransform="translate(11.174 113.011) scale(.63392)" gradientUnits="userSpaceOnUse"/><linearGradient xlink:href="#a" id="p" x1="46.435" x2="62.012" y1="53.934" y2="53.934" gradientTransform="translate(-191.606 11.358) scale(.63392)" gradientUnits="userSpaceOnUse"/><linearGradient xlink:href="#a" id="l" x1="46.435" x2="62.012" y1="53.934" y2="53.934" gradientTransform="translate(-191.522 1.339) scale(.63392)" gradientUnits="userSpaceOnUse"/><linearGradient xlink:href="#a" id="m" x1="46.435" x2="62.012" y1="53.934" y2="53.934" gradientTransform="translate(-191.556 -8.702) scale(.63392)" gradientUnits="userSpaceOnUse"/><linearGradient xlink:href="#a" id="X" x1="46.435" x2="62.012" y1="53.934" y2="53.934" gradientTransform="translate(131.485 83.938) scale(.63392)" gradientUnits="userSpaceOnUse"/><linearGradient xlink:href="#a" id="Y" x1="46.435" x2="62.012" y1="53.934" y2="53.934" gradientTransform="translate(141.464 83.943) scale(.63392)" gradientUnits="userSpaceOnUse"/><linearGradient xlink:href="#a" id="Z" x1="46.435" x2="62.012" y1="53.934" y2="53.934" gradientTransform="translate(-172.526 141.72) scale(.63392)" gradientUnits="userSpaceOnUse"/><linearGradient xlink:href="#a" id="aa" x1="46.435" x2="62.012" y1="53.934" y2="53.934" gradientTransform="translate(-172.561 131.68) scale(.63392)" gradientUnits="userSpaceOnUse"/><linearGradient xlink:href="#a" id="ab" x1="46.435" x2="62.012" y1="53.934" y2="53.934" gradientTransform="translate(-192.474 141.69) scale(.63392)" gradientUnits="userSpaceOnUse"/><linearGradient xlink:href="#a" id="af" x1="46.435" x2="62.012" y1="53.934" y2="53.934" gradientTransform="translate(-192.51 131.65) scale(.63392)" gradientUnits="userSpaceOnUse"/><linearGradient xlink:href="#a" id="ag" x1="46.435" x2="62.012" y1="53.934" y2="53.934" gradientTransform="translate(-162.533 131.668) scale(.63392)" gradientUnits="userSpaceOnUse"/><linearGradient xlink:href="#a" id="ah" x1="46.435" x2="62.012" y1="53.934" y2="53.934" gradientTransform="translate(131.53 113.964) scale(.63392)" gradientUnits="userSpaceOnUse"/><linearGradient xlink:href="#a" id="q" x1="46.435" x2="62.012" y1="53.934" y2="53.934" gradientTransform="translate(25.423 83.193) scale(.63392)" gradientUnits="userSpaceOnUse"/><linearGradient xlink:href="#a" id="r" x1="46.435" x2="62.012" y1="53.934" y2="53.934" gradientTransform="translate(35.402 83.199) scale(.63392)" gradientUnits="userSpaceOnUse"/><linearGradient xlink:href="#a" id="s" x1="46.435" x2="62.012" y1="53.934" y2="53.934" gradientTransform="translate(45.43 83.188) scale(.63392)" gradientUnits="userSpaceOnUse"/><linearGradient xlink:href="#a" id="t" x1="46.435" x2="62.012" y1="53.934" y2="53.934" gradientTransform="translate(-161.762 45.665) scale(.63392)" gradientUnits="userSpaceOnUse"/><linearGradient xlink:href="#a" id="u" x1="46.435" x2="62.012" y1="53.934" y2="53.934" gradientTransform="translate(-171.785 45.645) scale(.63392)" gradientUnits="userSpaceOnUse"/><linearGradient xlink:href="#a" id="v" x1="46.435" x2="62.012" y1="53.934" y2="53.934" gradientTransform="translate(-171.817 25.617) scale(.63392)" gradientUnits="userSpaceOnUse"/><linearGradient xlink:href="#a" id="w" x1="46.435" x2="62.012" y1="53.934" y2="53.934" gradientTransform="translate(-181.814 25.647) scale(.63392)" gradientUnits="userSpaceOnUse"/><linearGradient xlink:href="#a" id="x" x1="46.435" x2="62.012" y1="53.934" y2="53.934" gradientTransform="translate(-191.765 25.588) scale(.63392)" gradientUnits="userSpaceOnUse"/><linearGradient xlink:href="#a" id="y" x1="46.435" x2="62.012" y1="53.934" y2="53.934" gradientTransform="translate(-161.789 25.606) scale(.63392)" gradientUnits="userSpaceOnUse"/><linearGradient xlink:href="#a" id="z" x1="46.435" x2="62.012" y1="53.934" y2="53.934" gradientTransform="translate(45.463 113.22) scale(.63392)" gradientUnits="userSpaceOnUse"/><linearGradient xlink:href="#a" id="A" x1="46.435" x2="62.012" y1="53.934" y2="53.934" gradientTransform="translate(-191.815 45.647) scale(.63392)" gradientUnits="userSpaceOnUse"/><linearGradient xlink:href="#a" id="B" x1="46.435" x2="62.012" y1="53.934" y2="53.934" gradientTransform="translate(60.426 83.99) scale(.63392)" gradientUnits="userSpaceOnUse"/><linearGradient xlink:href="#a" id="C" x1="46.435" x2="62.012" y1="53.934" y2="53.934" gradientTransform="translate(70.405 83.996) scale(.63392)" gradientUnits="userSpaceOnUse"/><linearGradient xlink:href="#a" id="D" x1="46.435" x2="62.012" y1="53.934" y2="53.934" gradientTransform="translate(80.433 83.985) scale(.63392)" gradientUnits="userSpaceOnUse"/><linearGradient xlink:href="#a" id="E" x1="46.435" x2="62.012" y1="53.934" y2="53.934" gradientTransform="translate(-162.56 80.668) scale(.63392)" gradientUnits="userSpaceOnUse"/><linearGradient xlink:href="#a" id="F" x1="46.435" x2="62.012" y1="53.934" y2="53.934" gradientTransform="translate(-172.582 80.648) scale(.63392)" gradientUnits="userSpaceOnUse"/><linearGradient xlink:href="#a" id="G" x1="46.435" x2="62.012" y1="53.934" y2="53.934" gradientTransform="translate(-172.614 60.62) scale(.63392)" gradientUnits="userSpaceOnUse"/><linearGradient xlink:href="#a" id="I" x1="46.435" x2="62.012" y1="53.934" y2="53.934" gradientTransform="translate(-182.61 60.65) scale(.63392)" gradientUnits="userSpaceOnUse"/><linearGradient xlink:href="#a" id="J" x1="46.435" x2="62.012" y1="53.934" y2="53.934" gradientTransform="translate(-192.562 60.59) scale(.63392)" gradientUnits="userSpaceOnUse"/><linearGradient xlink:href="#a" id="K" x1="46.435" x2="62.012" y1="53.934" y2="53.934" gradientTransform="translate(-162.586 60.61) scale(.63392)" gradientUnits="userSpaceOnUse"/><linearGradient xlink:href="#a" id="L" x1="46.435" x2="62.012" y1="53.934" y2="53.934" gradientTransform="translate(80.466 114.017) scale(.63392)" gradientUnits="userSpaceOnUse"/><linearGradient xlink:href="#a" id="M" x1="46.435" x2="62.012" y1="53.934" y2="53.934" gradientTransform="translate(-192.613 80.65) scale(.63392)" gradientUnits="userSpaceOnUse"/><linearGradient xlink:href="#a" id="H" x1="46.435" x2="62.012" y1="53.934" y2="53.934" gradientTransform="translate(-172.58 70.63) scale(.63392)" gradientUnits="userSpaceOnUse"/><linearGradient xlink:href="#a" id="N" x1="46.435" x2="62.012" y1="53.934" y2="53.934" gradientTransform="translate(95.426 83.731) scale(.63392)" gradientUnits="userSpaceOnUse"/><linearGradient xlink:href="#a" id="O" x1="46.435" x2="62.012" y1="53.934" y2="53.934" gradientTransform="translate(115.433 83.726) scale(.63392)" gradientUnits="userSpaceOnUse"/><linearGradient xlink:href="#a" id="P" x1="46.435" x2="62.012" y1="53.934" y2="53.934" gradientTransform="translate(-162.3 115.668) scale(.63392)" gradientUnits="userSpaceOnUse"/><linearGradient xlink:href="#a" id="Q" x1="46.435" x2="62.012" y1="53.934" y2="53.934" gradientTransform="translate(-172.355 95.62) scale(.63392)" gradientUnits="userSpaceOnUse"/><linearGradient xlink:href="#a" id="R" x1="46.435" x2="62.012" y1="53.934" y2="53.934" gradientTransform="translate(-172.321 105.63) scale(.63392)" gradientUnits="userSpaceOnUse"/><linearGradient xlink:href="#a" id="S" x1="46.435" x2="62.012" y1="53.934" y2="53.934" gradientTransform="translate(-182.352 95.65) scale(.63392)" gradientUnits="userSpaceOnUse"/><linearGradient xlink:href="#a" id="T" x1="46.435" x2="62.012" y1="53.934" y2="53.934" gradientTransform="translate(-192.303 95.59) scale(.63392)" gradientUnits="userSpaceOnUse"/><linearGradient xlink:href="#a" id="U" x1="46.435" x2="62.012" y1="53.934" y2="53.934" gradientTransform="translate(-162.327 95.61) scale(.63392)" gradientUnits="userSpaceOnUse"/><linearGradient xlink:href="#a" id="V" x1="46.435" x2="62.012" y1="53.934" y2="53.934" gradientTransform="translate(115.467 113.758) scale(.63392)" gradientUnits="userSpaceOnUse"/><linearGradient xlink:href="#a" id="W" x1="46.435" x2="62.012" y1="53.934" y2="53.934" gradientTransform="translate(-192.353 115.65) scale(.63392)" gradientUnits="userSpaceOnUse"/><linearGradient xlink:href="#a" id="ac" x1="46.435" x2="62.012" y1="53.934" y2="53.934" gradientTransform="translate(151.558 83.904) scale(.63392)" gradientUnits="userSpaceOnUse"/><linearGradient xlink:href="#a" id="ad" x1="46.435" x2="62.012" y1="53.934" y2="53.934" gradientTransform="translate(-172.487 151.814) scale(.63392)" gradientUnits="userSpaceOnUse"/><linearGradient xlink:href="#a" id="ae" x1="46.435" x2="62.012" y1="53.934" y2="53.934" gradientTransform="translate(-192.435 151.784) scale(.63392)" gradientUnits="userSpaceOnUse"/><linearGradient id="b"><stop offset="0" stop-color="#428eff"/><stop offset="1" stop-color="#0047bb"/></linearGradient><linearGradient xlink:href="#c" id="d" x1="-13.25" x2="247.569" y1="166.079" y2="166.079" gradientUnits="userSpaceOnUse"/><filter id="e" width="1.002" height="1.027" x="0" y="0" style="color-interpolation-filters:sRGB"><feFlood flood-color="#000" flood-opacity=".824" result="flood"/><feComposite in="flood" in2="SourceGraphic" operator="in" result="composite1"/><feGaussianBlur in="composite1" result="blur"/><feOffset dx=".8" dy=".8" result="offset"/><feComposite in="SourceGraphic" in2="offset" result="composite2"/></filter><filter id="aj" width="1.006" height="1.033" x="-.006" y="-.033" style="color-interpolation-filters:sRGB"><feFlood flood-color="#000" flood-opacity=".353" result="flood"/><feComposite in="flood" in2="SourceGraphic" operator="in" result="composite1"/><feGaussianBlur in="composite1" result="blur"/><feOffset dx="-.3" dy="-.3" result="offset"/><feComposite in="SourceGraphic" in2="offset" result="composite2"/></filter><filter id="ak" width="1.099" height="1.099" x="0" y="0" style="color-interpolation-filters:sRGB"><feFlood flood-color="#000" flood-opacity=".824" result="flood"/><feComposite in="flood" in2="SourceGraphic" operator="in" result="composite1"/><feGaussianBlur in="composite1" result="blur"/><feOffset dx=".3" dy=".3" result="offset"/><feComposite in="SourceGraphic" in2="offset" result="composite2"/></filter><clipPath id="ai"><path fill="#fff" d="M20 19h128.329v28H20z"/></clipPath></defs><g transform="translate(12.84 -91.079)"><path d="M-12.84 91.079h260v150h-260z" style="fill:#dfdfdf;fill-opacity:1;stroke:url(#d);stroke-width:.819;stroke-dasharray:none;stroke-opacity:1"/><rect width="86.484" height="20.237" x="84.501" y="200.792" rx="1.772" ry="1.76" style="fill:#ab0b00;fill-opacity:1;stroke-width:.732128"/><g aria-label="TENSORFLOW" style="font-size:33.7126px;font-family:Bahnschrift;-inkscape-font-specification:Bahnschrift;fill:#ff2e37;stroke-width:2.52844;filter:url(#e)" transform="matrix(.37143 0 0 .37143 141.902 138.47)"><path d="M-145.395-40.84v-25.285h-8.428v-4.214h25.285v4.214h-8.428v25.284zM-124.324-40.84v-29.5h29.498v4.215h-21.07v8.428h16.856v4.214h-16.856v8.428h21.07v4.214zM-90.612-40.84v-29.5h8.429v4.215h4.214v4.214h4.214v4.214h4.214v-12.642h8.428v29.498h-8.428v-8.428h-4.214v-4.214h-4.214v-4.214h-4.214v16.856zM-52.685-40.84v-4.215h-4.214v-4.214h8.428v4.214h12.642v-8.428h-16.856v-4.214h-4.214v-8.428h4.214v-4.214h21.07v4.214h4.214v4.214h-8.428v-4.214H-48.47v8.428h16.856v4.214h4.214v8.428h-4.214v4.214zM-18.972-40.84v-4.215h-4.214v-21.07h4.214v-4.214h21.07v4.214h4.214v21.07H2.098v4.214zm4.214-4.215h12.642v-21.07h-12.642ZM10.526-40.84v-29.5h25.285v4.215h4.214v12.642h-8.428v4.214h4.214v4.214h4.214v4.214H27.382v-4.214h-4.214v-4.214h-4.214v8.428zm8.428-12.643h8.428v-4.214h4.215v-8.428H18.954ZM44.239-40.84v-29.5h29.498v4.215h-21.07v8.428h16.856v4.214H52.667v12.642zM82.165-40.84v-29.5h8.429v25.285h16.856v4.214zM115.878-40.84v-4.215h-4.214v-21.07h4.214v-4.214h21.07v4.214h4.214v21.07h-4.214v4.214zm4.214-4.215h12.642v-21.07h-12.642zM149.59-40.84v-4.215h-4.213v-25.284h8.428v16.856h4.214v-16.856h4.214v16.856h4.214v-16.856h8.428v25.284h-4.214v4.214h-4.214v-4.214h-4.214v-4.214h-4.214v4.214h-4.214v4.214z" style="font-family:&quot;Press Start 2P&quot;;-inkscape-font-specification:&quot;Press Start 2P&quot;;fill:#fb0"/></g><g transform="matrix(.88022 0 0 .88022 66.804 34.576)"><path d="M20.832 112.5h9.35v9.35h-9.35z" style="fill:#428eff;fill-opacity:1;stroke:url(#f);stroke-width:.525521;stroke-dasharray:none;stroke-opacity:1"/><path d="M30.811 112.506h9.35v9.35h-9.35z" style="fill:#428eff;fill-opacity:1;stroke:url(#g);stroke-width:.525521;stroke-dasharray:none;stroke-opacity:1"/><path d="M40.84 112.494h9.35v9.35h-9.35z" style="fill:#428eff;fill-opacity:1;stroke:url(#h);stroke-width:.525521;stroke-dasharray:none;stroke-opacity:1"/><circle cx="47.716" cy="115.572" r=".892" style="fill:#005fec;fill-opacity:1;stroke:none;stroke-width:.409037;stroke-dasharray:none;stroke-opacity:1"/><circle cx="47.679" cy="118.987" r=".892" style="fill:#005fec;fill-opacity:1;stroke:none;stroke-width:.409037;stroke-dasharray:none;stroke-opacity:1"/><path d="M-141.875 30.884h9.35v9.35h-9.35z" style="fill:#428eff;fill-opacity:1;stroke:url(#i);stroke-width:.525521;stroke-dasharray:none;stroke-opacity:1" transform="rotate(-90)"/><path d="M-141.877 40.871h9.35v9.35h-9.35z" style="fill:#428eff;fill-opacity:1;stroke:url(#j);stroke-width:.525521;stroke-dasharray:none;stroke-opacity:1" transform="rotate(-90)"/><path d="M-141.91 20.843h9.35v9.35h-9.35z" style="fill:#428eff;fill-opacity:1;stroke:url(#k);stroke-width:.525521;stroke-dasharray:none;stroke-opacity:1" transform="rotate(-90)"/><path d="M-161.823 30.854h9.35v9.35h-9.35z" style="fill:#428eff;fill-opacity:1;stroke:url(#l);stroke-width:.525521;stroke-dasharray:none;stroke-opacity:1" transform="rotate(-90)"/><path d="M-161.858 20.814h9.35v9.35h-9.35z" style="fill:#428eff;fill-opacity:1;stroke:url(#m);stroke-width:.525521;stroke-dasharray:none;stroke-opacity:1" transform="rotate(-90)"/><path d="M-131.881 20.832h9.35v9.35h-9.35z" style="fill:#428eff;fill-opacity:1;stroke:url(#n);stroke-width:.525521;stroke-dasharray:none;stroke-opacity:1" transform="rotate(-90)"/><path d="M40.873 142.526h9.35v9.35h-9.35z" style="fill:#428eff;fill-opacity:1;stroke:url(#o);stroke-width:.525521;stroke-dasharray:none;stroke-opacity:1"/><path d="M-161.908 40.873h9.35v9.35h-9.35z" style="fill:#428eff;fill-opacity:1;stroke:url(#p);stroke-width:.525521;stroke-dasharray:none;stroke-opacity:1" transform="rotate(-90)"/><path d="M55.121 112.709h9.35v9.35h-9.35z" style="fill:#428eff;fill-opacity:1;stroke:url(#q);stroke-width:.525521;stroke-dasharray:none;stroke-opacity:1"/><path d="M65.101 112.714h9.35v9.35h-9.35z" style="fill:#428eff;fill-opacity:1;stroke:url(#r);stroke-width:.525521;stroke-dasharray:none;stroke-opacity:1"/><path d="M75.129 112.703h9.35v9.35h-9.35z" style="fill:#428eff;fill-opacity:1;stroke:url(#s);stroke-width:.525521;stroke-dasharray:none;stroke-opacity:1"/><path d="M-132.064 75.18h9.35v9.35h-9.35z" style="fill:#428eff;fill-opacity:1;stroke:url(#t);stroke-width:.525521;stroke-dasharray:none;stroke-opacity:1" transform="rotate(-90)"/><path d="M-142.086 75.16h9.35v9.35h-9.35z" style="fill:#428eff;fill-opacity:1;stroke:url(#u);stroke-width:.525521;stroke-dasharray:none;stroke-opacity:1" transform="rotate(-90)"/><path d="M-142.118 55.133h9.35v9.35h-9.35z" style="fill:#428eff;fill-opacity:1;stroke:url(#v);stroke-width:.525521;stroke-dasharray:none;stroke-opacity:1" transform="rotate(-90)"/><path d="M-152.115 55.162h9.35v9.35h-9.35z" style="fill:#428eff;fill-opacity:1;stroke:url(#w);stroke-width:.525521;stroke-dasharray:none;stroke-opacity:1" transform="rotate(-90)"/><path d="M-162.066 55.103h9.35v9.35h-9.35z" style="fill:#428eff;fill-opacity:1;stroke:url(#x);stroke-width:.525521;stroke-dasharray:none;stroke-opacity:1" transform="rotate(-90)"/><path d="M-132.09 55.122h9.35v9.35h-9.35z" style="fill:#428eff;fill-opacity:1;stroke:url(#y);stroke-width:.525521;stroke-dasharray:none;stroke-opacity:1" transform="rotate(-90)"/><path d="M75.162 142.735h9.35v9.35h-9.35z" style="fill:#428eff;fill-opacity:1;stroke:url(#z);stroke-width:.525521;stroke-dasharray:none;stroke-opacity:1"/><path d="M-162.117 75.162h9.35v9.35h-9.35z" style="fill:#428eff;fill-opacity:1;stroke:url(#A);stroke-width:.525521;stroke-dasharray:none;stroke-opacity:1" transform="rotate(-90)"/><path d="M90.124 113.506h9.35v9.35h-9.35z" style="fill:#428eff;fill-opacity:1;stroke:url(#B);stroke-width:.525521;stroke-dasharray:none;stroke-opacity:1"/><path d="M100.103 113.512h9.35v9.35h-9.35z" style="fill:#428eff;fill-opacity:1;stroke:url(#C);stroke-width:.525521;stroke-dasharray:none;stroke-opacity:1"/><path d="M110.132 113.5h9.35v9.35h-9.35z" style="fill:#428eff;fill-opacity:1;stroke:url(#D);stroke-width:.525521;stroke-dasharray:none;stroke-opacity:1"/><path d="M-132.861 110.183h9.35v9.35h-9.35z" style="fill:#428eff;fill-opacity:1;stroke:url(#E);stroke-width:.525521;stroke-dasharray:none;stroke-opacity:1" transform="rotate(-90)"/><path d="M-142.883 110.163h9.35v9.35h-9.35z" style="fill:#428eff;fill-opacity:1;stroke:url(#F);stroke-width:.525521;stroke-dasharray:none;stroke-opacity:1" transform="rotate(-90)"/><path d="M-142.916 90.136h9.35v9.35h-9.35z" style="fill:#428eff;fill-opacity:1;stroke:url(#G);stroke-width:.525521;stroke-dasharray:none;stroke-opacity:1" transform="rotate(-90)"/><path d="M-142.882 100.144h9.35v9.35h-9.35z" style="fill:#428eff;fill-opacity:1;stroke:url(#H);stroke-width:.525521;stroke-dasharray:none;stroke-opacity:1" transform="rotate(-90)"/><path d="M-152.912 90.165h9.35v9.35h-9.35z" style="fill:#428eff;fill-opacity:1;stroke:url(#I);stroke-width:.525521;stroke-dasharray:none;stroke-opacity:1" transform="rotate(-90)"/><path d="M-162.864 90.106h9.35v9.35h-9.35z" style="fill:#428eff;fill-opacity:1;stroke:url(#J);stroke-width:.525521;stroke-dasharray:none;stroke-opacity:1" transform="rotate(-90)"/><path d="M-132.887 90.124h9.35v9.35h-9.35z" style="fill:#428eff;fill-opacity:1;stroke:url(#K);stroke-width:.525521;stroke-dasharray:none;stroke-opacity:1" transform="rotate(-90)"/><path d="M110.165 143.532h9.35v9.35h-9.35z" style="fill:#428eff;fill-opacity:1;stroke:url(#L);stroke-width:.525521;stroke-dasharray:none;stroke-opacity:1"/><path d="M-162.914 110.165h9.35v9.35h-9.35z" style="fill:#428eff;fill-opacity:1;stroke:url(#M);stroke-width:.525521;stroke-dasharray:none;stroke-opacity:1" transform="rotate(-90)"/><path d="M125.124 113.247h9.35v9.35h-9.35z" style="fill:#428eff;fill-opacity:1;stroke:url(#N);stroke-width:.525521;stroke-dasharray:none;stroke-opacity:1"/><path d="M145.132 113.241h9.35v9.35h-9.35z" style="fill:#428eff;fill-opacity:1;stroke:url(#O);stroke-width:.525521;stroke-dasharray:none;stroke-opacity:1"/><path d="M-132.602 145.183h9.35v9.35h-9.35z" style="fill:#428eff;fill-opacity:1;stroke:url(#P);stroke-width:.525521;stroke-dasharray:none;stroke-opacity:1" transform="rotate(-90)"/><path d="M-142.656 125.136h9.35v9.35h-9.35z" style="fill:#428eff;fill-opacity:1;stroke:url(#Q);stroke-width:.525521;stroke-dasharray:none;stroke-opacity:1" transform="rotate(-90)"/><path d="M-142.623 135.145h9.35v9.35h-9.35z" style="fill:#428eff;fill-opacity:1;stroke:url(#R);stroke-width:.525521;stroke-dasharray:none;stroke-opacity:1" transform="rotate(-90)"/><path d="M-152.653 125.165h9.35v9.35h-9.35z" style="fill:#428eff;fill-opacity:1;stroke:url(#S);stroke-width:.525521;stroke-dasharray:none;stroke-opacity:1" transform="rotate(-90)"/><path d="M-162.605 125.106h9.35v9.35h-9.35z" style="fill:#428eff;fill-opacity:1;stroke:url(#T);stroke-width:.525521;stroke-dasharray:none;stroke-opacity:1" transform="rotate(-90)"/><path d="M-132.628 125.125h9.35v9.35h-9.35z" style="fill:#428eff;fill-opacity:1;stroke:url(#U);stroke-width:.525521;stroke-dasharray:none;stroke-opacity:1" transform="rotate(-90)"/><path d="M145.165 143.273h9.35v9.35h-9.35z" style="fill:#428eff;fill-opacity:1;stroke:url(#V);stroke-width:.525521;stroke-dasharray:none;stroke-opacity:1"/><path d="M-162.655 145.165h9.35v9.35h-9.35z" style="fill:#428eff;fill-opacity:1;stroke:url(#W);stroke-width:.525521;stroke-dasharray:none;stroke-opacity:1" transform="rotate(-90)"/><path d="M161.183 113.453h9.35v9.35h-9.35z" style="fill:#428eff;fill-opacity:1;stroke:url(#X);stroke-width:.525521;stroke-dasharray:none;stroke-opacity:1"/><path d="M171.163 113.458h9.35v9.35h-9.35z" style="fill:#428eff;fill-opacity:1;stroke:url(#Y);stroke-width:.525521;stroke-dasharray:none;stroke-opacity:1"/><path d="M-142.828 171.235h9.35v9.35h-9.35z" style="fill:#428eff;fill-opacity:1;stroke:url(#Z);stroke-width:.525521;stroke-dasharray:none;stroke-opacity:1" transform="rotate(-90)"/><path d="M-142.863 161.195h9.35v9.35h-9.35z" style="fill:#428eff;fill-opacity:1;stroke:url(#aa);stroke-width:.525521;stroke-dasharray:none;stroke-opacity:1" transform="rotate(-90)"/><path d="M-162.776 171.206h9.35v9.35h-9.35z" style="fill:#428eff;fill-opacity:1;stroke:url(#ab);stroke-width:.525521;stroke-dasharray:none;stroke-opacity:1" transform="rotate(-90)"/><path d="M181.257 113.419h9.35v9.35h-9.35z" style="fill:#428eff;fill-opacity:1;stroke:url(#ac);stroke-width:.525521;stroke-dasharray:none;stroke-opacity:1"/><path d="M-142.788 181.329h9.35v9.35h-9.35z" style="fill:#428eff;fill-opacity:1;stroke:url(#ad);stroke-width:.525521;stroke-dasharray:none;stroke-opacity:1" transform="rotate(-90)"/><path d="M-162.736 181.3h9.35v9.35h-9.35z" style="fill:#428eff;fill-opacity:1;stroke:url(#ae);stroke-width:.525521;stroke-dasharray:none;stroke-opacity:1" transform="rotate(-90)"/><path d="M-162.811 161.165h9.35v9.35h-9.35z" style="fill:#428eff;fill-opacity:1;stroke:url(#af);stroke-width:.525521;stroke-dasharray:none;stroke-opacity:1" transform="rotate(-90)"/><path d="M-132.834 161.184h9.35v9.35h-9.35z" style="fill:#428eff;fill-opacity:1;stroke:url(#ag);stroke-width:.525521;stroke-dasharray:none;stroke-opacity:1" transform="rotate(-90)"/><path d="M161.229 143.479h9.35v9.35h-9.35z" style="fill:#428eff;fill-opacity:1;stroke:url(#ah);stroke-width:.525521;stroke-dasharray:none;stroke-opacity:1"/></g><path d="m203.9 186.3 14.2-123.1L125 30 31.9 63.2l14.2 123.1L125 230z" style="fill:#dd0031" transform="matrix(.17066 0 0 .17066 14.63 137.041)"/><path d="m125 230 78.9-43.7 14.2-123.1L125 30v22.2-.1 101.3z" style="fill:#c3002f" transform="matrix(.17066 0 0 .17066 14.63 137.041)"/><path d="M125 52.1 66.8 182.6h21.7l11.7-29.2h49.4l11.7 29.2H183zm17 83.3h-34l17-40.9z" style="fill:#fff" transform="matrix(.17066 0 0 .17066 14.63 137.041)"/><g clip-path="url(#ai)" transform="matrix(.5711 0 0 .5711 -12.103 102.193)"><path fill="#202124" d="M20 30.724c0-5.685 4.768-10.315 10.463-10.315a9.817 9.817 0 0 1 7.074 2.841l-1.998 1.989a7.175 7.175 0 0 0-5.073-2.009c-4.148 0-7.39 3.34-7.39 7.497s3.237 7.495 7.39 7.495c2.69 0 4.223-1.081 5.205-2.063.805-.806 1.331-1.966 1.533-3.538h-6.74v-2.83h9.478c.107.584.158 1.177.15 1.77 0 2.112-.576 4.728-2.438 6.59-1.815 1.879-4.129 2.875-7.19 2.875C24.767 41.026 20 36.408 20 30.722M47.75 38.419c-2.01 0-3.745-1.66-3.745-4.025 0-2.366 1.733-4.024 3.744-4.024s3.742 1.634 3.742 4.027c0 2.393-1.733 4.023-3.742 4.023zm0-10.663c-3.669 0-6.662 2.795-6.662 6.637 0 3.842 2.99 6.632 6.661 6.632 3.67 0 6.662-2.818 6.662-6.637 0-3.818-2.994-6.634-6.662-6.634zM62.28 38.419c-2.01 0-3.746-1.66-3.746-4.025 0-2.366 1.734-4.024 3.745-4.024s3.746 1.634 3.746 4.027c0 2.393-1.735 4.027-3.746 4.027zm0-10.66c-3.668 0-6.663 2.795-6.663 6.637 0 3.843 2.992 6.633 6.662 6.633s6.662-2.818 6.662-6.637c0-3.819-2.992-6.638-6.662-6.638zM87.811 21.114h-2.917v19.52h2.917z"/><path fill="#202124" d="M87.811 21.114h-2.917v19.52h2.917zM95.58 30.32c1.157 0 2.137.578 2.463 1.41l-5.932 2.463c-.077-2.566 1.985-3.872 3.468-3.872zm.226 8.1c-1.485 0-2.54-.68-3.218-2.008l8.876-3.674-.299-.749c-.553-1.484-2.236-4.224-5.68-4.224-3.446 0-6.26 2.692-6.26 6.636 0 3.723 2.816 6.637 6.587 6.637a6.6 6.6 0 0 0 5.531-2.947l-2.263-1.51c-.76 1.105-1.79 1.84-3.274 1.84zM76.778 38.42c-2.008 0-3.695-1.685-3.695-3.998s1.684-4.05 3.695-4.05c2.012 0 3.535 1.71 3.535 4.05s-1.552 3.998-3.538 3.998zm3.336-10.263v1.08h-.1c-.654-.786-1.91-1.485-3.493-1.485-3.318 0-6.36 2.918-6.36 6.666s3.04 6.608 6.36 6.608c1.583 0 2.84-.698 3.493-1.509h.1v.956c0 2.54-1.357 3.898-3.535 3.898-1.785 0-2.89-1.283-3.339-2.358l-2.54 1.058A6.323 6.323 0 0 0 76.593 47c3.42 0 6.31-2.01 6.31-6.918V28.157Z"/><path fill="#428eff" d="M119.972 21.085h-9.843v19.578h9.843zM138.23 40.973c5.578 0 10.099-4.522 10.099-10.1 0-5.577-4.521-10.099-10.099-10.099s-10.099 4.522-10.099 10.1c0 5.577 4.521 10.099 10.099 10.099z"/><path fill="#202124" d="M123.2 42.747h-1.897l5.4-23.747h1.898z"/></g><rect width="85.911" height="20.237" x="84.787" y="199.415" rx="1.76" ry="1.76" style="fill:#ff2112;fill-opacity:1;stroke:#ab0b00;stroke-width:.289591;stroke-dasharray:none;stroke-opacity:1"/><g aria-label="PLAY NOW" style="font-size:13.5451px;font-family:&quot;Sofia Sans Condensed&quot;;-inkscape-font-specification:&quot;Sofia Sans Condensed, &quot;;fill:#fff;fill-opacity:.941176;stroke-width:1.5723;filter:url(#aj)" transform="matrix(.88022 0 0 .88022 35.699 36.204)"><path d="M81.338 201.317q-.121 0-.121-.136v-8.6q0-.136.121-.136h1.883q1.395 0 2.073.704.677.691.677 2.113 0 1.355-.69 2.086-.678.718-2.033.718h-.745v3.115q0 .136-.122.136zm1.165-4.402h.705q.772 0 1.124-.393.352-.406.352-1.233 0-.894-.366-1.286-.352-.407-1.097-.407h-.718zM87.285 201.317q-.122 0-.122-.136v-8.6q0-.136.122-.136h1.043q.067 0 .095.04.027.041.027.095v7.558h2.763q.122 0 .122.15v.893q0 .136-.122.136zM91.8 201.317q-.135 0-.094-.15l2.234-8.614q.028-.108.15-.108h1.395q.108 0 .149.108l2.262 8.615q.027.149-.109.149h-1.151q-.081 0-.136-.109l-1.327-5.688q-.108-.447-.203-.894-.095-.447-.19-.908h-.027q-.081.46-.176.908-.095.433-.19.894l-1.327 5.688q-.027.109-.149.109zm1.49-2.005.23-1.11h2.493l.257 1.11zM99.684 201.317q-.108 0-.108-.136v-2.912l-2.249-5.648q-.013-.081 0-.122.027-.054.082-.054H98.6q.121 0 .135.108l.975 2.79q.136.38.258.786.122.393.257.772h.013q.109-.393.23-.785.136-.393.272-.8l.961-2.776q.04-.095.136-.095h1.165q.081 0 .094.054.028.04 0 .122l-2.234 5.648v2.912q0 .136-.122.136zM106.254 201.317q-.122 0-.122-.136v-8.6q0-.136.122-.136h1.53q.122 0 .15.095l1.72 4.74q.148.38.284.813.149.434.27.84.136.393.217.731h.041q-.027-.365-.054-.826l-.027-.921V192.581q0-.136.122-.136h1.002q.122 0 .122.135v8.601q0 .136-.122.136h-1.517q-.095 0-.15-.095l-1.679-4.605q-.244-.65-.447-1.287-.19-.65-.365-1.206h-.028q.014.393.014.88l.027.949q.014.474.014.894v4.334q0 .136-.122.136zM115.87 201.425q-1.368 0-2.085-.745-.705-.745-.705-2.167v-3.25q0-1.437.705-2.182.717-.745 2.086-.745 1.368 0 2.072.745.718.745.718 2.181v3.251q0 1.422-.718 2.167-.704.745-2.072.745zm0-1.178q.746 0 1.125-.434.379-.447.379-1.354v-3.143q0-.92-.38-1.354-.378-.447-1.123-.447-.732 0-1.111.447-.38.433-.38 1.354v3.143q0 .907.38 1.354.38.434 1.11.434zM121.378 201.317q-.108 0-.122-.109l-1.842-8.6q-.027-.163.122-.163h1.057q.108 0 .135.108l.989 4.809q.108.61.19 1.273.094.65.149 1.246h.027q.081-.46.176-.921.108-.46.216-.935l.813-3.603-.366-1.652q-.027-.081.014-.122.04-.04.095-.04h1.043q.108 0 .135.121l1.057 5.296q.095.475.176.935l.162.921h.014q.054-.596.135-1.232.082-.637.19-1.3l.962-4.796q.027-.108.135-.108h1.07q.136 0 .109.162l-1.802 8.588q-.027.122-.122.122h-1.3q-.109 0-.136-.122l-.636-3.156q-.095-.447-.19-.867-.081-.433-.149-.867h-.027q-.081.434-.176.867-.081.42-.203.853l-.718 3.17q-.014.122-.122.122z" style="font-weight:600;-inkscape-font-specification:&quot;Sofia Sans Condensed, Semi-Bold&quot;"/></g><path d="M222.735 123.02v-3.017h3.017v3.017z" style="font-size:12.0682px;font-family:&quot;Press Start 2P&quot;;-inkscape-font-specification:&quot;Press Start 2P&quot;;fill:#fb0;stroke-width:.56274;filter:url(#ak)" transform="matrix(.92767 0 0 .99332 2.25 .444)"/><path d="M230.12 123.02v-1.508h-1.509v-1.509h3.017v1.509h4.526v-9.051h3.017v9.05h-1.509v1.51zM242.188 123.02v-1.508h-1.509v-1.509h3.017v1.509h4.526v-3.017h-6.034v-1.509h-1.509v-3.017h1.509v-1.508h7.543v1.508h1.508v1.509h-3.017v-1.509h-4.526v3.017h6.035v1.509h1.508v3.017h-1.508v1.508z" style="font-size:12.0682px;font-family:&quot;Press Start 2P&quot;;-inkscape-font-specification:&quot;Press Start 2P&quot;;fill:#fb0;stroke-width:.56274;filter:url(#ak)" transform="matrix(.92767 0 0 .99332 1.294 .444)"/></g></svg>