<?xml version="1.0" encoding="us-ascii" standalone="no"?><svg xmlns="http://www.w3.org/2000/svg" xmlns:xlink="http://www.w3.org/1999/xlink" contentStyleType="text/css" height="1531px" preserveAspectRatio="none" style="width:3478px;height:1531px;background:#FFFFFF;" version="1.1" viewBox="0 0 3478 1531" width="3478px" zoomAndPan="magnify"><defs/><g><!--class AppComponent--><g id="elem_AppComponent"><rect codeLine="1" fill="#F1F1F1" height="64.2969" id="AppComponent" rx="2.5" ry="2.5" style="stroke:#181818;stroke-width:0.5;" width="148" x="184.7864" y="23.5"/><ellipse cx="199.7864" cy="39.5" fill="#ADD1B2" rx="11" ry="11" style="stroke:#181818;stroke-width:1.0;"/><path d="M202.1302,35.1719 C201.1927,34.7344 200.5989,34.5938 199.7239,34.5938 C197.0989,34.5938 195.0989,36.6719 195.0989,39.3906 L195.0989,40.5156 C195.0989,43.0938 197.2083,44.9844 200.0989,44.9844 C201.3177,44.9844 202.4739,44.6875 203.2239,44.1406 C203.802,43.7344 204.1302,43.2813 204.1302,42.8906 C204.1302,42.4375 203.7395,42.0469 203.2708,42.0469 C203.052,42.0469 202.8489,42.125 202.6614,42.3125 C202.2083,42.7969 202.2083,42.7969 202.0208,42.8906 C201.5989,43.1563 200.9114,43.2813 200.1458,43.2813 C198.0989,43.2813 196.802,42.1875 196.802,40.4844 L196.802,39.3906 C196.802,37.6094 198.052,36.2969 199.7864,36.2969 C200.3645,36.2969 200.9739,36.4531 201.4427,36.7031 C201.927,36.9844 202.0989,37.2031 202.1927,37.6094 C202.2552,38.0156 202.2864,38.1406 202.427,38.2656 C202.5677,38.4063 202.802,38.5156 203.0208,38.5156 C203.2864,38.5156 203.552,38.375 203.7239,38.1563 C203.8333,38 203.8645,37.8125 203.8645,37.3906 L203.8645,35.9688 C203.8645,35.5313 203.8489,35.4063 203.7552,35.25 C203.5989,34.9844 203.3177,34.8438 203.0208,34.8438 C202.7239,34.8438 202.5208,34.9375 202.302,35.25 L202.1302,35.1719 Z " fill="#000000"/><text fill="#000000" font-family="sans-serif" font-size="14" lengthAdjust="spacing" textLength="116" x="213.7864" y="44.3467">AppComponent</text><line style="stroke:#181818;stroke-width:0.5;" x1="185.7864" x2="331.7864" y1="55.5" y2="55.5"/><ellipse cx="195.7864" cy="69.1484" fill="none" rx="3" ry="3" style="stroke:#038048;stroke-width:1.0;"/><text fill="#000000" font-family="sans-serif" font-size="14" lengthAdjust="spacing" textLength="82" x="204.7864" y="72.4951">title: string</text><line style="stroke:#181818;stroke-width:0.5;" x1="185.7864" x2="331.7864" y1="79.7969" y2="79.7969"/></g><!--class Snake--><g id="elem_Snake"><rect codeLine="4" fill="#F1F1F1" height="145.7813" id="Snake" rx="2.5" ry="2.5" style="stroke:#181818;stroke-width:0.5;" width="230" x="1367.7894" y="1148"/><ellipse cx="1456.5394" cy="1164" fill="#ADD1B2" rx="11" ry="11" style="stroke:#181818;stroke-width:1.0;"/><path d="M1458.8832,1159.6719 C1457.9457,1159.2344 1457.3519,1159.0938 1456.4769,1159.0938 C1453.8519,1159.0938 1451.8519,1161.1719 1451.8519,1163.8906 L1451.8519,1165.0156 C1451.8519,1167.5938 1453.9613,1169.4844 1456.8519,1169.4844 C1458.0707,1169.4844 1459.2269,1169.1875 1459.9769,1168.6406 C1460.555,1168.2344 1460.8832,1167.7813 1460.8832,1167.3906 C1460.8832,1166.9375 1460.4925,1166.5469 1460.0238,1166.5469 C1459.805,1166.5469 1459.6019,1166.625 1459.4144,1166.8125 C1458.9613,1167.2969 1458.9613,1167.2969 1458.7738,1167.3906 C1458.3519,1167.6563 1457.6644,1167.7813 1456.8988,1167.7813 C1454.8519,1167.7813 1453.555,1166.6875 1453.555,1164.9844 L1453.555,1163.8906 C1453.555,1162.1094 1454.805,1160.7969 1456.5394,1160.7969 C1457.1175,1160.7969 1457.7269,1160.9531 1458.1957,1161.2031 C1458.68,1161.4844 1458.8519,1161.7031 1458.9457,1162.1094 C1459.0082,1162.5156 1459.0394,1162.6406 1459.18,1162.7656 C1459.3207,1162.9063 1459.555,1163.0156 1459.7738,1163.0156 C1460.0394,1163.0156 1460.305,1162.875 1460.4769,1162.6563 C1460.5863,1162.5 1460.6175,1162.3125 1460.6175,1161.8906 L1460.6175,1160.4688 C1460.6175,1160.0313 1460.6019,1159.9063 1460.5082,1159.75 C1460.3519,1159.4844 1460.0707,1159.3438 1459.7738,1159.3438 C1459.4769,1159.3438 1459.2738,1159.4375 1459.055,1159.75 L1458.8832,1159.6719 Z " fill="#000000"/><text fill="#000000" font-family="sans-serif" font-size="14" lengthAdjust="spacing" textLength="44" x="1477.0394" y="1168.8467">Snake</text><line style="stroke:#181818;stroke-width:0.5;" x1="1368.7894" x2="1596.7894" y1="1180" y2="1180"/><ellipse cx="1378.7894" cy="1193.6484" fill="none" rx="3" ry="3" style="stroke:#038048;stroke-width:1.0;"/><text fill="#000000" font-family="sans-serif" font-size="14" lengthAdjust="spacing" textLength="141" x="1387.7894" y="1196.9951">direction: Direction</text><ellipse cx="1378.7894" cy="1209.9453" fill="none" rx="3" ry="3" style="stroke:#038048;stroke-width:1.0;"/><text fill="#000000" font-family="sans-serif" font-size="14" lengthAdjust="spacing" textLength="177" x="1387.7894" y="1213.292">segments: Coordinates[]</text><ellipse cx="1378.7894" cy="1226.2422" fill="none" rx="3" ry="3" style="stroke:#038048;stroke-width:1.0;"/><text fill="#000000" font-family="sans-serif" font-size="14" lengthAdjust="spacing" textLength="142" x="1387.7894" y="1229.5889">body: Coordinates[]</text><ellipse cx="1378.7894" cy="1242.5391" fill="none" rx="3" ry="3" style="stroke:#038048;stroke-width:1.0;"/><text fill="#000000" font-family="sans-serif" font-size="14" lengthAdjust="spacing" textLength="131" x="1387.7894" y="1245.8857">head: Coordinates</text><ellipse cx="1378.7894" cy="1258.8359" fill="none" rx="3" ry="3" style="stroke:#038048;stroke-width:1.0;"/><text fill="#000000" font-family="sans-serif" font-size="14" lengthAdjust="spacing" textLength="157" x="1387.7894" y="1262.1826">tail: Coordinates | null</text><ellipse cx="1378.7894" cy="1275.1328" fill="none" rx="3" ry="3" style="stroke:#038048;stroke-width:1.0;"/><text fill="#000000" font-family="sans-serif" font-size="14" lengthAdjust="spacing" textLength="204" x="1387.7894" y="1278.4795">tailDirection: Direction | null</text><line style="stroke:#181818;stroke-width:0.5;" x1="1368.7894" x2="1596.7894" y1="1285.7813" y2="1285.7813"/></g><!--class GameStatus--><g id="elem_GameStatus"><rect codeLine="12" fill="#F1F1F1" height="113.1875" id="GameStatus" rx="2.5" ry="2.5" style="stroke:#181818;stroke-width:0.5;" width="120" x="1632.7894" y="1164.5"/><ellipse cx="1647.7894" cy="1180.5" fill="#EB937F" rx="11" ry="11" style="stroke:#181818;stroke-width:1.0;"/><path d="M1646.5863,1181.375 L1648.0394,1181.375 L1648.0394,1181.4844 C1648.0394,1181.8906 1648.0707,1182.0469 1648.1488,1182.2031 C1648.305,1182.4531 1648.5863,1182.6094 1648.8832,1182.6094 C1649.1332,1182.6094 1649.3988,1182.4688 1649.555,1182.25 C1649.68,1182.0938 1649.7113,1181.9375 1649.7113,1181.4844 L1649.7113,1179.5625 C1649.7113,1179.4063 1649.7113,1179.3594 1649.6957,1179.2031 C1649.6332,1178.7344 1649.3207,1178.4219 1648.8675,1178.4219 C1648.6175,1178.4219 1648.3519,1178.5625 1648.18,1178.7813 C1648.0707,1178.9531 1648.0394,1179.1094 1648.0394,1179.5625 L1648.0394,1179.6875 L1646.5863,1179.6875 L1646.5863,1177.2813 L1650.5707,1177.2813 L1650.5707,1178.1406 C1650.5707,1178.5469 1650.6019,1178.7188 1650.68,1178.875 C1650.8519,1179.125 1651.1332,1179.2813 1651.4144,1179.2813 C1651.68,1179.2813 1651.9457,1179.1406 1652.1175,1178.9219 C1652.2269,1178.75 1652.2582,1178.6094 1652.2582,1178.1406 L1652.2582,1175.5938 L1644.6332,1175.5938 C1644.1957,1175.5938 1644.0707,1175.6094 1643.9144,1175.7031 C1643.6644,1175.8594 1643.5082,1176.1563 1643.5082,1176.4375 C1643.5082,1176.7188 1643.6488,1176.9688 1643.8675,1177.1406 C1644.0238,1177.25 1644.2113,1177.2813 1644.6332,1177.2813 L1644.8832,1177.2813 L1644.8832,1183.7969 L1644.6332,1183.7969 C1644.2269,1183.7969 1644.0707,1183.8125 1643.9144,1183.9219 C1643.6644,1184.0938 1643.5082,1184.3594 1643.5082,1184.6563 C1643.5082,1184.9219 1643.6488,1185.1719 1643.8675,1185.3281 C1644.0082,1185.4531 1644.2425,1185.5 1644.6332,1185.5 L1652.6332,1185.5 L1652.6332,1182.9219 C1652.6332,1182.4844 1652.6019,1182.3438 1652.5238,1182.1875 C1652.3519,1181.9375 1652.0707,1181.7813 1651.7894,1181.7813 C1651.5238,1181.7813 1651.2582,1181.8906 1651.0863,1182.1406 C1650.9769,1182.2969 1650.9457,1182.4375 1650.9457,1182.9219 L1650.9457,1183.7969 L1646.5863,1183.7969 L1646.5863,1181.375 Z " fill="#000000"/><text fill="#000000" font-family="sans-serif" font-size="14" lengthAdjust="spacing" textLength="88" x="1661.7894" y="1185.3467">GameStatus</text><line style="stroke:#181818;stroke-width:0.5;" x1="1633.7894" x2="1751.7894" y1="1196.5" y2="1196.5"/><text fill="#000000" font-family="sans-serif" font-size="14" lengthAdjust="spacing" textLength="40" x="1638.7894" y="1213.4951">Initial</text><text fill="#000000" font-family="sans-serif" font-size="14" lengthAdjust="spacing" textLength="58" x="1638.7894" y="1229.792">Running</text><text fill="#000000" font-family="sans-serif" font-size="14" lengthAdjust="spacing" textLength="50" x="1638.7894" y="1246.0889">Paused</text><text fill="#000000" font-family="sans-serif" font-size="14" lengthAdjust="spacing" textLength="76" x="1638.7894" y="1262.3857">GameOver</text><line style="stroke:#181818;stroke-width:0.5;" x1="1633.7894" x2="1751.7894" y1="1269.6875" y2="1269.6875"/></g><!--class Direction--><g id="elem_Direction"><rect codeLine="18" fill="#F1F1F1" height="113.1875" id="Direction" rx="2.5" ry="2.5" style="stroke:#181818;stroke-width:0.5;" width="99" x="1349.2894" y="1411"/><ellipse cx="1364.2894" cy="1427" fill="#EB937F" rx="11" ry="11" style="stroke:#181818;stroke-width:1.0;"/><path d="M1363.0863,1427.875 L1364.5394,1427.875 L1364.5394,1427.9844 C1364.5394,1428.3906 1364.5707,1428.5469 1364.6488,1428.7031 C1364.805,1428.9531 1365.0863,1429.1094 1365.3832,1429.1094 C1365.6332,1429.1094 1365.8988,1428.9688 1366.055,1428.75 C1366.18,1428.5938 1366.2113,1428.4375 1366.2113,1427.9844 L1366.2113,1426.0625 C1366.2113,1425.9063 1366.2113,1425.8594 1366.1957,1425.7031 C1366.1332,1425.2344 1365.8207,1424.9219 1365.3675,1424.9219 C1365.1175,1424.9219 1364.8519,1425.0625 1364.68,1425.2813 C1364.5707,1425.4531 1364.5394,1425.6094 1364.5394,1426.0625 L1364.5394,1426.1875 L1363.0863,1426.1875 L1363.0863,1423.7813 L1367.0707,1423.7813 L1367.0707,1424.6406 C1367.0707,1425.0469 1367.1019,1425.2188 1367.18,1425.375 C1367.3519,1425.625 1367.6332,1425.7813 1367.9144,1425.7813 C1368.18,1425.7813 1368.4457,1425.6406 1368.6175,1425.4219 C1368.7269,1425.25 1368.7582,1425.1094 1368.7582,1424.6406 L1368.7582,1422.0938 L1361.1332,1422.0938 C1360.6957,1422.0938 1360.5707,1422.1094 1360.4144,1422.2031 C1360.1644,1422.3594 1360.0082,1422.6563 1360.0082,1422.9375 C1360.0082,1423.2188 1360.1488,1423.4688 1360.3675,1423.6406 C1360.5238,1423.75 1360.7113,1423.7813 1361.1332,1423.7813 L1361.3832,1423.7813 L1361.3832,1430.2969 L1361.1332,1430.2969 C1360.7269,1430.2969 1360.5707,1430.3125 1360.4144,1430.4219 C1360.1644,1430.5938 1360.0082,1430.8594 1360.0082,1431.1563 C1360.0082,1431.4219 1360.1488,1431.6719 1360.3675,1431.8281 C1360.5082,1431.9531 1360.7425,1432 1361.1332,1432 L1369.1332,1432 L1369.1332,1429.4219 C1369.1332,1428.9844 1369.1019,1428.8438 1369.0238,1428.6875 C1368.8519,1428.4375 1368.5707,1428.2813 1368.2894,1428.2813 C1368.0238,1428.2813 1367.7582,1428.3906 1367.5863,1428.6406 C1367.4769,1428.7969 1367.4457,1428.9375 1367.4457,1429.4219 L1367.4457,1430.2969 L1363.0863,1430.2969 L1363.0863,1427.875 Z " fill="#000000"/><text fill="#000000" font-family="sans-serif" font-size="14" lengthAdjust="spacing" textLength="67" x="1378.2894" y="1431.8467">Direction</text><line style="stroke:#181818;stroke-width:0.5;" x1="1350.2894" x2="1447.2894" y1="1443" y2="1443"/><text fill="#000000" font-family="sans-serif" font-size="14" lengthAdjust="spacing" textLength="30" x="1355.2894" y="1459.9951">Left</text><text fill="#000000" font-family="sans-serif" font-size="14" lengthAdjust="spacing" textLength="39" x="1355.2894" y="1476.292">Right</text><text fill="#000000" font-family="sans-serif" font-size="14" lengthAdjust="spacing" textLength="19" x="1355.2894" y="1492.5889">Up</text><text fill="#000000" font-family="sans-serif" font-size="14" lengthAdjust="spacing" textLength="40" x="1355.2894" y="1508.8857">Down</text><line style="stroke:#181818;stroke-width:0.5;" x1="1350.2894" x2="1447.2894" y1="1516.1875" y2="1516.1875"/></g><!--class ArrowsComponent--><g id="elem_ArrowsComponent"><rect codeLine="24" fill="#F1F1F1" height="96.8906" id="ArrowsComponent" rx="2.5" ry="2.5" style="stroke:#181818;stroke-width:0.5;" width="404" x="2268.7894" y="1172.5"/><ellipse cx="2399.0394" cy="1188.5" fill="#ADD1B2" rx="11" ry="11" style="stroke:#181818;stroke-width:1.0;"/><path d="M2401.3832,1184.1719 C2400.4457,1183.7344 2399.8519,1183.5938 2398.9769,1183.5938 C2396.3519,1183.5938 2394.3519,1185.6719 2394.3519,1188.3906 L2394.3519,1189.5156 C2394.3519,1192.0938 2396.4613,1193.9844 2399.3519,1193.9844 C2400.5707,1193.9844 2401.7269,1193.6875 2402.4769,1193.1406 C2403.055,1192.7344 2403.3832,1192.2813 2403.3832,1191.8906 C2403.3832,1191.4375 2402.9925,1191.0469 2402.5238,1191.0469 C2402.305,1191.0469 2402.1019,1191.125 2401.9144,1191.3125 C2401.4613,1191.7969 2401.4613,1191.7969 2401.2738,1191.8906 C2400.8519,1192.1563 2400.1644,1192.2813 2399.3988,1192.2813 C2397.3519,1192.2813 2396.055,1191.1875 2396.055,1189.4844 L2396.055,1188.3906 C2396.055,1186.6094 2397.305,1185.2969 2399.0394,1185.2969 C2399.6175,1185.2969 2400.2269,1185.4531 2400.6957,1185.7031 C2401.18,1185.9844 2401.3519,1186.2031 2401.4457,1186.6094 C2401.5082,1187.0156 2401.5394,1187.1406 2401.68,1187.2656 C2401.8207,1187.4063 2402.055,1187.5156 2402.2738,1187.5156 C2402.5394,1187.5156 2402.805,1187.375 2402.9769,1187.1563 C2403.0863,1187 2403.1175,1186.8125 2403.1175,1186.3906 L2403.1175,1184.9688 C2403.1175,1184.5313 2403.1019,1184.4063 2403.0082,1184.25 C2402.8519,1183.9844 2402.5707,1183.8438 2402.2738,1183.8438 C2401.9769,1183.8438 2401.7738,1183.9375 2401.555,1184.25 L2401.3832,1184.1719 Z " fill="#000000"/><text fill="#000000" font-family="sans-serif" font-size="14" lengthAdjust="spacing" textLength="135" x="2419.5394" y="1193.3467">ArrowsComponent</text><line style="stroke:#181818;stroke-width:0.5;" x1="2269.7894" x2="2671.7894" y1="1204.5" y2="1204.5"/><rect fill="none" height="6" style="stroke:#C82930;stroke-width:1.0;" width="6" x="2276.7894" y="1215.1484"/><text fill="#000000" font-family="sans-serif" font-size="14" lengthAdjust="spacing" textLength="378" x="2288.7894" y="1221.4951">directionClassInternal: "up" | "down" | "left" | "right"</text><ellipse cx="2279.7894" cy="1234.4453" fill="none" rx="3" ry="3" style="stroke:#038048;stroke-width:1.0;"/><text fill="#000000" font-family="sans-serif" font-size="14" lengthAdjust="spacing" textLength="152" x="2288.7894" y="1237.792">directionClass: string</text><ellipse cx="2279.7894" cy="1250.7422" fill="none" rx="3" ry="3" style="stroke:#038048;stroke-width:1.0;"/><text fill="#000000" font-family="sans-serif" font-size="14" lengthAdjust="spacing" textLength="141" x="2288.7894" y="1254.0889">direction: Direction</text><line style="stroke:#181818;stroke-width:0.5;" x1="2269.7894" x2="2671.7894" y1="1261.3906" y2="1261.3906"/></g><!--class GameUtils--><g id="elem_GameUtils"><rect codeLine="29" fill="#F1F1F1" height="113.1875" id="GameUtils" rx="2.5" ry="2.5" style="stroke:#181818;stroke-width:0.5;" width="764" x="2707.7894" y="1164.5"/><ellipse cx="3049.0394" cy="1180.5" fill="#ADD1B2" rx="11" ry="11" style="stroke:#181818;stroke-width:1.0;"/><path d="M3051.3832,1176.1719 C3050.4457,1175.7344 3049.8519,1175.5938 3048.9769,1175.5938 C3046.3519,1175.5938 3044.3519,1177.6719 3044.3519,1180.3906 L3044.3519,1181.5156 C3044.3519,1184.0938 3046.4613,1185.9844 3049.3519,1185.9844 C3050.5707,1185.9844 3051.7269,1185.6875 3052.4769,1185.1406 C3053.055,1184.7344 3053.3832,1184.2813 3053.3832,1183.8906 C3053.3832,1183.4375 3052.9925,1183.0469 3052.5238,1183.0469 C3052.305,1183.0469 3052.1019,1183.125 3051.9144,1183.3125 C3051.4613,1183.7969 3051.4613,1183.7969 3051.2738,1183.8906 C3050.8519,1184.1563 3050.1644,1184.2813 3049.3988,1184.2813 C3047.3519,1184.2813 3046.055,1183.1875 3046.055,1181.4844 L3046.055,1180.3906 C3046.055,1178.6094 3047.305,1177.2969 3049.0394,1177.2969 C3049.6175,1177.2969 3050.2269,1177.4531 3050.6957,1177.7031 C3051.18,1177.9844 3051.3519,1178.2031 3051.4457,1178.6094 C3051.5082,1179.0156 3051.5394,1179.1406 3051.68,1179.2656 C3051.8207,1179.4063 3052.055,1179.5156 3052.2738,1179.5156 C3052.5394,1179.5156 3052.805,1179.375 3052.9769,1179.1563 C3053.0863,1179 3053.1175,1178.8125 3053.1175,1178.3906 L3053.1175,1176.9688 C3053.1175,1176.5313 3053.1019,1176.4063 3053.0082,1176.25 C3052.8519,1175.9844 3052.5707,1175.8438 3052.2738,1175.8438 C3051.9769,1175.8438 3051.7738,1175.9375 3051.555,1176.25 L3051.3832,1176.1719 Z " fill="#000000"/><text fill="#000000" font-family="sans-serif" font-size="14" lengthAdjust="spacing" textLength="73" x="3069.5394" y="1185.3467">GameUtils</text><line style="stroke:#181818;stroke-width:0.5;" x1="2708.7894" x2="3470.7894" y1="1196.5" y2="1196.5"/><line style="stroke:#181818;stroke-width:0.5;" x1="2708.7894" x2="3470.7894" y1="1204.5" y2="1204.5"/><ellipse cx="2718.7894" cy="1218.1484" fill="#84BE84" rx="3" ry="3" style="stroke:#038048;stroke-width:1.0;"/><text fill="#000000" font-family="sans-serif" font-size="14" lengthAdjust="spacing" text-decoration="underline" textLength="738" x="2727.7894" y="1221.4951">arePointsEqual(point1?: Coordinates | null | undefined, point2?: Coordinates | null | undefined): boolean</text><ellipse cx="2718.7894" cy="1234.4453" fill="#84BE84" rx="3" ry="3" style="stroke:#038048;stroke-width:1.0;"/><text fill="#000000" font-family="sans-serif" font-size="14" lengthAdjust="spacing" text-decoration="underline" textLength="417" x="2727.7894" y="1237.792">directionToCoordinates(direction: Direction): Coordinates</text><ellipse cx="2718.7894" cy="1250.7422" fill="#84BE84" rx="3" ry="3" style="stroke:#038048;stroke-width:1.0;"/><text fill="#000000" font-family="sans-serif" font-size="14" lengthAdjust="spacing" text-decoration="underline" textLength="548" x="2727.7894" y="1254.0889">areDirectionsOpposite(direction1: Direction, direction2: Direction): boolean</text><ellipse cx="2718.7894" cy="1267.0391" fill="#84BE84" rx="3" ry="3" style="stroke:#038048;stroke-width:1.0;"/><text fill="#000000" font-family="sans-serif" font-size="14" lengthAdjust="spacing" text-decoration="underline" textLength="446" x="2727.7894" y="1270.3857">rotationFromDirection(direction: Direction): `${number}deg`</text></g><!--class GameServiceBase--><g id="elem_GameServiceBase"><rect codeLine="35" fill="#F1F1F1" height="325.0469" id="GameServiceBase" rx="2.5" ry="2.5" style="stroke:#181818;stroke-width:0.5;" width="514" x="760.7864" y="706"/><ellipse cx="948.0364" cy="722" fill="#A9DCDF" rx="11" ry="11" style="stroke:#181818;stroke-width:1.0;"/><path d="M950.1145,723.8125 L950.5052,724.7969 L950.1145,724.7969 C949.6614,724.7969 949.552,724.8125 949.3958,724.9219 C949.1458,725.0781 948.9895,725.3594 948.9895,725.6563 C948.9895,725.9219 949.1302,726.1719 949.3489,726.3281 C949.4895,726.4531 949.6927,726.5 950.1145,726.5 L952.4739,726.5 C952.8333,726.5 953.052,726.4688 953.1927,726.375 C953.4427,726.2344 953.5989,725.9375 953.5989,725.6563 C953.5989,725.375 953.4583,725.125 953.2395,724.9688 C953.0677,724.8281 952.9114,724.7969 952.4427,724.7969 L949.052,716.5938 L945.3802,716.5938 C944.927,716.5938 944.802,716.6094 944.6458,716.7031 C944.3958,716.875 944.2395,717.1563 944.2395,717.4375 C944.2395,717.7188 944.3802,717.9688 944.5989,718.1406 C944.7708,718.25 944.9427,718.2813 945.3802,718.2813 L946.4583,718.2813 L943.8177,724.7969 C943.3958,724.7969 943.2395,724.8125 943.0833,724.9219 C942.8333,725.0781 942.677,725.3594 942.677,725.6563 C942.677,726.2188 943.052,726.5 943.802,726.5 L946.0677,726.5 C946.427,726.5 946.6458,726.4688 946.7708,726.375 C947.0364,726.2344 947.177,725.9375 947.177,725.6563 C947.177,725.375 947.052,725.125 946.8333,724.9531 C946.6614,724.8281 946.5208,724.7969 946.0677,724.7969 L945.677,724.7969 L946.0677,723.8125 L950.1145,723.8125 Z M949.4114,722.1094 L946.7395,722.1094 L948.0833,718.8438 L949.4114,722.1094 Z " fill="#000000"/><text fill="#000000" font-family="sans-serif" font-size="14" font-style="italic" lengthAdjust="spacing" textLength="131" x="968.5364" y="726.8467">GameServiceBase</text><line style="stroke:#181818;stroke-width:0.5;" x1="761.7864" x2="1273.7864" y1="738" y2="738"/><polygon fill="none" points="771.7864,746.6484,775.7864,750.6484,771.7864,754.6484,767.7864,750.6484" style="stroke:#B38D22;stroke-width:1.0;"/><text fill="#000000" font-family="sans-serif" font-size="14" lengthAdjust="spacing" textLength="95" x="780.7864" y="754.9951">snake: Snake</text><polygon fill="none" points="771.7864,762.9453,775.7864,766.9453,771.7864,770.9453,767.7864,766.9453" style="stroke:#B38D22;stroke-width:1.0;"/><text fill="#000000" font-family="sans-serif" font-size="14" lengthAdjust="spacing" textLength="129" x="780.7864" y="771.292">food: Coordinates</text><polygon fill="none" points="771.7864,779.2422,775.7864,783.2422,771.7864,787.2422,767.7864,783.2422" style="stroke:#B38D22;stroke-width:1.0;"/><text fill="#000000" font-family="sans-serif" font-size="14" lengthAdjust="spacing" textLength="109" x="780.7864" y="787.5889">speed: number</text><polygon fill="none" points="771.7864,795.5391,775.7864,799.5391,771.7864,803.5391,767.7864,799.5391" style="stroke:#B38D22;stroke-width:1.0;"/><text fill="#000000" font-family="sans-serif" font-size="14" lengthAdjust="spacing" textLength="141" x="780.7864" y="803.8857">direction: Direction</text><polygon fill="none" points="771.7864,811.8359,775.7864,815.8359,771.7864,819.8359,767.7864,815.8359" style="stroke:#B38D22;stroke-width:1.0;"/><text fill="#000000" font-family="sans-serif" font-size="14" lengthAdjust="spacing" textLength="141" x="780.7864" y="820.1826">status: GameStatus</text><polygon fill="none" points="771.7864,828.1328,775.7864,832.1328,771.7864,836.1328,767.7864,832.1328" style="stroke:#B38D22;stroke-width:1.0;"/><text fill="#000000" font-family="sans-serif" font-size="14" lengthAdjust="spacing" textLength="183" x="780.7864" y="836.4795">gridSizeInternal: GridSize</text><polygon fill="none" points="771.7864,844.4297,775.7864,848.4297,771.7864,852.4297,767.7864,848.4297" style="stroke:#B38D22;stroke-width:1.0;"/><text fill="#000000" font-family="sans-serif" font-size="14" lengthAdjust="spacing" textLength="121" x="780.7864" y="852.7764">lastTick: number</text><ellipse cx="771.7864" cy="865.7266" fill="none" rx="3" ry="3" style="stroke:#038048;stroke-width:1.0;"/><text fill="#000000" font-family="sans-serif" font-size="14" lengthAdjust="spacing" textLength="121" x="780.7864" y="869.0732">running: boolean</text><line style="stroke:#181818;stroke-width:0.5;" x1="761.7864" x2="1273.7864" y1="876.375" y2="876.375"/><ellipse cx="771.7864" cy="890.0234" fill="#84BE84" rx="3" ry="3" style="stroke:#038048;stroke-width:1.0;"/><text fill="#000000" font-family="sans-serif" font-size="14" font-style="italic" lengthAdjust="spacing" textLength="322" x="780.7864" y="893.3701">setup(config?: GameConfig | undefined): void</text><ellipse cx="771.7864" cy="906.3203" fill="#84BE84" rx="3" ry="3" style="stroke:#038048;stroke-width:1.0;"/><text fill="#000000" font-family="sans-serif" font-size="14" font-style="italic" lengthAdjust="spacing" textLength="81" x="780.7864" y="909.667">start(): void</text><ellipse cx="771.7864" cy="922.6172" fill="#84BE84" rx="3" ry="3" style="stroke:#038048;stroke-width:1.0;"/><text fill="#000000" font-family="sans-serif" font-size="14" font-style="italic" lengthAdjust="spacing" textLength="272" x="780.7864" y="925.9639">setDirection(direction: Direction): void</text><ellipse cx="771.7864" cy="938.9141" fill="#84BE84" rx="3" ry="3" style="stroke:#038048;stroke-width:1.0;"/><text fill="#000000" font-family="sans-serif" font-size="14" font-style="italic" lengthAdjust="spacing" textLength="92" x="780.7864" y="942.2607">pause(): void</text><polygon fill="#FFFF44" points="771.7864,950.2109,775.7864,954.2109,771.7864,958.2109,767.7864,954.2109" style="stroke:#B38D22;stroke-width:1.0;"/><text fill="#000000" font-family="sans-serif" font-size="14" lengthAdjust="spacing" textLength="488" x="780.7864" y="958.5576">randomCoordinates(avoidEdges?: boolean | undefined): Coordinates</text><polygon fill="#FFFF44" points="771.7864,966.5078,775.7864,970.5078,771.7864,974.5078,767.7864,970.5078" style="stroke:#B38D22;stroke-width:1.0;"/><text fill="#000000" font-family="sans-serif" font-size="14" lengthAdjust="spacing" textLength="283" x="780.7864" y="974.8545">randomFoodCoordinates(): Coordinates</text><polygon fill="#FFFF44" points="771.7864,982.8047,775.7864,986.8047,771.7864,990.8047,767.7864,986.8047" style="stroke:#B38D22;stroke-width:1.0;"/><text fill="#000000" font-family="sans-serif" font-size="14" lengthAdjust="spacing" textLength="364" x="780.7864" y="991.1514">isOutsideOfBounds(points: Coordinates[]): boolean</text><polygon fill="#FFFF44" points="771.7864,999.1016,775.7864,1003.1016,771.7864,1007.1016,767.7864,1003.1016" style="stroke:#B38D22;stroke-width:1.0;"/><text fill="#000000" font-family="sans-serif" font-size="14" lengthAdjust="spacing" textLength="385" x="780.7864" y="1007.4482">isPointOutsideOfBounds(point: Coordinates): boolean</text><polygon fill="#FFFF44" points="771.7864,1015.3984,775.7864,1019.3984,771.7864,1023.3984,767.7864,1019.3984" style="stroke:#B38D22;stroke-width:1.0;"/><text fill="#000000" font-family="sans-serif" font-size="14" lengthAdjust="spacing" textLength="345" x="780.7864" y="1023.7451">isPointOnSnake(position: Coordinates): boolean</text></g><!--class ControlButtonsComponent--><g id="elem_ControlButtonsComponent"><rect codeLine="54" fill="#F1F1F1" height="145.7813" id="ControlButtonsComponent" rx="2.5" ry="2.5" style="stroke:#181818;stroke-width:0.5;" width="257" x="638.2864" y="451"/><ellipse cx="665.8864" cy="467" fill="#ADD1B2" rx="11" ry="11" style="stroke:#181818;stroke-width:1.0;"/><path d="M668.2302,462.6719 C667.2927,462.2344 666.6989,462.0938 665.8239,462.0938 C663.1989,462.0938 661.1989,464.1719 661.1989,466.8906 L661.1989,468.0156 C661.1989,470.5938 663.3083,472.4844 666.1989,472.4844 C667.4177,472.4844 668.5739,472.1875 669.3239,471.6406 C669.902,471.2344 670.2302,470.7813 670.2302,470.3906 C670.2302,469.9375 669.8395,469.5469 669.3708,469.5469 C669.152,469.5469 668.9489,469.625 668.7614,469.8125 C668.3083,470.2969 668.3083,470.2969 668.1208,470.3906 C667.6989,470.6563 667.0114,470.7813 666.2458,470.7813 C664.1989,470.7813 662.902,469.6875 662.902,467.9844 L662.902,466.8906 C662.902,465.1094 664.152,463.7969 665.8864,463.7969 C666.4645,463.7969 667.0739,463.9531 667.5427,464.2031 C668.027,464.4844 668.1989,464.7031 668.2927,465.1094 C668.3552,465.5156 668.3864,465.6406 668.527,465.7656 C668.6677,465.9063 668.902,466.0156 669.1208,466.0156 C669.3864,466.0156 669.652,465.875 669.8239,465.6563 C669.9333,465.5 669.9645,465.3125 669.9645,464.8906 L669.9645,463.4688 C669.9645,463.0313 669.9489,462.9063 669.8552,462.75 C669.6989,462.4844 669.4177,462.3438 669.1208,462.3438 C668.8239,462.3438 668.6208,462.4375 668.402,462.75 L668.2302,462.6719 Z " fill="#000000"/><text fill="#000000" font-family="sans-serif" font-size="14" lengthAdjust="spacing" textLength="197" x="682.6864" y="471.8467">ControlButtonsComponent</text><line style="stroke:#181818;stroke-width:0.5;" x1="639.2864" x2="894.2864" y1="483" y2="483"/><ellipse cx="649.2864" cy="496.6484" fill="none" rx="3" ry="3" style="stroke:#038048;stroke-width:1.0;"/><text fill="#000000" font-family="sans-serif" font-size="14" lengthAdjust="spacing" textLength="165" x="658.2864" y="499.9951">gameRunning: boolean</text><ellipse cx="649.2864" cy="512.9453" fill="none" rx="3" ry="3" style="stroke:#038048;stroke-width:1.0;"/><text fill="#000000" font-family="sans-serif" font-size="14" lengthAdjust="spacing" textLength="137" x="658.2864" y="516.292">initialized: boolean</text><rect fill="none" height="6" style="stroke:#C82930;stroke-width:1.0;" width="6" x="646.2864" y="526.2422"/><text fill="#000000" font-family="sans-serif" font-size="14" lengthAdjust="spacing" textLength="231" x="658.2864" y="532.5889">gameService: GameServiceBase</text><line style="stroke:#181818;stroke-width:0.5;" x1="639.2864" x2="894.2864" y1="539.8906" y2="539.8906"/><ellipse cx="649.2864" cy="553.5391" fill="#84BE84" rx="3" ry="3" style="stroke:#038048;stroke-width:1.0;"/><text fill="#000000" font-family="sans-serif" font-size="14" lengthAdjust="spacing" textLength="126" x="658.2864" y="556.8857">startGame(): void</text><ellipse cx="649.2864" cy="569.8359" fill="#84BE84" rx="3" ry="3" style="stroke:#038048;stroke-width:1.0;"/><text fill="#000000" font-family="sans-serif" font-size="14" lengthAdjust="spacing" textLength="133" x="658.2864" y="573.1826">pauseGame(): void</text><ellipse cx="649.2864" cy="586.1328" fill="#84BE84" rx="3" ry="3" style="stroke:#038048;stroke-width:1.0;"/><text fill="#000000" font-family="sans-serif" font-size="14" lengthAdjust="spacing" textLength="129" x="658.2864" y="589.4795">resetGame(): void</text></g><!--class HandDetectorDirective--><g id="elem_HandDetectorDirective"><rect codeLine="62" fill="#F1F1F1" height="243.5625" id="HandDetectorDirective" rx="2.5" ry="2.5" style="stroke:#181818;stroke-width:0.5;" width="1232" x="930.7864" y="402"/><ellipse cx="1458.5364" cy="418" fill="#ADD1B2" rx="11" ry="11" style="stroke:#181818;stroke-width:1.0;"/><path d="M1460.8802,413.6719 C1459.9427,413.2344 1459.3489,413.0938 1458.4739,413.0938 C1455.8489,413.0938 1453.8489,415.1719 1453.8489,417.8906 L1453.8489,419.0156 C1453.8489,421.5938 1455.9583,423.4844 1458.8489,423.4844 C1460.0677,423.4844 1461.2239,423.1875 1461.9739,422.6406 C1462.552,422.2344 1462.8802,421.7813 1462.8802,421.3906 C1462.8802,420.9375 1462.4895,420.5469 1462.0208,420.5469 C1461.802,420.5469 1461.5989,420.625 1461.4114,420.8125 C1460.9583,421.2969 1460.9583,421.2969 1460.7708,421.3906 C1460.3489,421.6563 1459.6614,421.7813 1458.8958,421.7813 C1456.8489,421.7813 1455.552,420.6875 1455.552,418.9844 L1455.552,417.8906 C1455.552,416.1094 1456.802,414.7969 1458.5364,414.7969 C1459.1145,414.7969 1459.7239,414.9531 1460.1927,415.2031 C1460.677,415.4844 1460.8489,415.7031 1460.9427,416.1094 C1461.0052,416.5156 1461.0364,416.6406 1461.177,416.7656 C1461.3177,416.9063 1461.552,417.0156 1461.7708,417.0156 C1462.0364,417.0156 1462.302,416.875 1462.4739,416.6563 C1462.5833,416.5 1462.6145,416.3125 1462.6145,415.8906 L1462.6145,414.4688 C1462.6145,414.0313 1462.5989,413.9063 1462.5052,413.75 C1462.3489,413.4844 1462.0677,413.3438 1461.7708,413.3438 C1461.4739,413.3438 1461.2708,413.4375 1461.052,413.75 L1460.8802,413.6719 Z " fill="#000000"/><text fill="#000000" font-family="sans-serif" font-size="14" lengthAdjust="spacing" textLength="168" x="1479.0364" y="422.8467">HandDetectorDirective</text><line style="stroke:#181818;stroke-width:0.5;" x1="931.7864" x2="2161.7864" y1="434" y2="434"/><ellipse cx="941.7864" cy="447.6484" fill="none" rx="3" ry="3" style="stroke:#038048;stroke-width:1.0;"/><text fill="#000000" font-family="sans-serif" font-size="14" lengthAdjust="spacing" textLength="315" x="950.7864" y="450.9951">directionChange: EventEmitter&lt;Direction&gt;</text><ellipse cx="941.7864" cy="463.9453" fill="none" rx="3" ry="3" style="stroke:#038048;stroke-width:1.0;"/><text fill="#000000" font-family="sans-serif" font-size="14" lengthAdjust="spacing" textLength="281" x="950.7864" y="467.292">detectorCreated: EventEmitter&lt;void&gt;</text><ellipse cx="941.7864" cy="480.2422" fill="none" rx="3" ry="3" style="stroke:#038048;stroke-width:1.0;"/><text fill="#000000" font-family="sans-serif" font-size="14" lengthAdjust="spacing" textLength="378" x="950.7864" y="483.5889">detector?: handdetection.HandDetector | undefined</text><rect fill="none" height="6" style="stroke:#C82930;stroke-width:1.0;" width="6" x="938.7864" y="493.5391"/><text fill="#000000" font-family="sans-serif" font-size="14" lengthAdjust="spacing" textLength="344" x="950.7864" y="499.8857">elementRef: ElementRef&lt;HTMLVideoElement&gt;</text><rect fill="none" height="6" style="stroke:#C82930;stroke-width:1.0;" width="6" x="938.7864" y="509.8359"/><text fill="#000000" font-family="sans-serif" font-size="14" lengthAdjust="spacing" textLength="100" x="950.7864" y="516.1826">zone: NgZone</text><line style="stroke:#181818;stroke-width:0.5;" x1="931.7864" x2="2161.7864" y1="523.4844" y2="523.4844"/><ellipse cx="941.7864" cy="537.1328" fill="#84BE84" rx="3" ry="3" style="stroke:#038048;stroke-width:1.0;"/><text fill="#000000" font-family="sans-serif" font-size="14" lengthAdjust="spacing" textLength="144" x="950.7864" y="540.4795">ngOnDestroy(): void</text><ellipse cx="941.7864" cy="553.4297" fill="#84BE84" rx="3" ry="3" style="stroke:#038048;stroke-width:1.0;"/><text fill="#000000" font-family="sans-serif" font-size="14" lengthAdjust="spacing" textLength="162" x="950.7864" y="556.7764">createDetector(): void</text><rect fill="#F24D5C" height="6" style="stroke:#C82930;stroke-width:1.0;" width="6" x="938.7864" y="566.7266"/><text fill="#000000" font-family="sans-serif" font-size="14" lengthAdjust="spacing" textLength="145" x="950.7864" y="573.0732">runDetection(): void</text><rect fill="#F24D5C" height="6" style="stroke:#C82930;stroke-width:1.0;" width="6" x="938.7864" y="583.0234"/><text fill="#000000" font-family="sans-serif" font-size="14" lengthAdjust="spacing" textLength="691" x="950.7864" y="589.3701">getHandDirection(keypoints: handdetection.Keypoint[], curledFingers: FingerName[]): Direction</text><rect fill="#F24D5C" height="6" style="stroke:#C82930;stroke-width:1.0;" width="6" x="938.7864" y="599.3203"/><text fill="#000000" font-family="sans-serif" font-size="14" lengthAdjust="spacing" textLength="590" x="950.7864" y="605.667">calculateCenterPoint(points: handdetection.Keypoint[]): handdetection.Keypoint</text><rect fill="#F24D5C" height="6" style="stroke:#C82930;stroke-width:1.0;" width="6" x="938.7864" y="615.6172"/><text fill="#000000" font-family="sans-serif" font-size="14" lengthAdjust="spacing" textLength="1206" x="950.7864" y="621.9639">isFingerCurl(fingerTip?: Keypoint3D | undefined, fingerDip?: Keypoint3D | undefined, fingerPip?: Keypoint3D | undefined, fingerMcp?: Keypoint3D | undefined): boolean</text><rect fill="#F24D5C" height="6" style="stroke:#C82930;stroke-width:1.0;" width="6" x="938.7864" y="631.9141"/><text fill="#000000" font-family="sans-serif" font-size="14" lengthAdjust="spacing" textLength="429" x="950.7864" y="638.2607">estimateCurledFingers(points: Keypoint3D[]): FingerName[]</text></g><!--class OnDestroy--><g id="elem_OnDestroy"><rect fill="#F1F1F1" height="48" id="OnDestroy" rx="2.5" ry="2.5" style="stroke:#181818;stroke-width:0.5;" width="107" x="1604.2894" y="31.5"/><ellipse cx="1619.2894" cy="47.5" fill="#B4A7E5" rx="11" ry="11" style="stroke:#181818;stroke-width:1.0;"/><path d="M1620.2425,44.2813 L1621.9613,44.2813 C1622.3519,44.2813 1622.5394,44.25 1622.6644,44.1719 C1622.93,44.0156 1623.0707,43.7344 1623.0707,43.4375 C1623.0707,43.1719 1622.9613,42.9063 1622.7269,42.7344 C1622.555,42.625 1622.4144,42.5938 1621.9613,42.5938 L1616.8207,42.5938 C1616.3832,42.5938 1616.2582,42.6094 1616.1019,42.7031 C1615.8519,42.8594 1615.6957,43.1563 1615.6957,43.4375 C1615.6957,43.7188 1615.8363,43.9688 1616.055,44.1406 C1616.2113,44.25 1616.3988,44.2813 1616.8207,44.2813 L1618.5394,44.2813 L1618.5394,50.7969 L1616.8207,50.7969 C1616.3832,50.7969 1616.2582,50.8125 1616.1019,50.9219 C1615.8519,51.0781 1615.6957,51.3594 1615.6957,51.6563 C1615.6957,51.9063 1615.8363,52.1719 1616.055,52.3281 C1616.2113,52.4531 1616.4144,52.5 1616.8207,52.5 L1621.9613,52.5 C1622.7113,52.5 1623.0707,52.2188 1623.0707,51.6563 C1623.0707,51.375 1622.9613,51.125 1622.7269,50.9531 C1622.555,50.8281 1622.4144,50.7969 1621.9613,50.7969 L1620.2425,50.7969 L1620.2425,44.2813 Z " fill="#000000"/><text fill="#000000" font-family="sans-serif" font-size="14" font-style="italic" lengthAdjust="spacing" textLength="75" x="1633.2894" y="52.3467">OnDestroy</text><line style="stroke:#181818;stroke-width:0.5;" x1="1605.2894" x2="1710.2894" y1="63.5" y2="63.5"/><line style="stroke:#181818;stroke-width:0.5;" x1="1605.2894" x2="1710.2894" y1="71.5" y2="71.5"/></g><!--class NavigatorRef--><g id="elem_NavigatorRef"><rect codeLine="76" fill="#F1F1F1" height="64.2969" id="NavigatorRef" rx="2.5" ry="2.5" style="stroke:#181818;stroke-width:0.5;" width="218" x="2375.7894" y="23.5"/><ellipse cx="2434.0394" cy="39.5" fill="#A9DCDF" rx="11" ry="11" style="stroke:#181818;stroke-width:1.0;"/><path d="M2436.1175,41.3125 L2436.5082,42.2969 L2436.1175,42.2969 C2435.6644,42.2969 2435.555,42.3125 2435.3988,42.4219 C2435.1488,42.5781 2434.9925,42.8594 2434.9925,43.1563 C2434.9925,43.4219 2435.1332,43.6719 2435.3519,43.8281 C2435.4925,43.9531 2435.6957,44 2436.1175,44 L2438.4769,44 C2438.8363,44 2439.055,43.9688 2439.1957,43.875 C2439.4457,43.7344 2439.6019,43.4375 2439.6019,43.1563 C2439.6019,42.875 2439.4613,42.625 2439.2425,42.4688 C2439.0707,42.3281 2438.9144,42.2969 2438.4457,42.2969 L2435.055,34.0938 L2431.3832,34.0938 C2430.93,34.0938 2430.805,34.1094 2430.6488,34.2031 C2430.3988,34.375 2430.2425,34.6563 2430.2425,34.9375 C2430.2425,35.2188 2430.3832,35.4688 2430.6019,35.6406 C2430.7738,35.75 2430.9457,35.7813 2431.3832,35.7813 L2432.4613,35.7813 L2429.8207,42.2969 C2429.3988,42.2969 2429.2425,42.3125 2429.0863,42.4219 C2428.8363,42.5781 2428.68,42.8594 2428.68,43.1563 C2428.68,43.7188 2429.055,44 2429.805,44 L2432.0707,44 C2432.43,44 2432.6488,43.9688 2432.7738,43.875 C2433.0394,43.7344 2433.18,43.4375 2433.18,43.1563 C2433.18,42.875 2433.055,42.625 2432.8363,42.4531 C2432.6644,42.3281 2432.5238,42.2969 2432.0707,42.2969 L2431.68,42.2969 L2432.0707,41.3125 L2436.1175,41.3125 Z M2435.4144,39.6094 L2432.7425,39.6094 L2434.0863,36.3438 L2435.4144,39.6094 Z " fill="#000000"/><text fill="#000000" font-family="sans-serif" font-size="14" font-style="italic" lengthAdjust="spacing" textLength="93" x="2454.5394" y="44.3467">NavigatorRef</text><line style="stroke:#181818;stroke-width:0.5;" x1="2376.7894" x2="2592.7894" y1="55.5" y2="55.5"/><ellipse cx="2386.7894" cy="69.1484" fill="none" rx="3" ry="3" style="stroke:#038048;stroke-width:1.0;"/><text fill="#000000" font-family="sans-serif" font-size="14" lengthAdjust="spacing" textLength="192" x="2395.7894" y="72.4951">nativeNavigator: Navigator</text><line style="stroke:#181818;stroke-width:0.5;" x1="2376.7894" x2="2592.7894" y1="79.7969" y2="79.7969"/></g><!--class BrowserNavigatorRef--><g id="elem_BrowserNavigatorRef"><rect codeLine="79" fill="#F1F1F1" height="64.2969" id="BrowserNavigatorRef" rx="2.5" ry="2.5" style="stroke:#181818;stroke-width:0.5;" width="218" x="2375.7894" y="221"/><ellipse cx="2406.0894" cy="237" fill="#ADD1B2" rx="11" ry="11" style="stroke:#181818;stroke-width:1.0;"/><path d="M2408.4332,232.6719 C2407.4957,232.2344 2406.9019,232.0938 2406.0269,232.0938 C2403.4019,232.0938 2401.4019,234.1719 2401.4019,236.8906 L2401.4019,238.0156 C2401.4019,240.5938 2403.5113,242.4844 2406.4019,242.4844 C2407.6207,242.4844 2408.7769,242.1875 2409.5269,241.6406 C2410.105,241.2344 2410.4332,240.7813 2410.4332,240.3906 C2410.4332,239.9375 2410.0425,239.5469 2409.5738,239.5469 C2409.355,239.5469 2409.1519,239.625 2408.9644,239.8125 C2408.5113,240.2969 2408.5113,240.2969 2408.3238,240.3906 C2407.9019,240.6563 2407.2144,240.7813 2406.4488,240.7813 C2404.4019,240.7813 2403.105,239.6875 2403.105,237.9844 L2403.105,236.8906 C2403.105,235.1094 2404.355,233.7969 2406.0894,233.7969 C2406.6675,233.7969 2407.2769,233.9531 2407.7457,234.2031 C2408.23,234.4844 2408.4019,234.7031 2408.4957,235.1094 C2408.5582,235.5156 2408.5894,235.6406 2408.73,235.7656 C2408.8707,235.9063 2409.105,236.0156 2409.3238,236.0156 C2409.5894,236.0156 2409.855,235.875 2410.0269,235.6563 C2410.1363,235.5 2410.1675,235.3125 2410.1675,234.8906 L2410.1675,233.4688 C2410.1675,233.0313 2410.1519,232.9063 2410.0582,232.75 C2409.9019,232.4844 2409.6207,232.3438 2409.3238,232.3438 C2409.0269,232.3438 2408.8238,232.4375 2408.605,232.75 L2408.4332,232.6719 Z " fill="#000000"/><text fill="#000000" font-family="sans-serif" font-size="14" lengthAdjust="spacing" textLength="152" x="2423.4894" y="241.8467">BrowserNavigatorRef</text><line style="stroke:#181818;stroke-width:0.5;" x1="2376.7894" x2="2592.7894" y1="253" y2="253"/><ellipse cx="2386.7894" cy="266.6484" fill="none" rx="3" ry="3" style="stroke:#038048;stroke-width:1.0;"/><text fill="#000000" font-family="sans-serif" font-size="14" lengthAdjust="spacing" textLength="192" x="2395.7894" y="269.9951">nativeNavigator: Navigator</text><line style="stroke:#181818;stroke-width:0.5;" x1="2376.7894" x2="2592.7894" y1="277.2969" y2="277.2969"/></g><!--class CameraFeedDirective--><g id="elem_CameraFeedDirective"><rect codeLine="82" fill="#F1F1F1" height="178.375" id="CameraFeedDirective" rx="2.5" ry="2.5" style="stroke:#181818;stroke-width:0.5;" width="370" x="1970.7894" y="164"/><ellipse cx="2073.5394" cy="180" fill="#ADD1B2" rx="11" ry="11" style="stroke:#181818;stroke-width:1.0;"/><path d="M2075.8832,175.6719 C2074.9457,175.2344 2074.3519,175.0938 2073.4769,175.0938 C2070.8519,175.0938 2068.8519,177.1719 2068.8519,179.8906 L2068.8519,181.0156 C2068.8519,183.5938 2070.9613,185.4844 2073.8519,185.4844 C2075.0707,185.4844 2076.2269,185.1875 2076.9769,184.6406 C2077.555,184.2344 2077.8832,183.7813 2077.8832,183.3906 C2077.8832,182.9375 2077.4925,182.5469 2077.0238,182.5469 C2076.805,182.5469 2076.6019,182.625 2076.4144,182.8125 C2075.9613,183.2969 2075.9613,183.2969 2075.7738,183.3906 C2075.3519,183.6563 2074.6644,183.7813 2073.8988,183.7813 C2071.8519,183.7813 2070.555,182.6875 2070.555,180.9844 L2070.555,179.8906 C2070.555,178.1094 2071.805,176.7969 2073.5394,176.7969 C2074.1175,176.7969 2074.7269,176.9531 2075.1957,177.2031 C2075.68,177.4844 2075.8519,177.7031 2075.9457,178.1094 C2076.0082,178.5156 2076.0394,178.6406 2076.18,178.7656 C2076.3207,178.9063 2076.555,179.0156 2076.7738,179.0156 C2077.0394,179.0156 2077.305,178.875 2077.4769,178.6563 C2077.5863,178.5 2077.6175,178.3125 2077.6175,177.8906 L2077.6175,176.4688 C2077.6175,176.0313 2077.6019,175.9063 2077.5082,175.75 C2077.3519,175.4844 2077.0707,175.3438 2076.7738,175.3438 C2076.4769,175.3438 2076.2738,175.4375 2076.055,175.75 L2075.8832,175.6719 Z " fill="#000000"/><text fill="#000000" font-family="sans-serif" font-size="14" lengthAdjust="spacing" textLength="156" x="2094.0394" y="184.8467">CameraFeedDirective</text><line style="stroke:#181818;stroke-width:0.5;" x1="1971.7894" x2="2339.7894" y1="196" y2="196"/><ellipse cx="1981.7894" cy="209.6484" fill="none" rx="3" ry="3" style="stroke:#038048;stroke-width:1.0;"/><text fill="#000000" font-family="sans-serif" font-size="14" lengthAdjust="spacing" textLength="305" x="1990.7894" y="212.9951">cameraFeedCreated: EventEmitter&lt;void&gt;</text><ellipse cx="1981.7894" cy="225.9453" fill="none" rx="3" ry="3" style="stroke:#038048;stroke-width:1.0;"/><text fill="#000000" font-family="sans-serif" font-size="14" lengthAdjust="spacing" textLength="129" x="1990.7894" y="229.292">autoplay: boolean</text><ellipse cx="1981.7894" cy="242.2422" fill="none" rx="3" ry="3" style="stroke:#038048;stroke-width:1.0;"/><text fill="#000000" font-family="sans-serif" font-size="14" lengthAdjust="spacing" textLength="114" x="1990.7894" y="245.5889">muted: boolean</text><ellipse cx="1981.7894" cy="258.5391" fill="none" rx="3" ry="3" style="stroke:#038048;stroke-width:1.0;"/><text fill="#000000" font-family="sans-serif" font-size="14" lengthAdjust="spacing" textLength="143" x="1990.7894" y="261.8857">playsinline: boolean</text><rect fill="none" height="6" style="stroke:#C82930;stroke-width:1.0;" width="6" x="1978.7894" y="271.8359"/><text fill="#000000" font-family="sans-serif" font-size="14" lengthAdjust="spacing" textLength="344" x="1990.7894" y="278.1826">elementRef: ElementRef&lt;HTMLVideoElement&gt;</text><rect fill="none" height="6" style="stroke:#C82930;stroke-width:1.0;" width="6" x="1978.7894" y="288.1328"/><text fill="#000000" font-family="sans-serif" font-size="14" lengthAdjust="spacing" textLength="146" x="1990.7894" y="294.4795">navigator: Navigator</text><rect fill="none" height="6" style="stroke:#C82930;stroke-width:1.0;" width="6" x="1978.7894" y="304.4297"/><text fill="#000000" font-family="sans-serif" font-size="14" lengthAdjust="spacing" textLength="100" x="1990.7894" y="310.7764">zone: NgZone</text><line style="stroke:#181818;stroke-width:0.5;" x1="1971.7894" x2="2339.7894" y1="318.0781" y2="318.0781"/><ellipse cx="1981.7894" cy="331.7266" fill="#84BE84" rx="3" ry="3" style="stroke:#038048;stroke-width:1.0;"/><text fill="#000000" font-family="sans-serif" font-size="14" lengthAdjust="spacing" textLength="144" x="1990.7894" y="335.0732">ngOnDestroy(): void</text></g><!--class WebcamComponent--><g id="elem_WebcamComponent"><rect codeLine="92" fill="#F1F1F1" height="227.2656" id="WebcamComponent" rx="2.5" ry="2.5" style="stroke:#181818;stroke-width:0.5;" width="411" x="120.2867" y="410.5"/><ellipse cx="247.0367" cy="426.5" fill="#ADD1B2" rx="11" ry="11" style="stroke:#181818;stroke-width:1.0;"/><path d="M249.3805,422.1719 C248.443,421.7344 247.8492,421.5938 246.9742,421.5938 C244.3492,421.5938 242.3492,423.6719 242.3492,426.3906 L242.3492,427.5156 C242.3492,430.0938 244.4586,431.9844 247.3492,431.9844 C248.568,431.9844 249.7242,431.6875 250.4742,431.1406 C251.0523,430.7344 251.3805,430.2813 251.3805,429.8906 C251.3805,429.4375 250.9898,429.0469 250.5211,429.0469 C250.3023,429.0469 250.0992,429.125 249.9117,429.3125 C249.4586,429.7969 249.4586,429.7969 249.2711,429.8906 C248.8492,430.1563 248.1617,430.2813 247.3961,430.2813 C245.3492,430.2813 244.0523,429.1875 244.0523,427.4844 L244.0523,426.3906 C244.0523,424.6094 245.3023,423.2969 247.0367,423.2969 C247.6148,423.2969 248.2242,423.4531 248.693,423.7031 C249.1773,423.9844 249.3492,424.2031 249.443,424.6094 C249.5055,425.0156 249.5367,425.1406 249.6773,425.2656 C249.818,425.4063 250.0523,425.5156 250.2711,425.5156 C250.5367,425.5156 250.8023,425.375 250.9742,425.1563 C251.0836,425 251.1148,424.8125 251.1148,424.3906 L251.1148,422.9688 C251.1148,422.5313 251.0992,422.4063 251.0055,422.25 C250.8492,421.9844 250.568,421.8438 250.2711,421.8438 C249.9742,421.8438 249.7711,421.9375 249.5523,422.25 L249.3805,422.1719 Z " fill="#000000"/><text fill="#000000" font-family="sans-serif" font-size="14" lengthAdjust="spacing" textLength="149" x="267.5367" y="431.3467">WebcamComponent</text><line style="stroke:#181818;stroke-width:0.5;" x1="121.2867" x2="530.2867" y1="442.5" y2="442.5"/><rect fill="none" height="6" style="stroke:#C82930;stroke-width:1.0;" width="6" x="128.2867" y="453.1484"/><text fill="#000000" font-family="sans-serif" font-size="14" lengthAdjust="spacing" textLength="281" x="140.2867" y="459.4951">cameraFeedInitializedInternal: boolean</text><rect fill="none" height="6" style="stroke:#C82930;stroke-width:1.0;" width="6" x="128.2867" y="469.4453"/><text fill="#000000" font-family="sans-serif" font-size="14" lengthAdjust="spacing" textLength="294" x="140.2867" y="475.792">handDetectorInitializedInternal: boolean</text><rect fill="none" height="6" style="stroke:#C82930;stroke-width:1.0;" width="6" x="128.2867" y="485.7422"/><text fill="#000000" font-family="sans-serif" font-size="14" lengthAdjust="spacing" textLength="365" x="140.2867" y="492.0889">estimatedDirectionInternal?: Direction | undefined</text><ellipse cx="131.2867" cy="505.0391" fill="none" rx="3" ry="3" style="stroke:#038048;stroke-width:1.0;"/><text fill="#000000" font-family="sans-serif" font-size="14" lengthAdjust="spacing" textLength="384" x="140.2867" y="508.3857">detectedDirectionChange: EventEmitter&lt;Direction&gt;</text><ellipse cx="131.2867" cy="521.3359" fill="none" rx="3" ry="3" style="stroke:#038048;stroke-width:1.0;"/><text fill="#000000" font-family="sans-serif" font-size="14" lengthAdjust="spacing" textLength="302" x="140.2867" y="524.6826">estimatedDirection: Direction | undefined</text><ellipse cx="131.2867" cy="537.6328" fill="none" rx="3" ry="3" style="stroke:#038048;stroke-width:1.0;"/><text fill="#000000" font-family="sans-serif" font-size="14" lengthAdjust="spacing" textLength="225" x="140.2867" y="540.9795">cameraFeedInitialized: boolean</text><ellipse cx="131.2867" cy="553.9297" fill="none" rx="3" ry="3" style="stroke:#038048;stroke-width:1.0;"/><text fill="#000000" font-family="sans-serif" font-size="14" lengthAdjust="spacing" textLength="238" x="140.2867" y="557.2764">handDetectorInitialized: boolean</text><rect fill="none" height="6" style="stroke:#C82930;stroke-width:1.0;" width="6" x="128.2867" y="567.2266"/><text fill="#000000" font-family="sans-serif" font-size="14" lengthAdjust="spacing" textLength="231" x="140.2867" y="573.5732">gameService: GameServiceBase</text><line style="stroke:#181818;stroke-width:0.5;" x1="121.2867" x2="530.2867" y1="580.875" y2="580.875"/><ellipse cx="131.2867" cy="594.5234" fill="#84BE84" rx="3" ry="3" style="stroke:#038048;stroke-width:1.0;"/><text fill="#000000" font-family="sans-serif" font-size="14" lengthAdjust="spacing" textLength="385" x="140.2867" y="597.8701">estimatedDirectionChange(direction: Direction): void</text><ellipse cx="131.2867" cy="610.8203" fill="#84BE84" rx="3" ry="3" style="stroke:#038048;stroke-width:1.0;"/><text fill="#000000" font-family="sans-serif" font-size="14" lengthAdjust="spacing" textLength="171" x="140.2867" y="614.167">detectorCreated(): void</text><ellipse cx="131.2867" cy="627.1172" fill="#84BE84" rx="3" ry="3" style="stroke:#038048;stroke-width:1.0;"/><text fill="#000000" font-family="sans-serif" font-size="14" lengthAdjust="spacing" textLength="195" x="140.2867" y="630.4639">cameraFeedCreated(): void</text></g><!--class InstructionsComponent--><g id="elem_InstructionsComponent"><rect codeLine="105" fill="#F1F1F1" height="259.8594" id="InstructionsComponent" rx="2.5" ry="2.5" style="stroke:#181818;stroke-width:0.5;" width="369" x="892.2864" y="1091"/><ellipse cx="987.0364" cy="1107" fill="#ADD1B2" rx="11" ry="11" style="stroke:#181818;stroke-width:1.0;"/><path d="M989.3802,1102.6719 C988.4427,1102.2344 987.8489,1102.0938 986.9739,1102.0938 C984.3489,1102.0938 982.3489,1104.1719 982.3489,1106.8906 L982.3489,1108.0156 C982.3489,1110.5938 984.4583,1112.4844 987.3489,1112.4844 C988.5677,1112.4844 989.7239,1112.1875 990.4739,1111.6406 C991.052,1111.2344 991.3802,1110.7813 991.3802,1110.3906 C991.3802,1109.9375 990.9895,1109.5469 990.5208,1109.5469 C990.302,1109.5469 990.0989,1109.625 989.9114,1109.8125 C989.4583,1110.2969 989.4583,1110.2969 989.2708,1110.3906 C988.8489,1110.6563 988.1614,1110.7813 987.3958,1110.7813 C985.3489,1110.7813 984.052,1109.6875 984.052,1107.9844 L984.052,1106.8906 C984.052,1105.1094 985.302,1103.7969 987.0364,1103.7969 C987.6145,1103.7969 988.2239,1103.9531 988.6927,1104.2031 C989.177,1104.4844 989.3489,1104.7031 989.4427,1105.1094 C989.5052,1105.5156 989.5364,1105.6406 989.677,1105.7656 C989.8177,1105.9063 990.052,1106.0156 990.2708,1106.0156 C990.5364,1106.0156 990.802,1105.875 990.9739,1105.6563 C991.0833,1105.5 991.1145,1105.3125 991.1145,1104.8906 L991.1145,1103.4688 C991.1145,1103.0313 991.0989,1102.9063 991.0052,1102.75 C990.8489,1102.4844 990.5677,1102.3438 990.2708,1102.3438 C989.9739,1102.3438 989.7708,1102.4375 989.552,1102.75 L989.3802,1102.6719 Z " fill="#000000"/><text fill="#000000" font-family="sans-serif" font-size="14" lengthAdjust="spacing" textLength="171" x="1007.5364" y="1111.8467">InstructionsComponent</text><line style="stroke:#181818;stroke-width:0.5;" x1="893.2864" x2="1260.2864" y1="1123" y2="1123"/><rect fill="none" height="6" style="stroke:#C82930;stroke-width:1.0;" width="6" x="900.2864" y="1133.6484"/><text fill="#000000" font-family="sans-serif" font-size="14" lengthAdjust="spacing" textLength="252" x="912.2864" y="1139.9951">controlsInitializedInternal: boolean</text><rect fill="none" height="6" style="stroke:#C82930;stroke-width:1.0;" width="6" x="900.2864" y="1149.9453"/><text fill="#000000" font-family="sans-serif" font-size="14" lengthAdjust="spacing" textLength="244" x="912.2864" y="1156.292">creditsExpandedInternal: boolean</text><rect fill="none" height="6" style="stroke:#C82930;stroke-width:1.0;" width="6" x="900.2864" y="1166.2422"/><text fill="#000000" font-family="sans-serif" font-size="14" lengthAdjust="spacing" textLength="343" x="912.2864" y="1172.5889">scrollContainer?: ElementRef&lt;any&gt; | undefined</text><ellipse cx="903.2864" cy="1185.5391" fill="none" rx="3" ry="3" style="stroke:#038048;stroke-width:1.0;"/><text fill="#000000" font-family="sans-serif" font-size="14" lengthAdjust="spacing" textLength="279" x="912.2864" y="1188.8857">scrollHeight: SettableSignal&lt;number&gt;</text><ellipse cx="903.2864" cy="1201.8359" fill="none" rx="3" ry="3" style="stroke:#038048;stroke-width:1.0;"/><text fill="#000000" font-family="sans-serif" font-size="14" lengthAdjust="spacing" textLength="281" x="912.2864" y="1205.1826">closeInstructions: EventEmitter&lt;void&gt;</text><ellipse cx="903.2864" cy="1218.1328" fill="none" rx="3" ry="3" style="stroke:#038048;stroke-width:1.0;"/><text fill="#000000" font-family="sans-serif" font-size="14" lengthAdjust="spacing" textLength="111" x="912.2864" y="1221.4795">modal: boolean</text><ellipse cx="903.2864" cy="1234.4297" fill="none" rx="3" ry="3" style="stroke:#038048;stroke-width:1.0;"/><text fill="#000000" font-family="sans-serif" font-size="14" lengthAdjust="spacing" textLength="196" x="912.2864" y="1237.7764">controlsInitialized: boolean</text><ellipse cx="903.2864" cy="1250.7266" fill="none" rx="3" ry="3" style="stroke:#038048;stroke-width:1.0;"/><text fill="#000000" font-family="sans-serif" font-size="14" lengthAdjust="spacing" textLength="188" x="912.2864" y="1254.0732">creditsExpanded: boolean</text><line style="stroke:#181818;stroke-width:0.5;" x1="893.2864" x2="1260.2864" y1="1261.375" y2="1261.375"/><ellipse cx="903.2864" cy="1275.0234" fill="#84BE84" rx="3" ry="3" style="stroke:#038048;stroke-width:1.0;"/><text fill="#000000" font-family="sans-serif" font-size="14" lengthAdjust="spacing" textLength="86" x="912.2864" y="1278.3701">close(): void</text><ellipse cx="903.2864" cy="1291.3203" fill="#84BE84" rx="3" ry="3" style="stroke:#038048;stroke-width:1.0;"/><text fill="#000000" font-family="sans-serif" font-size="14" lengthAdjust="spacing" textLength="309" x="912.2864" y="1294.667">directionChange(direction: Direction): void</text><ellipse cx="903.2864" cy="1307.6172" fill="#84BE84" rx="3" ry="3" style="stroke:#038048;stroke-width:1.0;"/><text fill="#000000" font-family="sans-serif" font-size="14" lengthAdjust="spacing" textLength="79" x="912.2864" y="1310.9639">play(): void</text><ellipse cx="903.2864" cy="1323.9141" fill="#84BE84" rx="3" ry="3" style="stroke:#038048;stroke-width:1.0;"/><text fill="#000000" font-family="sans-serif" font-size="14" lengthAdjust="spacing" textLength="148" x="912.2864" y="1327.2607">toggleCredits(): void</text><ellipse cx="903.2864" cy="1340.2109" fill="#84BE84" rx="3" ry="3" style="stroke:#038048;stroke-width:1.0;"/><text fill="#000000" font-family="sans-serif" font-size="14" lengthAdjust="spacing" textLength="201" x="912.2864" y="1343.5576">creditsSectionShown(): void</text></g><!--class ControllerComponent--><g id="elem_ControllerComponent"><rect codeLine="120" fill="#F1F1F1" height="162.0781" id="ControllerComponent" rx="2.5" ry="2.5" style="stroke:#181818;stroke-width:0.5;" width="335" x="1600.2894" y="172"/><ellipse cx="1684.0394" cy="188" fill="#ADD1B2" rx="11" ry="11" style="stroke:#181818;stroke-width:1.0;"/><path d="M1686.3832,183.6719 C1685.4457,183.2344 1684.8519,183.0938 1683.9769,183.0938 C1681.3519,183.0938 1679.3519,185.1719 1679.3519,187.8906 L1679.3519,189.0156 C1679.3519,191.5938 1681.4613,193.4844 1684.3519,193.4844 C1685.5707,193.4844 1686.7269,193.1875 1687.4769,192.6406 C1688.055,192.2344 1688.3832,191.7813 1688.3832,191.3906 C1688.3832,190.9375 1687.9925,190.5469 1687.5238,190.5469 C1687.305,190.5469 1687.1019,190.625 1686.9144,190.8125 C1686.4613,191.2969 1686.4613,191.2969 1686.2738,191.3906 C1685.8519,191.6563 1685.1644,191.7813 1684.3988,191.7813 C1682.3519,191.7813 1681.055,190.6875 1681.055,188.9844 L1681.055,187.8906 C1681.055,186.1094 1682.305,184.7969 1684.0394,184.7969 C1684.6175,184.7969 1685.2269,184.9531 1685.6957,185.2031 C1686.18,185.4844 1686.3519,185.7031 1686.4457,186.1094 C1686.5082,186.5156 1686.5394,186.6406 1686.68,186.7656 C1686.8207,186.9063 1687.055,187.0156 1687.2738,187.0156 C1687.5394,187.0156 1687.805,186.875 1687.9769,186.6563 C1688.0863,186.5 1688.1175,186.3125 1688.1175,185.8906 L1688.1175,184.4688 C1688.1175,184.0313 1688.1019,183.9063 1688.0082,183.75 C1687.8519,183.4844 1687.5707,183.3438 1687.2738,183.3438 C1686.9769,183.3438 1686.7738,183.4375 1686.555,183.75 L1686.3832,183.6719 Z " fill="#000000"/><text fill="#000000" font-family="sans-serif" font-size="14" lengthAdjust="spacing" textLength="159" x="1704.5394" y="192.8467">ControllerComponent</text><line style="stroke:#181818;stroke-width:0.5;" x1="1601.2894" x2="1934.2894" y1="204" y2="204"/><rect fill="none" height="6" style="stroke:#C82930;stroke-width:1.0;" width="6" x="1608.2894" y="214.6484"/><text fill="#000000" font-family="sans-serif" font-size="14" lengthAdjust="spacing" textLength="197" x="1620.2894" y="220.9951">directionInternal: Direction</text><rect fill="none" height="6" style="stroke:#C82930;stroke-width:1.0;" width="6" x="1608.2894" y="230.9453"/><text fill="#000000" font-family="sans-serif" font-size="14" lengthAdjust="spacing" textLength="202" x="1620.2894" y="237.292">unsubscribe: Subject&lt;void&gt;</text><rect fill="none" height="6" style="stroke:#C82930;stroke-width:1.0;" width="6" x="1608.2894" y="247.2422"/><text fill="#000000" font-family="sans-serif" font-size="14" lengthAdjust="spacing" textLength="115" x="1620.2894" y="253.5889">overlay: Overlay</text><ellipse cx="1611.2894" cy="266.5391" fill="none" rx="3" ry="3" style="stroke:#038048;stroke-width:1.0;"/><text fill="#000000" font-family="sans-serif" font-size="14" lengthAdjust="spacing" textLength="141" x="1620.2894" y="269.8857">direction: Direction</text><line style="stroke:#181818;stroke-width:0.5;" x1="1601.2894" x2="1934.2894" y1="277.1875" y2="277.1875"/><ellipse cx="1611.2894" cy="290.8359" fill="#84BE84" rx="3" ry="3" style="stroke:#038048;stroke-width:1.0;"/><text fill="#000000" font-family="sans-serif" font-size="14" lengthAdjust="spacing" textLength="309" x="1620.2894" y="294.1826">directionChange(direction: Direction): void</text><ellipse cx="1611.2894" cy="307.1328" fill="#84BE84" rx="3" ry="3" style="stroke:#038048;stroke-width:1.0;"/><text fill="#000000" font-family="sans-serif" font-size="14" lengthAdjust="spacing" textLength="170" x="1620.2894" y="310.4795">showInstructions(): void</text><ellipse cx="1611.2894" cy="323.4297" fill="#84BE84" rx="3" ry="3" style="stroke:#038048;stroke-width:1.0;"/><text fill="#000000" font-family="sans-serif" font-size="14" lengthAdjust="spacing" textLength="144" x="1620.2894" y="326.7764">ngOnDestroy(): void</text></g><!--class GameTileComponent--><g id="elem_GameTileComponent"><rect codeLine="129" fill="#F1F1F1" height="96.8906" id="GameTileComponent" rx="2.5" ry="2.5" style="stroke:#181818;stroke-width:0.5;" width="666" x="367.7864" y="7"/><ellipse cx="619.5364" cy="23" fill="#ADD1B2" rx="11" ry="11" style="stroke:#181818;stroke-width:1.0;"/><path d="M621.8802,18.6719 C620.9427,18.2344 620.3489,18.0938 619.4739,18.0938 C616.8489,18.0938 614.8489,20.1719 614.8489,22.8906 L614.8489,24.0156 C614.8489,26.5938 616.9583,28.4844 619.8489,28.4844 C621.0677,28.4844 622.2239,28.1875 622.9739,27.6406 C623.552,27.2344 623.8802,26.7813 623.8802,26.3906 C623.8802,25.9375 623.4895,25.5469 623.0208,25.5469 C622.802,25.5469 622.5989,25.625 622.4114,25.8125 C621.9583,26.2969 621.9583,26.2969 621.7708,26.3906 C621.3489,26.6563 620.6614,26.7813 619.8958,26.7813 C617.8489,26.7813 616.552,25.6875 616.552,23.9844 L616.552,22.8906 C616.552,21.1094 617.802,19.7969 619.5364,19.7969 C620.1145,19.7969 620.7239,19.9531 621.1927,20.2031 C621.677,20.4844 621.8489,20.7031 621.9427,21.1094 C622.0052,21.5156 622.0364,21.6406 622.177,21.7656 C622.3177,21.9063 622.552,22.0156 622.7708,22.0156 C623.0364,22.0156 623.302,21.875 623.4739,21.6563 C623.5833,21.5 623.6145,21.3125 623.6145,20.8906 L623.6145,19.4688 C623.6145,19.0313 623.5989,18.9063 623.5052,18.75 C623.3489,18.4844 623.0677,18.3438 622.7708,18.3438 C622.4739,18.3438 622.2708,18.4375 622.052,18.75 L621.8802,18.6719 Z " fill="#000000"/><text fill="#000000" font-family="sans-serif" font-size="14" lengthAdjust="spacing" textLength="154" x="640.0364" y="27.8467">GameTileComponent</text><line style="stroke:#181818;stroke-width:0.5;" x1="368.7864" x2="1032.7864" y1="39" y2="39"/><ellipse cx="378.7864" cy="52.6484" fill="none" rx="3" ry="3" style="stroke:#038048;stroke-width:1.0;"/><text fill="#000000" font-family="sans-serif" font-size="14" lengthAdjust="spacing" textLength="59" x="387.7864" y="55.9951">tile: Tile</text><ellipse cx="378.7864" cy="68.9453" fill="none" rx="3" ry="3" style="stroke:#038048;stroke-width:1.0;"/><text fill="#000000" font-family="sans-serif" font-size="14" lengthAdjust="spacing" textLength="640" x="387.7864" y="72.292">tileClass: { snake: boolean; 'snake-head': boolean; 'snake-tail': boolean; food: boolean; }</text><ellipse cx="378.7864" cy="85.2422" fill="none" rx="3" ry="3" style="stroke:#038048;stroke-width:1.0;"/><text fill="#000000" font-family="sans-serif" font-size="14" lengthAdjust="spacing" textLength="314" x="387.7864" y="88.5889">rotation: `${number}deg` | null | undefined</text><line style="stroke:#181818;stroke-width:0.5;" x1="368.7864" x2="1032.7864" y1="95.8906" y2="95.8906"/></g><!--class RxjsGameService--><g id="elem_RxjsGameService"><rect codeLine="134" fill="#F1F1F1" height="227.2656" id="RxjsGameService" rx="2.5" ry="2.5" style="stroke:#181818;stroke-width:0.5;" width="351" x="120.2867" y="1107.5"/><ellipse cx="229.5367" cy="1123.5" fill="#ADD1B2" rx="11" ry="11" style="stroke:#181818;stroke-width:1.0;"/><path d="M231.8805,1119.1719 C230.943,1118.7344 230.3492,1118.5938 229.4742,1118.5938 C226.8492,1118.5938 224.8492,1120.6719 224.8492,1123.3906 L224.8492,1124.5156 C224.8492,1127.0938 226.9586,1128.9844 229.8492,1128.9844 C231.068,1128.9844 232.2242,1128.6875 232.9742,1128.1406 C233.5523,1127.7344 233.8805,1127.2813 233.8805,1126.8906 C233.8805,1126.4375 233.4898,1126.0469 233.0211,1126.0469 C232.8023,1126.0469 232.5992,1126.125 232.4117,1126.3125 C231.9586,1126.7969 231.9586,1126.7969 231.7711,1126.8906 C231.3492,1127.1563 230.6617,1127.2813 229.8961,1127.2813 C227.8492,1127.2813 226.5523,1126.1875 226.5523,1124.4844 L226.5523,1123.3906 C226.5523,1121.6094 227.8023,1120.2969 229.5367,1120.2969 C230.1148,1120.2969 230.7242,1120.4531 231.193,1120.7031 C231.6773,1120.9844 231.8492,1121.2031 231.943,1121.6094 C232.0055,1122.0156 232.0367,1122.1406 232.1773,1122.2656 C232.318,1122.4063 232.5523,1122.5156 232.7711,1122.5156 C233.0367,1122.5156 233.3023,1122.375 233.4742,1122.1563 C233.5836,1122 233.6148,1121.8125 233.6148,1121.3906 L233.6148,1119.9688 C233.6148,1119.5313 233.5992,1119.4063 233.5055,1119.25 C233.3492,1118.9844 233.068,1118.8438 232.7711,1118.8438 C232.4742,1118.8438 232.2711,1118.9375 232.0523,1119.25 L231.8805,1119.1719 Z " fill="#000000"/><text fill="#000000" font-family="sans-serif" font-size="14" lengthAdjust="spacing" textLength="124" x="250.0367" y="1128.3467">RxjsGameService</text><line style="stroke:#181818;stroke-width:0.5;" x1="121.2867" x2="470.2867" y1="1139.5" y2="1139.5"/><rect fill="none" height="6" style="stroke:#C82930;stroke-width:1.0;" width="6" x="128.2867" y="1150.1484"/><text fill="#000000" font-family="sans-serif" font-size="14" lengthAdjust="spacing" textLength="318" x="140.2867" y="1156.4951">stateSource: BehaviorSubject&lt;GameState&gt;</text><rect fill="none" height="6" style="stroke:#C82930;stroke-width:1.0;" width="6" x="128.2867" y="1166.4453"/><text fill="#000000" font-family="sans-serif" font-size="14" lengthAdjust="spacing" textLength="316" x="140.2867" y="1172.792">gridSizeSource: BehaviorSubject&lt;GridSize&gt;</text><ellipse cx="131.2867" cy="1185.7422" fill="none" rx="3" ry="3" style="stroke:#038048;stroke-width:1.0;"/><text fill="#000000" font-family="sans-serif" font-size="14" lengthAdjust="spacing" textLength="241" x="140.2867" y="1189.0889">state$: Observable&lt;GameState&gt;</text><ellipse cx="131.2867" cy="1202.0391" fill="none" rx="3" ry="3" style="stroke:#038048;stroke-width:1.0;"/><text fill="#000000" font-family="sans-serif" font-size="14" lengthAdjust="spacing" textLength="239" x="140.2867" y="1205.3857">gridSize$: Observable&lt;GridSize&gt;</text><rect fill="none" height="6" style="stroke:#C82930;stroke-width:1.0;" width="6" x="128.2867" y="1215.3359"/><text fill="#000000" font-family="sans-serif" font-size="14" lengthAdjust="spacing" textLength="100" x="140.2867" y="1221.6826">zone: NgZone</text><line style="stroke:#181818;stroke-width:0.5;" x1="121.2867" x2="470.2867" y1="1228.9844" y2="1228.9844"/><ellipse cx="131.2867" cy="1242.6328" fill="#84BE84" rx="3" ry="3" style="stroke:#038048;stroke-width:1.0;"/><text fill="#000000" font-family="sans-serif" font-size="14" lengthAdjust="spacing" textLength="325" x="140.2867" y="1245.9795">setup(config?: GameConfig | undefined): void</text><ellipse cx="131.2867" cy="1258.9297" fill="#84BE84" rx="3" ry="3" style="stroke:#038048;stroke-width:1.0;"/><text fill="#000000" font-family="sans-serif" font-size="14" lengthAdjust="spacing" textLength="84" x="140.2867" y="1262.2764">start(): void</text><ellipse cx="131.2867" cy="1275.2266" fill="#84BE84" rx="3" ry="3" style="stroke:#038048;stroke-width:1.0;"/><text fill="#000000" font-family="sans-serif" font-size="14" lengthAdjust="spacing" textLength="280" x="140.2867" y="1278.5732">setDirection(direction: Direction): void</text><ellipse cx="131.2867" cy="1291.5234" fill="#84BE84" rx="3" ry="3" style="stroke:#038048;stroke-width:1.0;"/><text fill="#000000" font-family="sans-serif" font-size="14" lengthAdjust="spacing" textLength="91" x="140.2867" y="1294.8701">pause(): void</text><rect fill="#F24D5C" height="6" style="stroke:#C82930;stroke-width:1.0;" width="6" x="128.2867" y="1304.8203"/><text fill="#000000" font-family="sans-serif" font-size="14" lengthAdjust="spacing" textLength="222" x="140.2867" y="1311.167">tick(timestamp: number): void</text><rect fill="#F24D5C" height="6" style="stroke:#C82930;stroke-width:1.0;" width="6" x="128.2867" y="1321.1172"/><text fill="#000000" font-family="sans-serif" font-size="14" lengthAdjust="spacing" textLength="133" x="140.2867" y="1327.4639">moveSnake(): void</text></g><!--class RxjsGameBoardComponent--><g id="elem_RxjsGameBoardComponent"><rect codeLine="147" fill="#F1F1F1" height="113.1875" id="RxjsGameBoardComponent" rx="2.5" ry="2.5" style="stroke:#181818;stroke-width:0.5;" width="279" x="138.2867" y="812"/><ellipse cx="174.8867" cy="828" fill="#ADD1B2" rx="11" ry="11" style="stroke:#181818;stroke-width:1.0;"/><path d="M177.2305,823.6719 C176.293,823.2344 175.6992,823.0938 174.8242,823.0938 C172.1992,823.0938 170.1992,825.1719 170.1992,827.8906 L170.1992,829.0156 C170.1992,831.5938 172.3086,833.4844 175.1992,833.4844 C176.418,833.4844 177.5742,833.1875 178.3242,832.6406 C178.9023,832.2344 179.2305,831.7813 179.2305,831.3906 C179.2305,830.9375 178.8398,830.5469 178.3711,830.5469 C178.1523,830.5469 177.9492,830.625 177.7617,830.8125 C177.3086,831.2969 177.3086,831.2969 177.1211,831.3906 C176.6992,831.6563 176.0117,831.7813 175.2461,831.7813 C173.1992,831.7813 171.9023,830.6875 171.9023,828.9844 L171.9023,827.8906 C171.9023,826.1094 173.1523,824.7969 174.8867,824.7969 C175.4648,824.7969 176.0742,824.9531 176.543,825.2031 C177.0273,825.4844 177.1992,825.7031 177.293,826.1094 C177.3555,826.5156 177.3867,826.6406 177.5273,826.7656 C177.668,826.9063 177.9023,827.0156 178.1211,827.0156 C178.3867,827.0156 178.6523,826.875 178.8242,826.6563 C178.9336,826.5 178.9648,826.3125 178.9648,825.8906 L178.9648,824.4688 C178.9648,824.0313 178.9492,823.9063 178.8555,823.75 C178.6992,823.4844 178.418,823.3438 178.1211,823.3438 C177.8242,823.3438 177.6211,823.4375 177.4023,823.75 L177.2305,823.6719 Z " fill="#000000"/><text fill="#000000" font-family="sans-serif" font-size="14" lengthAdjust="spacing" textLength="199" x="193.6867" y="832.8467">RxjsGameBoardComponent</text><line style="stroke:#181818;stroke-width:0.5;" x1="139.2867" x2="416.2867" y1="844" y2="844"/><ellipse cx="149.2867" cy="857.6484" fill="none" rx="3" ry="3" style="stroke:#038048;stroke-width:1.0;"/><text fill="#000000" font-family="sans-serif" font-size="14" lengthAdjust="spacing" textLength="188" x="158.2867" y="860.9951">tiles$: Observable&lt;Tile[]&gt;</text><ellipse cx="149.2867" cy="873.9453" fill="none" rx="3" ry="3" style="stroke:#038048;stroke-width:1.0;"/><text fill="#000000" font-family="sans-serif" font-size="14" lengthAdjust="spacing" textLength="239" x="158.2867" y="877.292">gridSize$: Observable&lt;GridSize&gt;</text><ellipse cx="149.2867" cy="890.2422" fill="none" rx="3" ry="3" style="stroke:#038048;stroke-width:1.0;"/><text fill="#000000" font-family="sans-serif" font-size="14" lengthAdjust="spacing" textLength="253" x="158.2867" y="893.5889">gameOver$: Observable&lt;boolean&gt;</text><rect fill="none" height="6" style="stroke:#C82930;stroke-width:1.0;" width="6" x="146.2867" y="903.5391"/><text fill="#000000" font-family="sans-serif" font-size="14" lengthAdjust="spacing" textLength="226" x="158.2867" y="909.8857">gameService: RxjsGameService</text><line style="stroke:#181818;stroke-width:0.5;" x1="139.2867" x2="416.2867" y1="917.1875" y2="917.1875"/></g><!--class SignalsGameService--><g id="elem_SignalsGameService"><rect codeLine="153" fill="#F1F1F1" height="194.6719" id="SignalsGameService" rx="2.5" ry="2.5" style="stroke:#181818;stroke-width:0.5;" width="351" x="506.2864" y="1123.5"/><ellipse cx="605.0364" cy="1139.5" fill="#ADD1B2" rx="11" ry="11" style="stroke:#181818;stroke-width:1.0;"/><path d="M607.3802,1135.1719 C606.4427,1134.7344 605.8489,1134.5938 604.9739,1134.5938 C602.3489,1134.5938 600.3489,1136.6719 600.3489,1139.3906 L600.3489,1140.5156 C600.3489,1143.0938 602.4583,1144.9844 605.3489,1144.9844 C606.5677,1144.9844 607.7239,1144.6875 608.4739,1144.1406 C609.052,1143.7344 609.3802,1143.2813 609.3802,1142.8906 C609.3802,1142.4375 608.9895,1142.0469 608.5208,1142.0469 C608.302,1142.0469 608.0989,1142.125 607.9114,1142.3125 C607.4583,1142.7969 607.4583,1142.7969 607.2708,1142.8906 C606.8489,1143.1563 606.1614,1143.2813 605.3958,1143.2813 C603.3489,1143.2813 602.052,1142.1875 602.052,1140.4844 L602.052,1139.3906 C602.052,1137.6094 603.302,1136.2969 605.0364,1136.2969 C605.6145,1136.2969 606.2239,1136.4531 606.6927,1136.7031 C607.177,1136.9844 607.3489,1137.2031 607.4427,1137.6094 C607.5052,1138.0156 607.5364,1138.1406 607.677,1138.2656 C607.8177,1138.4063 608.052,1138.5156 608.2708,1138.5156 C608.5364,1138.5156 608.802,1138.375 608.9739,1138.1563 C609.0833,1138 609.1145,1137.8125 609.1145,1137.3906 L609.1145,1135.9688 C609.1145,1135.5313 609.0989,1135.4063 609.0052,1135.25 C608.8489,1134.9844 608.5677,1134.8438 608.2708,1134.8438 C607.9739,1134.8438 607.7708,1134.9375 607.552,1135.25 L607.3802,1135.1719 Z " fill="#000000"/><text fill="#000000" font-family="sans-serif" font-size="14" lengthAdjust="spacing" textLength="145" x="625.5364" y="1144.3467">SignalsGameService</text><line style="stroke:#181818;stroke-width:0.5;" x1="507.2864" x2="856.2864" y1="1155.5" y2="1155.5"/><ellipse cx="517.2864" cy="1169.1484" fill="none" rx="3" ry="3" style="stroke:#038048;stroke-width:1.0;"/><text fill="#000000" font-family="sans-serif" font-size="14" lengthAdjust="spacing" textLength="257" x="526.2864" y="1172.4951">state: SettableSignal&lt;GameState&gt;</text><ellipse cx="517.2864" cy="1185.4453" fill="none" rx="3" ry="3" style="stroke:#038048;stroke-width:1.0;"/><text fill="#000000" font-family="sans-serif" font-size="14" lengthAdjust="spacing" textLength="255" x="526.2864" y="1188.792">gridSize: SettableSignal&lt;GridSize&gt;</text><rect fill="none" height="6" style="stroke:#C82930;stroke-width:1.0;" width="6" x="514.2864" y="1198.7422"/><text fill="#000000" font-family="sans-serif" font-size="14" lengthAdjust="spacing" textLength="100" x="526.2864" y="1205.0889">zone: NgZone</text><line style="stroke:#181818;stroke-width:0.5;" x1="507.2864" x2="856.2864" y1="1212.3906" y2="1212.3906"/><ellipse cx="517.2864" cy="1226.0391" fill="#84BE84" rx="3" ry="3" style="stroke:#038048;stroke-width:1.0;"/><text fill="#000000" font-family="sans-serif" font-size="14" lengthAdjust="spacing" textLength="325" x="526.2864" y="1229.3857">setup(config?: GameConfig | undefined): void</text><ellipse cx="517.2864" cy="1242.3359" fill="#84BE84" rx="3" ry="3" style="stroke:#038048;stroke-width:1.0;"/><text fill="#000000" font-family="sans-serif" font-size="14" lengthAdjust="spacing" textLength="84" x="526.2864" y="1245.6826">start(): void</text><ellipse cx="517.2864" cy="1258.6328" fill="#84BE84" rx="3" ry="3" style="stroke:#038048;stroke-width:1.0;"/><text fill="#000000" font-family="sans-serif" font-size="14" lengthAdjust="spacing" textLength="280" x="526.2864" y="1261.9795">setDirection(direction: Direction): void</text><ellipse cx="517.2864" cy="1274.9297" fill="#84BE84" rx="3" ry="3" style="stroke:#038048;stroke-width:1.0;"/><text fill="#000000" font-family="sans-serif" font-size="14" lengthAdjust="spacing" textLength="91" x="526.2864" y="1278.2764">pause(): void</text><rect fill="#F24D5C" height="6" style="stroke:#C82930;stroke-width:1.0;" width="6" x="514.2864" y="1288.2266"/><text fill="#000000" font-family="sans-serif" font-size="14" lengthAdjust="spacing" textLength="222" x="526.2864" y="1294.5732">tick(timestamp: number): void</text><rect fill="#F24D5C" height="6" style="stroke:#C82930;stroke-width:1.0;" width="6" x="514.2864" y="1304.5234"/><text fill="#000000" font-family="sans-serif" font-size="14" lengthAdjust="spacing" textLength="133" x="526.2864" y="1310.8701">moveSnake(): void</text></g><!--class SignalsGameBoardComponent--><g id="elem_SignalsGameBoardComponent"><rect codeLine="164" fill="#F1F1F1" height="113.1875" id="SignalsGameBoardComponent" rx="2.5" ry="2.5" style="stroke:#181818;stroke-width:0.5;" width="273" x="452.2864" y="812"/><ellipse cx="476.7364" cy="828" fill="#ADD1B2" rx="11" ry="11" style="stroke:#181818;stroke-width:1.0;"/><path d="M479.0801,823.6719 C478.1426,823.2344 477.5489,823.0938 476.6739,823.0938 C474.0489,823.0938 472.0489,825.1719 472.0489,827.8906 L472.0489,829.0156 C472.0489,831.5938 474.1583,833.4844 477.0489,833.4844 C478.2676,833.4844 479.4239,833.1875 480.1739,832.6406 C480.752,832.2344 481.0801,831.7813 481.0801,831.3906 C481.0801,830.9375 480.6895,830.5469 480.2208,830.5469 C480.002,830.5469 479.7989,830.625 479.6114,830.8125 C479.1583,831.2969 479.1583,831.2969 478.9708,831.3906 C478.5489,831.6563 477.8614,831.7813 477.0958,831.7813 C475.0489,831.7813 473.752,830.6875 473.752,828.9844 L473.752,827.8906 C473.752,826.1094 475.002,824.7969 476.7364,824.7969 C477.3145,824.7969 477.9239,824.9531 478.3926,825.2031 C478.877,825.4844 479.0489,825.7031 479.1426,826.1094 C479.2051,826.5156 479.2364,826.6406 479.377,826.7656 C479.5176,826.9063 479.752,827.0156 479.9708,827.0156 C480.2364,827.0156 480.502,826.875 480.6739,826.6563 C480.7833,826.5 480.8145,826.3125 480.8145,825.8906 L480.8145,824.4688 C480.8145,824.0313 480.7989,823.9063 480.7051,823.75 C480.5489,823.4844 480.2676,823.3438 479.9708,823.3438 C479.6739,823.3438 479.4708,823.4375 479.252,823.75 L479.0801,823.6719 Z " fill="#000000"/><text fill="#000000" font-family="sans-serif" font-size="14" lengthAdjust="spacing" textLength="220" x="492.8364" y="832.8467">SignalsGameBoardComponent</text><line style="stroke:#181818;stroke-width:0.5;" x1="453.2864" x2="724.2864" y1="844" y2="844"/><ellipse cx="463.2864" cy="857.6484" fill="none" rx="3" ry="3" style="stroke:#038048;stroke-width:1.0;"/><text fill="#000000" font-family="sans-serif" font-size="14" lengthAdjust="spacing" textLength="141" x="472.2864" y="860.9951">tiles: Signal&lt;Tile[]&gt;</text><ellipse cx="463.2864" cy="873.9453" fill="none" rx="3" ry="3" style="stroke:#038048;stroke-width:1.0;"/><text fill="#000000" font-family="sans-serif" font-size="14" lengthAdjust="spacing" textLength="192" x="472.2864" y="877.292">gridSize: Signal&lt;GridSize&gt;</text><ellipse cx="463.2864" cy="890.2422" fill="none" rx="3" ry="3" style="stroke:#038048;stroke-width:1.0;"/><text fill="#000000" font-family="sans-serif" font-size="14" lengthAdjust="spacing" textLength="206" x="472.2864" y="893.5889">gameOver: Signal&lt;boolean&gt;</text><rect fill="none" height="6" style="stroke:#C82930;stroke-width:1.0;" width="6" x="460.2864" y="903.5391"/><text fill="#000000" font-family="sans-serif" font-size="14" lengthAdjust="spacing" textLength="247" x="472.2864" y="909.8857">gameService: SignalsGameService</text><line style="stroke:#181818;stroke-width:0.5;" x1="453.2864" x2="724.2864" y1="917.1875" y2="917.1875"/></g><!--class CableComponent--><g id="elem_CableComponent"><rect codeLine="170" fill="#F1F1F1" height="48" id="CableComponent" rx="2.5" ry="2.5" style="stroke:#181818;stroke-width:0.5;" width="159" x="179.2864" y="229"/><ellipse cx="194.2864" cy="245" fill="#ADD1B2" rx="11" ry="11" style="stroke:#181818;stroke-width:1.0;"/><path d="M196.6302,240.6719 C195.6927,240.2344 195.0989,240.0938 194.2239,240.0938 C191.5989,240.0938 189.5989,242.1719 189.5989,244.8906 L189.5989,246.0156 C189.5989,248.5938 191.7083,250.4844 194.5989,250.4844 C195.8177,250.4844 196.9739,250.1875 197.7239,249.6406 C198.302,249.2344 198.6302,248.7813 198.6302,248.3906 C198.6302,247.9375 198.2395,247.5469 197.7708,247.5469 C197.552,247.5469 197.3489,247.625 197.1614,247.8125 C196.7083,248.2969 196.7083,248.2969 196.5208,248.3906 C196.0989,248.6563 195.4114,248.7813 194.6458,248.7813 C192.5989,248.7813 191.302,247.6875 191.302,245.9844 L191.302,244.8906 C191.302,243.1094 192.552,241.7969 194.2864,241.7969 C194.8645,241.7969 195.4739,241.9531 195.9427,242.2031 C196.427,242.4844 196.5989,242.7031 196.6927,243.1094 C196.7552,243.5156 196.7864,243.6406 196.927,243.7656 C197.0677,243.9063 197.302,244.0156 197.5208,244.0156 C197.7864,244.0156 198.052,243.875 198.2239,243.6563 C198.3333,243.5 198.3645,243.3125 198.3645,242.8906 L198.3645,241.4688 C198.3645,241.0313 198.3489,240.9063 198.2552,240.75 C198.0989,240.4844 197.8177,240.3438 197.5208,240.3438 C197.2239,240.3438 197.0208,240.4375 196.802,240.75 L196.6302,240.6719 Z " fill="#000000"/><text fill="#000000" font-family="sans-serif" font-size="14" lengthAdjust="spacing" textLength="127" x="208.2864" y="249.8467">CableComponent</text><line style="stroke:#181818;stroke-width:0.5;" x1="180.2864" x2="337.2864" y1="261" y2="261"/><line style="stroke:#181818;stroke-width:0.5;" x1="180.2864" x2="337.2864" y1="269" y2="269"/></g><!--class LayoutComponent--><g id="elem_LayoutComponent"><rect codeLine="171" fill="#F1F1F1" height="162.0781" id="LayoutComponent" rx="2.5" ry="2.5" style="stroke:#181818;stroke-width:0.5;" width="422" x="373.7864" y="172"/><ellipse cx="513.5364" cy="188" fill="#ADD1B2" rx="11" ry="11" style="stroke:#181818;stroke-width:1.0;"/><path d="M515.8802,183.6719 C514.9427,183.2344 514.3489,183.0938 513.4739,183.0938 C510.8489,183.0938 508.8489,185.1719 508.8489,187.8906 L508.8489,189.0156 C508.8489,191.5938 510.9583,193.4844 513.8489,193.4844 C515.0677,193.4844 516.2239,193.1875 516.9739,192.6406 C517.552,192.2344 517.8802,191.7813 517.8802,191.3906 C517.8802,190.9375 517.4895,190.5469 517.0208,190.5469 C516.802,190.5469 516.5989,190.625 516.4114,190.8125 C515.9583,191.2969 515.9583,191.2969 515.7708,191.3906 C515.3489,191.6563 514.6614,191.7813 513.8958,191.7813 C511.8489,191.7813 510.552,190.6875 510.552,188.9844 L510.552,187.8906 C510.552,186.1094 511.802,184.7969 513.5364,184.7969 C514.1145,184.7969 514.7239,184.9531 515.1927,185.2031 C515.677,185.4844 515.8489,185.7031 515.9427,186.1094 C516.0052,186.5156 516.0364,186.6406 516.177,186.7656 C516.3177,186.9063 516.552,187.0156 516.7708,187.0156 C517.0364,187.0156 517.302,186.875 517.4739,186.6563 C517.5833,186.5 517.6145,186.3125 517.6145,185.8906 L517.6145,184.4688 C517.6145,184.0313 517.5989,183.9063 517.5052,183.75 C517.3489,183.4844 517.0677,183.3438 516.7708,183.3438 C516.4739,183.3438 516.2708,183.4375 516.052,183.75 L515.8802,183.6719 Z " fill="#000000"/><text fill="#000000" font-family="sans-serif" font-size="14" lengthAdjust="spacing" textLength="134" x="534.0364" y="192.8467">LayoutComponent</text><line style="stroke:#181818;stroke-width:0.5;" x1="374.7864" x2="794.7864" y1="204" y2="204"/><rect fill="none" height="6" style="stroke:#C82930;stroke-width:1.0;" width="6" x="381.7864" y="214.6484"/><text fill="#000000" font-family="sans-serif" font-size="14" lengthAdjust="spacing" textLength="202" x="393.7864" y="220.9951">unsubscribe: Subject&lt;void&gt;</text><rect fill="none" height="6" style="stroke:#C82930;stroke-width:1.0;" width="6" x="381.7864" y="230.9453"/><text fill="#000000" font-family="sans-serif" font-size="14" lengthAdjust="spacing" textLength="396" x="393.7864" y="237.292">webcamComponent?: WebcamComponent | undefined</text><ellipse cx="384.7864" cy="250.2422" fill="none" rx="3" ry="3" style="stroke:#038048;stroke-width:1.0;"/><text fill="#000000" font-family="sans-serif" font-size="14" lengthAdjust="spacing" textLength="196" x="393.7864" y="253.5889">controlsInitialized: boolean</text><rect fill="none" height="6" style="stroke:#C82930;stroke-width:1.0;" width="6" x="381.7864" y="263.5391"/><text fill="#000000" font-family="sans-serif" font-size="14" lengthAdjust="spacing" textLength="231" x="393.7864" y="269.8857">gameService: GameServiceBase</text><rect fill="none" height="6" style="stroke:#C82930;stroke-width:1.0;" width="6" x="381.7864" y="279.8359"/><text fill="#000000" font-family="sans-serif" font-size="14" lengthAdjust="spacing" textLength="115" x="393.7864" y="286.1826">overlay: Overlay</text><line style="stroke:#181818;stroke-width:0.5;" x1="374.7864" x2="794.7864" y1="293.4844" y2="293.4844"/><ellipse cx="384.7864" cy="307.1328" fill="#84BE84" rx="3" ry="3" style="stroke:#038048;stroke-width:1.0;"/><text fill="#000000" font-family="sans-serif" font-size="14" lengthAdjust="spacing" textLength="144" x="393.7864" y="310.4795">ngOnDestroy(): void</text><rect fill="#F24D5C" height="6" style="stroke:#C82930;stroke-width:1.0;" width="6" x="381.7864" y="320.4297"/><text fill="#000000" font-family="sans-serif" font-size="14" lengthAdjust="spacing" textLength="171" x="393.7864" y="326.7764">openInstructions(): void</text></g><!--reverse link OnDestroy to HandDetectorDirective--><g id="link_OnDestroy_HandDetectorDirective"><path d="M1623.5594,95.18 C1608.4294,114.52 1592.0094,139.08 1582.7894,164 C1554.6794,239.93 1545.7794,330.7 1543.8494,401.97 " fill="none" id="OnDestroy-backto-HandDetectorDirective" style="stroke:#181818;stroke-width:1.0;stroke-dasharray:7.0,7.0;"/><polygon fill="none" points="1618.2094,90.67,1636.3094,79.66,1629.0294,99.55,1618.2094,90.67" style="stroke:#181818;stroke-width:1.0;"/></g><!--reverse link NavigatorRef to BrowserNavigatorRef--><g id="link_NavigatorRef_BrowserNavigatorRef"><path d="M2484.7894,108.11 C2484.7894,144.01 2484.7894,190.69 2484.7894,220.99 " fill="none" id="NavigatorRef-backto-BrowserNavigatorRef" style="stroke:#181818;stroke-width:1.0;"/><polygon fill="none" points="2477.7894,107.91,2484.7894,87.91,2491.7894,107.91,2477.7894,107.91" style="stroke:#181818;stroke-width:1.0;"/></g><!--reverse link OnDestroy to CameraFeedDirective--><g id="link_OnDestroy_CameraFeedDirective"><path d="M1730.6894,81.7 C1790.6694,102.77 1877.7194,134.08 1952.7894,164 C1958.6694,166.35 1964.6494,168.76 1970.6694,171.21 " fill="none" id="OnDestroy-backto-CameraFeedDirective" style="stroke:#181818;stroke-width:1.0;stroke-dasharray:7.0,7.0;"/><polygon fill="none" points="1728.0094,88.18,1711.4394,74.97,1732.6294,74.97,1728.0094,88.18" style="stroke:#181818;stroke-width:1.0;"/></g><!--reverse link OnDestroy to ControllerComponent--><g id="link_OnDestroy_ControllerComponent"><path d="M1680.7694,97.35 C1692.8994,118.91 1708.2294,146.14 1722.6194,171.73 " fill="none" id="OnDestroy-backto-ControllerComponent" style="stroke:#181818;stroke-width:1.0;stroke-dasharray:7.0,7.0;"/><polygon fill="none" points="1674.5394,100.56,1670.8394,79.69,1686.7494,93.69,1674.5394,100.56" style="stroke:#181818;stroke-width:1.0;"/></g><!--reverse link GameServiceBase to RxjsGameService--><g id="link_GameServiceBase_RxjsGameService"><path d="M741.7604,1030.802 C630.8124,1071.336 589.6374,1047.097 488.7864,1091 C477.5164,1095.906 466.1914,1101.475 454.9854,1107.478 " fill="none" id="GameServiceBase-backto-RxjsGameService" style="stroke:#181818;stroke-width:1.0;"/><polygon fill="none" points="739.3934,1024.213,760.5734,1023.565,744.4204,1037.279,739.3934,1024.213" style="stroke:#181818;stroke-width:1.0;"/></g><!--reverse link GameServiceBase to SignalsGameService--><g id="link_GameServiceBase_SignalsGameService"><path d="M848.6744,1045.91 C823.1964,1072.488 797.7524,1099.03 774.6864,1123.091 " fill="none" id="GameServiceBase-backto-SignalsGameService" style="stroke:#181818;stroke-width:1.0;"/><polygon fill="none" points="843.9244,1040.75,862.8184,1031.156,854.0304,1050.438,843.9244,1040.75" style="stroke:#181818;stroke-width:1.0;"/></g><!--reverse link OnDestroy to LayoutComponent--><g id="link_OnDestroy_LayoutComponent"><path d="M1584.4994,69.85 C1424.5094,99 1038.8724,169.27 796.0334,213.51 " fill="none" id="OnDestroy-backto-LayoutComponent" style="stroke:#181818;stroke-width:1.0;stroke-dasharray:7.0,7.0;"/><polygon fill="none" points="1583.2794,62.96,1604.2094,66.26,1585.7894,76.73,1583.2794,62.96" style="stroke:#181818;stroke-width:1.0;"/></g><!--link Snake to Direction--><g id="link_Snake_Direction"><path codeLine="180" d="M1458.0394,1294.036 C1445.8194,1329.614 1431.2294,1372.061 1419.5894,1405.941 " fill="none" id="Snake-to-Direction" style="stroke:#181818;stroke-width:1.0;"/><polygon fill="#181818" points="1417.8994,1410.876,1424.6082,1403.6655,1419.525,1406.1476,1417.0429,1401.0645,1417.8994,1410.876" style="stroke:#181818;stroke-width:1.0;"/><text fill="#000000" font-family="sans-serif" font-size="13" lengthAdjust="spacing" textLength="8" x="1411.7409" y="1400.1244">1</text></g><!--link ArrowsComponent to Direction--><g id="link_ArrowsComponent_Direction"><path codeLine="181" d="M2402.3294,1269.637 C2358.4194,1297.838 2299.0894,1331.718 2241.7894,1351 C1956.3394,1447.0491 1590.8794,1463.3674 1453.8894,1466.0307 " fill="none" id="ArrowsComponent-to-Direction" style="stroke:#181818;stroke-width:1.0;"/><polygon fill="#181818" points="1448.7194,1466.1268,1457.7976,1469.946,1453.7184,1466.0268,1457.6376,1461.9476,1448.7194,1466.1268" style="stroke:#181818;stroke-width:1.0;"/><text fill="#000000" font-family="sans-serif" font-size="13" lengthAdjust="spacing" textLength="8" x="1456.3033" y="1461.9421">1</text></g><!--link GameUtils to Direction--><g id="link_GameUtils_Direction"><path codeLine="182" d="M2944.5494,1277.612 C2869.7994,1304.007 2776.5694,1333.528 2690.7894,1351 C2218.5194,1447.1901 1632.9194,1463.2728 1453.5394,1465.9608 " fill="none" id="GameUtils-to-Direction" style="stroke:#181818;stroke-width:1.0;"/><polygon fill="#181818" points="1448.3494,1466.0365,1457.4056,1469.9075,1453.3489,1465.9651,1457.2913,1461.9083,1448.3494,1466.0365" style="stroke:#181818;stroke-width:1.0;"/><text fill="#000000" font-family="sans-serif" font-size="13" lengthAdjust="spacing" textLength="8" x="1456.216" y="1478.986">1</text></g><!--link GameServiceBase to Snake--><g id="link_GameServiceBase_Snake"><path codeLine="183" d="M1261.1494,1031.076 C1288.4094,1050.734 1315.4594,1070.962 1340.7894,1091 C1361.5994,1107.467 1383.2194,1126.182 1403.1194,1144.149 " fill="none" id="GameServiceBase-to-Snake" style="stroke:#181818;stroke-width:1.0;"/><polygon fill="#181818" points="1407.0794,1147.732,1403.0933,1138.7258,1403.3732,1144.3758,1397.7233,1144.6557,1407.0794,1147.732" style="stroke:#181818;stroke-width:1.0;"/><text fill="#000000" font-family="sans-serif" font-size="13" lengthAdjust="spacing" textLength="8" x="1391.2329" y="1136.8656">1</text></g><!--link GameServiceBase to Direction--><g id="link_GameServiceBase_Direction"><path codeLine="184" d="M1232.2294,1031.264 C1249.5394,1050.072 1265.4594,1070.068 1278.7894,1091 C1343.1094,1192.053 1310.5294,1237.829 1349.7894,1351 C1356.0794,1369.152 1363.8594,1388.507 1371.3494,1406.082 " fill="none" id="GameServiceBase-to-Direction" style="stroke:#181818;stroke-width:1.0;"/><polygon fill="#181818" points="1373.4494,1410.989,1373.5859,1401.1411,1371.4822,1406.3922,1366.2311,1404.2886,1373.4494,1410.989" style="stroke:#181818;stroke-width:1.0;"/><text fill="#000000" font-family="sans-serif" font-size="13" lengthAdjust="spacing" textLength="8" x="1361.6902" y="1399.851">1</text></g><!--link GameServiceBase to GameStatus--><g id="link_GameServiceBase_GameStatus"><path codeLine="185" d="M1275.0594,924.09 C1388.3894,957.845 1517.5694,1010.582 1614.7894,1091 C1636.9994,1109.374 1654.5394,1135.817 1667.3094,1159.985 " fill="none" id="GameServiceBase-to-GameStatus" style="stroke:#181818;stroke-width:1.0;"/><polygon fill="#181818" points="1669.6394,1164.468,1669.0465,1154.637,1667.3374,1160.0295,1661.9449,1158.3203,1669.6394,1164.468" style="stroke:#181818;stroke-width:1.0;"/><text fill="#000000" font-family="sans-serif" font-size="13" lengthAdjust="spacing" textLength="8" x="1658.1608" y="1153.3273">1</text></g><!--link ControlButtonsComponent to GameServiceBase--><g id="link_ControlButtonsComponent_GameServiceBase"><path codeLine="186" d="M819.7104,597.217 C842.1004,627.769 869.1864,664.729 896.0434,701.376 " fill="none" id="ControlButtonsComponent-to-GameServiceBase" style="stroke:#181818;stroke-width:1.0;"/><polygon fill="#181818" points="899.3164,705.843,897.2224,696.2193,896.3607,701.8102,890.7699,700.9484,899.3164,705.843" style="stroke:#181818;stroke-width:1.0;"/><text fill="#000000" font-family="sans-serif" font-size="13" lengthAdjust="spacing" textLength="8" x="885.3843" y="694.67">1</text></g><!--link HandDetectorDirective to Direction--><g id="link_HandDetectorDirective_Direction"><path codeLine="187" d="M1637.9494,646.112 C1755.5694,818.348 1927.3894,1136.867 1769.7894,1351 C1731.9294,1402.44 1547.0794,1440.9756 1453.4194,1457.5524 " fill="none" id="HandDetectorDirective-to-Direction" style="stroke:#181818;stroke-width:1.0;"/><polygon fill="#181818" points="1448.4794,1458.4211,1458.0387,1460.7916,1453.4029,1457.5498,1456.6447,1452.914,1448.4794,1458.4211" style="stroke:#181818;stroke-width:1.0;"/><text fill="#000000" font-family="sans-serif" font-size="13" lengthAdjust="spacing" textLength="8" x="1456.3651" y="1453.049">1</text></g><!--link WebcamComponent to Direction--><g id="link_WebcamComponent_Direction"><path codeLine="188" d="M169.2024,637.512 C149.8734,658.103 132.7438,681.063 120.7867,706 C58.7912,835.294 6,1245.204 102.7867,1351 C187.7844,1443.9092 1107.9494,1462.5938 1343.9094,1465.8682 " fill="none" id="WebcamComponent-to-Direction" style="stroke:#181818;stroke-width:1.0;"/><polygon fill="#181818" points="1349.0194,1465.9382,1340.0775,1461.81,1344.0199,1465.8668,1339.9632,1469.8092,1349.0194,1465.9382" style="stroke:#181818;stroke-width:1.0;"/><text fill="#000000" font-family="sans-serif" font-size="13" lengthAdjust="spacing" textLength="8" x="1333.1219" y="1461.6701">1</text></g><!--link WebcamComponent to GameServiceBase--><g id="link_WebcamComponent_GameServiceBase"><path codeLine="189" d="M531.3834,634.043 C540.5864,638.203 549.7494,642.21 558.7864,646 C638.1094,679.266 664.3564,670.682 742.7864,706 C747.1434,707.962 751.5184,709.975 755.9054,712.033 " fill="none" id="WebcamComponent-to-GameServiceBase" style="stroke:#181818;stroke-width:1.0;"/><polygon fill="#181818" points="760.6714,714.284,754.242,706.8233,756.1504,712.1485,750.8252,714.0569,760.6714,714.284" style="stroke:#181818;stroke-width:1.0;"/><text fill="#000000" font-family="sans-serif" font-size="13" lengthAdjust="spacing" textLength="8" x="744.9195" y="706.5512">1</text></g><!--link InstructionsComponent to Direction--><g id="link_InstructionsComponent_Direction"><path codeLine="190" d="M1246.7494,1351.052 C1282.4794,1378.187 1317.6294,1404.873 1345.1094,1425.7423 " fill="none" id="InstructionsComponent-to-Direction" style="stroke:#181818;stroke-width:1.0;"/><polygon fill="#181818" points="1349.1094,1428.7784,1344.3672,1420.1464,1345.1296,1425.7516,1339.5244,1426.514,1349.1094,1428.7784" style="stroke:#181818;stroke-width:1.0;"/><text fill="#000000" font-family="sans-serif" font-size="13" lengthAdjust="spacing" textLength="8" x="1333.2252" y="1419.052">1</text></g><!--link ControllerComponent to Direction--><g id="link_ControllerComponent_Direction"><path codeLine="191" d="M1932.0394,334.03 C1939.0094,336.82 1945.9394,339.49 1952.7894,342 C2050.7694,377.9 2116.1194,319.32 2179.7894,402 C2245.9494,487.92 2204.6694,540.449 2179.7894,646 C2099.4194,986.872 2098.9194,1129.33 1827.7894,1351 C1717.1294,1441.4678 1541.8894,1461.4825 1453.5394,1465.6377 " fill="none" id="ControllerComponent-to-Direction" style="stroke:#181818;stroke-width:1.0;"/><polygon fill="#181818" points="1448.3694,1465.8676,1457.5326,1469.4782,1453.3648,1465.6533,1457.1897,1461.4855,1448.3694,1465.8676" style="stroke:#181818;stroke-width:1.0;"/><text fill="#000000" font-family="sans-serif" font-size="13" lengthAdjust="spacing" textLength="8" x="1456.0375" y="1459.7858">1</text></g><!--link RxjsGameService to Direction--><g id="link_RxjsGameService_Direction"><path codeLine="192" d="M451.6334,1334.521 C463.8754,1340.743 476.3284,1346.343 488.7864,1351 C647.6874,1410.398 1172.3394,1450.9241 1343.9394,1462.8524 " fill="none" id="RxjsGameService-to-Direction" style="stroke:#181818;stroke-width:1.0;"/><polygon fill="#181818" points="1349.1594,1463.2139,1340.4549,1458.6061,1344.1712,1462.871,1339.9063,1466.5873,1349.1594,1463.2139" style="stroke:#181818;stroke-width:1.0;"/><text fill="#000000" font-family="sans-serif" font-size="13" lengthAdjust="spacing" textLength="8" x="1333.2825" y="1475.7488">1</text></g><!--link RxjsGameBoardComponent to RxjsGameService--><g id="link_RxjsGameBoardComponent_RxjsGameService"><path codeLine="193" d="M280.6384,925.038 C283.0784,972.539 286.6724,1042.517 289.7474,1102.392 " fill="none" id="RxjsGameBoardComponent-to-RxjsGameService" style="stroke:#181818;stroke-width:1.0;"/><polygon fill="#181818" points="290.0054,1107.418,293.5373,1098.2242,289.7483,1102.4246,285.5479,1098.6356,290.0054,1107.418" style="stroke:#181818;stroke-width:1.0;"/><text fill="#000000" font-family="sans-serif" font-size="13" lengthAdjust="spacing" textLength="8" x="281.3482" y="1096.3452">1</text></g><!--link SignalsGameService to Direction--><g id="link_SignalsGameService_Direction"><path codeLine="194" d="M812.5714,1318.65 C832.7394,1330.795 853.8404,1342.068 874.7864,1351 C1037.2624,1420.283 1246.5094,1450.2962 1344.1194,1461.2038 " fill="none" id="SignalsGameService-to-Direction" style="stroke:#181818;stroke-width:1.0;"/><polygon fill="#181818" points="1349.2494,1461.771,1340.737,1456.8174,1344.279,1461.2281,1339.8683,1464.7701,1349.2494,1461.771" style="stroke:#181818;stroke-width:1.0;"/><text fill="#000000" font-family="sans-serif" font-size="13" lengthAdjust="spacing" textLength="8" x="1333.3857" y="1456.8909">1</text></g><!--link SignalsGameBoardComponent to SignalsGameService--><g id="link_SignalsGameBoardComponent_SignalsGameService"><path codeLine="195" d="M603.5224,925.038 C617.2754,976.867 638.1274,1055.456 654.8504,1118.484 " fill="none" id="SignalsGameBoardComponent-to-SignalsGameService" style="stroke:#181818;stroke-width:1.0;"/><polygon fill="#181818" points="656.1494,1123.377,657.7092,1113.6524,654.8679,1118.544,649.9764,1115.7028,656.1494,1123.377" style="stroke:#181818;stroke-width:1.0;"/><text fill="#000000" font-family="sans-serif" font-size="13" lengthAdjust="spacing" textLength="8" x="645.8803" y="1112.4131">1</text></g><!--link LayoutComponent to WebcamComponent--><g id="link_LayoutComponent_WebcamComponent"><path codeLine="196" d="M507.4294,334.34 C485.6394,356.98 461.4854,382.06 438.0934,406.36 " fill="none" id="LayoutComponent-to-WebcamComponent" style="stroke:#181818;stroke-width:1.0;"/><polygon fill="#181818" points="434.3464,410.25,443.4715,406.5443,437.8157,406.6494,437.7106,400.9935,434.3464,410.25" style="stroke:#181818;stroke-width:1.0;"/><text fill="#000000" font-family="sans-serif" font-size="13" lengthAdjust="spacing" textLength="8" x="433.0448" y="399.5451">1</text></g><!--link LayoutComponent to GameServiceBase--><g id="link_LayoutComponent_GameServiceBase"><path codeLine="197" d="M570.7304,334.11 C560.3404,419.17 557.3524,553.805 620.7864,646 C655.0374,695.78 689.5874,677.347 742.7864,706 C747.1734,708.363 751.5924,710.759 756.0354,713.184 " fill="none" id="LayoutComponent-to-GameServiceBase" style="stroke:#181818;stroke-width:1.0;"/><polygon fill="#181818" points="760.4854,715.618,754.5074,707.7909,756.0983,713.2194,750.6697,714.8103,760.4854,715.618" style="stroke:#181818;stroke-width:1.0;"/><text fill="#000000" font-family="sans-serif" font-size="13" lengthAdjust="spacing" textLength="8" x="744.728" y="723.3701">1</text></g><!--SRC=[vLZTRzis47_FNo4a1UeWzO1sRrwGeB6JDbZR576w0IiAb9RE2XkPr4ZARPhvVzzH52NnGt6yr-KbDEzulBlVVV2K5aJAv7LPJlcgv0oOIXxs4lmxKbGLC4ca4fJbUvkzjEQSCt87bYMZ0b95EPiaCxiq50dv2cN9IJBbN6IK4GNoynT3NF3iFagu1P8vX4OJGWjdE_adOLLHTDHPH17BjDa3LgsIDsG5SqLK9HljBnbLb1WXrnLZsagz_aWg2Lczr6UkrY2iZ4ws4V4EbigSf_cjMNqgwtyp_fsrFdij1FykVGUFM-zDDTSbKo0OGKFtgt8VbT_FK4QzAF2QUY7qDVkUx-lJBKx3k5Xjj56V52si7uuU9Bg5ffk42FZ8AQ9s_dT5Yb6frozFOvx7VnNBO4aPP2-Icl7LLiR3IRBWl032l7jRTMzuJy8ePiLX93pw-hUCygeikQGAEZ4lUt9UT9U-SiN7LHHSBpYx47pLSWzf-FNP0qRB0iGcW_mhEfui41sIggH3O0vYJLCu8z9cqu7KgJKn6MPsbfn7yk50bW2uR-umMuEPU23hc9_quj_ivu9cS_eJkhXxq-mOEcggRcXwvznp94oY-6wo1cuI2QegHobdIvgVcbkdzGyl4jQSPk5XHOGQ3L91RNLzz62fCzeHUo08o_Yg7sr44y-p7EHfQvsdSm24aNA1AFKbnJYflAgKf1bSBSyuofGck_pwwCKV7giJCdhMEJfqaDNHDAfJeNPM_8oj3GYL4hmugvJ250fQGeveNaSZW9fYYj6JkPHntWNxn8_yfbTer3N5HRv6BTmMW77WR5lbto8QCr0O2rmqCR66XAxA0kfUb5on6M1CyFkWVqrl2SjHl_CrCfwlgCASE6xZwgJXRcHF1Q3xCezRg-8nOY2XtCpyH3c_z3NinvRn51Wzhs69ejlryTkRz-_-GFHvisSk6Vz4P2R9X_ml_6-kPNbheEkoj5RONkpGnfZGCwkVIyb1rVgsANS7zpPeNRD-RmYVlxn8qaeKa5rWX810HhFuW73LmUtMfd5AYhGgKBSfw2fKX-nesns7GoGZaqfpvnGL6IthvGqj4GhBzklCxLw6P_O4dezFu7cV3lDuIJf6hEXAMz_tMMj_9wEskU_9iALy86kQ4qGN8yP6DoOv9a1BcNHCRSgSwOU9bjex3JyKO97vhoAdgA4W5zYXdfQ3QSk_DQz8fNXPa7klzgmgvLUT8yqcAIkeJXBNwJjb6OkPkaF-MQ_y2GiqD7W2TiPVTWMqwyYEuhUzuh6TsyPMbx-MyTHz8xj5gAbTlMDFAetXROzU4ZNRGt30t9sxIwYQiMZx2yAhzrvDzSCsWFoIOIXKvZ4Q0cyQhTmE91RlZEAJ_4U93XdaaYbAAtJx9kXctNbwiKtO_Ka8WZdo5lHCWQzEK8ei2fZJ7AKVcpTVWsvQS0bzSuPJTCKpNxUZYAq-XskZJzNNkzxFTiLIrmDNXE9vNi3Kt1pqIxqvDtBcjpY71UWsBwK26qsBxIDbhXlsEW2zPbWnMIqG5BhGGq2r-8R4dcl770VHklXTcSMs4Nnd7qaqj8-owvJ7gfjEl1kAtWo_8UXF29hK_MxcrOUacNSQh7zBdjSRO_qHu7cuhSVy_hQPZTgVc-PrsCnf_X0M6KTRxQz_V9Ezqj4smFYODjO35Snv9NJ9EODRR0jSMBpib0KDQ7RA6kHlw2VjKrZ1CuHuWLrvhVFHbtXa9NfSZfn8SzfzBeiCOxjDOE7ODSPP-cw4zHZZYAnAErewB2kCSpEq-55cSJhZH6JHK9EkKtJSVVwoWz_g0KUdbylK1Db9fELuiTDz9glBw0vXPQ0Fwl0G-Y7Z_o00Uavz90Oc3LyS_fOwW7nBVmJq4DpUwtVHAuFDvZjopolrj3wnhGjyTn-IYAJ_j0nVMzlwx_PNr43p6Peunxm45cqbcptp0NayFadsN-xtUfR_aJJaw3vSncdzfB8SvcFQ47Nx-TvNiw5l8mvhps_npn7XrJv-J-VmRuo_E4DviRTBoEMtnM4EBnajeryR8pKnb3cSuosaOVRv2MPPFSSDydcE_1S0]--></g></svg>