<?xml version="1.0" encoding="us-ascii" standalone="no"?><svg xmlns="http://www.w3.org/2000/svg" xmlns:xlink="http://www.w3.org/1999/xlink" contentStyleType="text/css" height="626px" preserveAspectRatio="none" style="width:751px;height:626px;background:#FFFFFF;" version="1.1" viewBox="0 0 751 626" width="751px" zoomAndPan="magnify"><defs/><g><!--class GameServiceBase--><g id="elem_GameServiceBase"><rect codeLine="1" fill="#F1F1F1" height="325.0469" id="GameServiceBase" rx="2.5" ry="2.5" style="stroke:#181818;stroke-width:0.5;" width="514" x="118.5" y="7"/><ellipse cx="305.75" cy="23" fill="#A9DCDF" rx="11" ry="11" style="stroke:#181818;stroke-width:1.0;"/><path d="M307.8281,24.8125 L308.2188,25.7969 L307.8281,25.7969 C307.375,25.7969 307.2656,25.8125 307.1094,25.9219 C306.8594,26.0781 306.7031,26.3594 306.7031,26.6563 C306.7031,26.9219 306.8438,27.1719 307.0625,27.3281 C307.2031,27.4531 307.4063,27.5 307.8281,27.5 L310.1875,27.5 C310.5469,27.5 310.7656,27.4688 310.9063,27.375 C311.1563,27.2344 311.3125,26.9375 311.3125,26.6563 C311.3125,26.375 311.1719,26.125 310.9531,25.9688 C310.7813,25.8281 310.625,25.7969 310.1563,25.7969 L306.7656,17.5938 L303.0938,17.5938 C302.6406,17.5938 302.5156,17.6094 302.3594,17.7031 C302.1094,17.875 301.9531,18.1563 301.9531,18.4375 C301.9531,18.7188 302.0938,18.9688 302.3125,19.1406 C302.4844,19.25 302.6563,19.2813 303.0938,19.2813 L304.1719,19.2813 L301.5313,25.7969 C301.1094,25.7969 300.9531,25.8125 300.7969,25.9219 C300.5469,26.0781 300.3906,26.3594 300.3906,26.6563 C300.3906,27.2188 300.7656,27.5 301.5156,27.5 L303.7813,27.5 C304.1406,27.5 304.3594,27.4688 304.4844,27.375 C304.75,27.2344 304.8906,26.9375 304.8906,26.6563 C304.8906,26.375 304.7656,26.125 304.5469,25.9531 C304.375,25.8281 304.2344,25.7969 303.7813,25.7969 L303.3906,25.7969 L303.7813,24.8125 L307.8281,24.8125 Z M307.125,23.1094 L304.4531,23.1094 L305.7969,19.8438 L307.125,23.1094 Z " fill="#000000"/><text fill="#000000" font-family="sans-serif" font-size="14" font-style="italic" lengthAdjust="spacing" textLength="131" x="326.25" y="27.8467">GameServiceBase</text><line style="stroke:#181818;stroke-width:0.5;" x1="119.5" x2="631.5" y1="39" y2="39"/><polygon fill="none" points="129.5,47.6484,133.5,51.6484,129.5,55.6484,125.5,51.6484" style="stroke:#B38D22;stroke-width:1.0;"/><text fill="#000000" font-family="sans-serif" font-size="14" lengthAdjust="spacing" textLength="95" x="138.5" y="55.9951">snake: Snake</text><polygon fill="none" points="129.5,63.9453,133.5,67.9453,129.5,71.9453,125.5,67.9453" style="stroke:#B38D22;stroke-width:1.0;"/><text fill="#000000" font-family="sans-serif" font-size="14" lengthAdjust="spacing" textLength="129" x="138.5" y="72.292">food: Coordinates</text><polygon fill="none" points="129.5,80.2422,133.5,84.2422,129.5,88.2422,125.5,84.2422" style="stroke:#B38D22;stroke-width:1.0;"/><text fill="#000000" font-family="sans-serif" font-size="14" lengthAdjust="spacing" textLength="109" x="138.5" y="88.5889">speed: number</text><polygon fill="none" points="129.5,96.5391,133.5,100.5391,129.5,104.5391,125.5,100.5391" style="stroke:#B38D22;stroke-width:1.0;"/><text fill="#000000" font-family="sans-serif" font-size="14" lengthAdjust="spacing" textLength="141" x="138.5" y="104.8857">direction: Direction</text><polygon fill="none" points="129.5,112.8359,133.5,116.8359,129.5,120.8359,125.5,116.8359" style="stroke:#B38D22;stroke-width:1.0;"/><text fill="#000000" font-family="sans-serif" font-size="14" lengthAdjust="spacing" textLength="141" x="138.5" y="121.1826">status: GameStatus</text><polygon fill="none" points="129.5,129.1328,133.5,133.1328,129.5,137.1328,125.5,133.1328" style="stroke:#B38D22;stroke-width:1.0;"/><text fill="#000000" font-family="sans-serif" font-size="14" lengthAdjust="spacing" textLength="183" x="138.5" y="137.4795">gridSizeInternal: GridSize</text><polygon fill="none" points="129.5,145.4297,133.5,149.4297,129.5,153.4297,125.5,149.4297" style="stroke:#B38D22;stroke-width:1.0;"/><text fill="#000000" font-family="sans-serif" font-size="14" lengthAdjust="spacing" textLength="121" x="138.5" y="153.7764">lastTick: number</text><ellipse cx="129.5" cy="166.7266" fill="none" rx="3" ry="3" style="stroke:#038048;stroke-width:1.0;"/><text fill="#000000" font-family="sans-serif" font-size="14" lengthAdjust="spacing" textLength="121" x="138.5" y="170.0732">running: boolean</text><line style="stroke:#181818;stroke-width:0.5;" x1="119.5" x2="631.5" y1="177.375" y2="177.375"/><ellipse cx="129.5" cy="191.0234" fill="#84BE84" rx="3" ry="3" style="stroke:#038048;stroke-width:1.0;"/><text fill="#000000" font-family="sans-serif" font-size="14" font-style="italic" lengthAdjust="spacing" textLength="322" x="138.5" y="194.3701">setup(config?: GameConfig | undefined): void</text><ellipse cx="129.5" cy="207.3203" fill="#84BE84" rx="3" ry="3" style="stroke:#038048;stroke-width:1.0;"/><text fill="#000000" font-family="sans-serif" font-size="14" font-style="italic" lengthAdjust="spacing" textLength="81" x="138.5" y="210.667">start(): void</text><ellipse cx="129.5" cy="223.6172" fill="#84BE84" rx="3" ry="3" style="stroke:#038048;stroke-width:1.0;"/><text fill="#000000" font-family="sans-serif" font-size="14" font-style="italic" lengthAdjust="spacing" textLength="272" x="138.5" y="226.9639">setDirection(direction: Direction): void</text><ellipse cx="129.5" cy="239.9141" fill="#84BE84" rx="3" ry="3" style="stroke:#038048;stroke-width:1.0;"/><text fill="#000000" font-family="sans-serif" font-size="14" font-style="italic" lengthAdjust="spacing" textLength="92" x="138.5" y="243.2607">pause(): void</text><polygon fill="#FFFF44" points="129.5,251.2109,133.5,255.2109,129.5,259.2109,125.5,255.2109" style="stroke:#B38D22;stroke-width:1.0;"/><text fill="#000000" font-family="sans-serif" font-size="14" lengthAdjust="spacing" textLength="488" x="138.5" y="259.5576">randomCoordinates(avoidEdges?: boolean | undefined): Coordinates</text><polygon fill="#FFFF44" points="129.5,267.5078,133.5,271.5078,129.5,275.5078,125.5,271.5078" style="stroke:#B38D22;stroke-width:1.0;"/><text fill="#000000" font-family="sans-serif" font-size="14" lengthAdjust="spacing" textLength="283" x="138.5" y="275.8545">randomFoodCoordinates(): Coordinates</text><polygon fill="#FFFF44" points="129.5,283.8047,133.5,287.8047,129.5,291.8047,125.5,287.8047" style="stroke:#B38D22;stroke-width:1.0;"/><text fill="#000000" font-family="sans-serif" font-size="14" lengthAdjust="spacing" textLength="364" x="138.5" y="292.1514">isOutsideOfBounds(points: Coordinates[]): boolean</text><polygon fill="#FFFF44" points="129.5,300.1016,133.5,304.1016,129.5,308.1016,125.5,304.1016" style="stroke:#B38D22;stroke-width:1.0;"/><text fill="#000000" font-family="sans-serif" font-size="14" lengthAdjust="spacing" textLength="385" x="138.5" y="308.4482">isPointOutsideOfBounds(point: Coordinates): boolean</text><polygon fill="#FFFF44" points="129.5,316.3984,133.5,320.3984,129.5,324.3984,125.5,320.3984" style="stroke:#B38D22;stroke-width:1.0;"/><text fill="#000000" font-family="sans-serif" font-size="14" lengthAdjust="spacing" textLength="345" x="138.5" y="324.7451">isPointOnSnake(position: Coordinates): boolean</text></g><!--class RxjsGameService--><g id="elem_RxjsGameService"><rect codeLine="20" fill="#F1F1F1" height="227.2656" id="RxjsGameService" rx="2.5" ry="2.5" style="stroke:#181818;stroke-width:0.5;" width="351" x="7" y="392"/><ellipse cx="116.25" cy="408" fill="#ADD1B2" rx="11" ry="11" style="stroke:#181818;stroke-width:1.0;"/><path d="M118.5938,403.6719 C117.6563,403.2344 117.0625,403.0938 116.1875,403.0938 C113.5625,403.0938 111.5625,405.1719 111.5625,407.8906 L111.5625,409.0156 C111.5625,411.5938 113.6719,413.4844 116.5625,413.4844 C117.7813,413.4844 118.9375,413.1875 119.6875,412.6406 C120.2656,412.2344 120.5938,411.7813 120.5938,411.3906 C120.5938,410.9375 120.2031,410.5469 119.7344,410.5469 C119.5156,410.5469 119.3125,410.625 119.125,410.8125 C118.6719,411.2969 118.6719,411.2969 118.4844,411.3906 C118.0625,411.6563 117.375,411.7813 116.6094,411.7813 C114.5625,411.7813 113.2656,410.6875 113.2656,408.9844 L113.2656,407.8906 C113.2656,406.1094 114.5156,404.7969 116.25,404.7969 C116.8281,404.7969 117.4375,404.9531 117.9063,405.2031 C118.3906,405.4844 118.5625,405.7031 118.6563,406.1094 C118.7188,406.5156 118.75,406.6406 118.8906,406.7656 C119.0313,406.9063 119.2656,407.0156 119.4844,407.0156 C119.75,407.0156 120.0156,406.875 120.1875,406.6563 C120.2969,406.5 120.3281,406.3125 120.3281,405.8906 L120.3281,404.4688 C120.3281,404.0313 120.3125,403.9063 120.2188,403.75 C120.0625,403.4844 119.7813,403.3438 119.4844,403.3438 C119.1875,403.3438 118.9844,403.4375 118.7656,403.75 L118.5938,403.6719 Z " fill="#000000"/><text fill="#000000" font-family="sans-serif" font-size="14" lengthAdjust="spacing" textLength="124" x="136.75" y="412.8467">RxjsGameService</text><line style="stroke:#181818;stroke-width:0.5;" x1="8" x2="357" y1="424" y2="424"/><rect fill="none" height="6" style="stroke:#C82930;stroke-width:1.0;" width="6" x="15" y="434.6484"/><text fill="#000000" font-family="sans-serif" font-size="14" lengthAdjust="spacing" textLength="318" x="27" y="440.9951">stateSource: BehaviorSubject&lt;GameState&gt;</text><rect fill="none" height="6" style="stroke:#C82930;stroke-width:1.0;" width="6" x="15" y="450.9453"/><text fill="#000000" font-family="sans-serif" font-size="14" lengthAdjust="spacing" textLength="316" x="27" y="457.292">gridSizeSource: BehaviorSubject&lt;GridSize&gt;</text><ellipse cx="18" cy="470.2422" fill="none" rx="3" ry="3" style="stroke:#038048;stroke-width:1.0;"/><text fill="#000000" font-family="sans-serif" font-size="14" lengthAdjust="spacing" textLength="241" x="27" y="473.5889">state$: Observable&lt;GameState&gt;</text><ellipse cx="18" cy="486.5391" fill="none" rx="3" ry="3" style="stroke:#038048;stroke-width:1.0;"/><text fill="#000000" font-family="sans-serif" font-size="14" lengthAdjust="spacing" textLength="239" x="27" y="489.8857">gridSize$: Observable&lt;GridSize&gt;</text><rect fill="none" height="6" style="stroke:#C82930;stroke-width:1.0;" width="6" x="15" y="499.8359"/><text fill="#000000" font-family="sans-serif" font-size="14" lengthAdjust="spacing" textLength="100" x="27" y="506.1826">zone: NgZone</text><line style="stroke:#181818;stroke-width:0.5;" x1="8" x2="357" y1="513.4844" y2="513.4844"/><ellipse cx="18" cy="527.1328" fill="#84BE84" rx="3" ry="3" style="stroke:#038048;stroke-width:1.0;"/><text fill="#000000" font-family="sans-serif" font-size="14" lengthAdjust="spacing" textLength="325" x="27" y="530.4795">setup(config?: GameConfig | undefined): void</text><ellipse cx="18" cy="543.4297" fill="#84BE84" rx="3" ry="3" style="stroke:#038048;stroke-width:1.0;"/><text fill="#000000" font-family="sans-serif" font-size="14" lengthAdjust="spacing" textLength="84" x="27" y="546.7764">start(): void</text><ellipse cx="18" cy="559.7266" fill="#84BE84" rx="3" ry="3" style="stroke:#038048;stroke-width:1.0;"/><text fill="#000000" font-family="sans-serif" font-size="14" lengthAdjust="spacing" textLength="280" x="27" y="563.0732">setDirection(direction: Direction): void</text><ellipse cx="18" cy="576.0234" fill="#84BE84" rx="3" ry="3" style="stroke:#038048;stroke-width:1.0;"/><text fill="#000000" font-family="sans-serif" font-size="14" lengthAdjust="spacing" textLength="91" x="27" y="579.3701">pause(): void</text><rect fill="#F24D5C" height="6" style="stroke:#C82930;stroke-width:1.0;" width="6" x="15" y="589.3203"/><text fill="#000000" font-family="sans-serif" font-size="14" lengthAdjust="spacing" textLength="222" x="27" y="595.667">tick(timestamp: number): void</text><rect fill="#F24D5C" height="6" style="stroke:#C82930;stroke-width:1.0;" width="6" x="15" y="605.6172"/><text fill="#000000" font-family="sans-serif" font-size="14" lengthAdjust="spacing" textLength="133" x="27" y="611.9639">moveSnake(): void</text></g><!--class SignalsGameService--><g id="elem_SignalsGameService"><rect codeLine="33" fill="#F1F1F1" height="194.6719" id="SignalsGameService" rx="2.5" ry="2.5" style="stroke:#181818;stroke-width:0.5;" width="351" x="393" y="408"/><ellipse cx="491.75" cy="424" fill="#ADD1B2" rx="11" ry="11" style="stroke:#181818;stroke-width:1.0;"/><path d="M494.0938,419.6719 C493.1563,419.2344 492.5625,419.0938 491.6875,419.0938 C489.0625,419.0938 487.0625,421.1719 487.0625,423.8906 L487.0625,425.0156 C487.0625,427.5938 489.1719,429.4844 492.0625,429.4844 C493.2813,429.4844 494.4375,429.1875 495.1875,428.6406 C495.7656,428.2344 496.0938,427.7813 496.0938,427.3906 C496.0938,426.9375 495.7031,426.5469 495.2344,426.5469 C495.0156,426.5469 494.8125,426.625 494.625,426.8125 C494.1719,427.2969 494.1719,427.2969 493.9844,427.3906 C493.5625,427.6563 492.875,427.7813 492.1094,427.7813 C490.0625,427.7813 488.7656,426.6875 488.7656,424.9844 L488.7656,423.8906 C488.7656,422.1094 490.0156,420.7969 491.75,420.7969 C492.3281,420.7969 492.9375,420.9531 493.4063,421.2031 C493.8906,421.4844 494.0625,421.7031 494.1563,422.1094 C494.2188,422.5156 494.25,422.6406 494.3906,422.7656 C494.5313,422.9063 494.7656,423.0156 494.9844,423.0156 C495.25,423.0156 495.5156,422.875 495.6875,422.6563 C495.7969,422.5 495.8281,422.3125 495.8281,421.8906 L495.8281,420.4688 C495.8281,420.0313 495.8125,419.9063 495.7188,419.75 C495.5625,419.4844 495.2813,419.3438 494.9844,419.3438 C494.6875,419.3438 494.4844,419.4375 494.2656,419.75 L494.0938,419.6719 Z " fill="#000000"/><text fill="#000000" font-family="sans-serif" font-size="14" lengthAdjust="spacing" textLength="145" x="512.25" y="428.8467">SignalsGameService</text><line style="stroke:#181818;stroke-width:0.5;" x1="394" x2="743" y1="440" y2="440"/><ellipse cx="404" cy="453.6484" fill="none" rx="3" ry="3" style="stroke:#038048;stroke-width:1.0;"/><text fill="#000000" font-family="sans-serif" font-size="14" lengthAdjust="spacing" textLength="257" x="413" y="456.9951">state: SettableSignal&lt;GameState&gt;</text><ellipse cx="404" cy="469.9453" fill="none" rx="3" ry="3" style="stroke:#038048;stroke-width:1.0;"/><text fill="#000000" font-family="sans-serif" font-size="14" lengthAdjust="spacing" textLength="255" x="413" y="473.292">gridSize: SettableSignal&lt;GridSize&gt;</text><rect fill="none" height="6" style="stroke:#C82930;stroke-width:1.0;" width="6" x="401" y="483.2422"/><text fill="#000000" font-family="sans-serif" font-size="14" lengthAdjust="spacing" textLength="100" x="413" y="489.5889">zone: NgZone</text><line style="stroke:#181818;stroke-width:0.5;" x1="394" x2="743" y1="496.8906" y2="496.8906"/><ellipse cx="404" cy="510.5391" fill="#84BE84" rx="3" ry="3" style="stroke:#038048;stroke-width:1.0;"/><text fill="#000000" font-family="sans-serif" font-size="14" lengthAdjust="spacing" textLength="325" x="413" y="513.8857">setup(config?: GameConfig | undefined): void</text><ellipse cx="404" cy="526.8359" fill="#84BE84" rx="3" ry="3" style="stroke:#038048;stroke-width:1.0;"/><text fill="#000000" font-family="sans-serif" font-size="14" lengthAdjust="spacing" textLength="84" x="413" y="530.1826">start(): void</text><ellipse cx="404" cy="543.1328" fill="#84BE84" rx="3" ry="3" style="stroke:#038048;stroke-width:1.0;"/><text fill="#000000" font-family="sans-serif" font-size="14" lengthAdjust="spacing" textLength="280" x="413" y="546.4795">setDirection(direction: Direction): void</text><ellipse cx="404" cy="559.4297" fill="#84BE84" rx="3" ry="3" style="stroke:#038048;stroke-width:1.0;"/><text fill="#000000" font-family="sans-serif" font-size="14" lengthAdjust="spacing" textLength="91" x="413" y="562.7764">pause(): void</text><rect fill="#F24D5C" height="6" style="stroke:#C82930;stroke-width:1.0;" width="6" x="401" y="572.7266"/><text fill="#000000" font-family="sans-serif" font-size="14" lengthAdjust="spacing" textLength="222" x="413" y="579.0732">tick(timestamp: number): void</text><rect fill="#F24D5C" height="6" style="stroke:#C82930;stroke-width:1.0;" width="6" x="401" y="589.0234"/><text fill="#000000" font-family="sans-serif" font-size="14" lengthAdjust="spacing" textLength="133" x="413" y="595.3701">moveSnake(): void</text></g><!--reverse link GameServiceBase to RxjsGameService--><g id="link_GameServiceBase_RxjsGameService"><path d="M272.014,349.589 C263.753,363.886 255.56,378.065 247.68,391.702 " fill="none" id="GameServiceBase-backto-RxjsGameService" style="stroke:#181818;stroke-width:1.0;"/><polygon fill="none" points="266.042,345.934,282.109,332.119,278.164,352.938,266.042,345.934" style="stroke:#181818;stroke-width:1.0;"/></g><!--reverse link GameServiceBase to SignalsGameService--><g id="link_GameServiceBase_SignalsGameService"><path d="M479.026,349.659 C490.539,369.583 501.918,389.275 512.503,407.593 " fill="none" id="GameServiceBase-backto-SignalsGameService" style="stroke:#181818;stroke-width:1.0;"/><polygon fill="none" points="472.836,352.938,468.891,332.119,484.958,345.934,472.836,352.938" style="stroke:#181818;stroke-width:1.0;"/></g><!--SRC=[tLJ1Rjim3BttAmHq1nT1Vi0OMY1TD-oo57LF6tQWBSPZ6qk6I0L5k_xxwCWkuiG-v3fVP5FlFOhaaw5a2L29gRR0RBv1WmM67LMu0aRpTc7qkMG7pvYRebjIPEEzpSsjzy6I0q7kWIsYnbriIWmfP2bW9UHTRhuChprOG2BdAUd-FSNhGBQWL_pk18E3hIBwIDhNayeZLS-ZF8iGdIDNvwRqVekGSYpUe2_mtJ1ARBFAkmtLDodhxVx3_3NHMToGGtkLcvqdUqeM29BDxg9yr9PD5Jn7R24oZcGl0pZhcuFEPj1jtjaQ-UQZkgCpdmmYgNpLAHqgJI69rr6OBAutAw-QdBMUdF08-kltrRYnIhllO9FS4NMEwFPkKW9JQjOqv_qYEVFXvOaFt6dmHL0JpZXssNaB2nz3fRvTuH_OaGz5B9zq7fy7m-5r0W-6cyNt-mc-s6j_oiswP4qCvHQF5HU3uX5gfBDyzKwJ_QX_wjehdstH2L-UPyPJ1ov5xrOcrA2AD-rmoqQGnkympMy83tCggDOhUyQeKZlrvu8YNPUIm6n7Ju7_SrF_0G00]--></g></svg>