<?xml version="1.0" encoding="UTF-8" standalone="no"?>
<!-- Created with Inkscape (http://www.inkscape.org/) -->

<svg
   viewBox="0 0 35.746265 13.793963"
   preserveAspectRatio="none"
   version="1.1"
   id="svg9444"
   inkscape:version="1.2.2 (732a01da63, 2022-12-09)"
   sodipodi:docname="buttons-overlay.svg"
   xmlns:inkscape="http://www.inkscape.org/namespaces/inkscape"
   xmlns:sodipodi="http://sodipodi.sourceforge.net/DTD/sodipodi-0.dtd"
   xmlns="http://www.w3.org/2000/svg"
   xmlns:svg="http://www.w3.org/2000/svg">
  <sodipodi:namedview
     id="namedview9446"
     pagecolor="#ffffff"
     bordercolor="#000000"
     borderopacity="0.25"
     inkscape:showpageshadow="2"
     inkscape:pageopacity="0.0"
     inkscape:pagecheckerboard="0"
     inkscape:deskcolor="#d1d1d1"
     inkscape:document-units="mm"
     showgrid="false"
     inkscape:zoom="0.914906"
     inkscape:cx="231.71779"
     inkscape:cy="161.76525"
     inkscape:window-width="3840"
     inkscape:window-height="2054"
     inkscape:window-x="3829"
     inkscape:window-y="-11"
     inkscape:window-maximized="1"
     inkscape:current-layer="layer1" />
  <defs
     id="defs9441">
    <clipPath
       clipPathUnits="userSpaceOnUse"
       id="clipPath9148">
      <g
         id="g9152"
         transform="translate(-355.5245,-270.6034)">
        <path
           d="M 0,870.236 H 623.622 V 0 H 0 Z"
           id="path9150" />
      </g>
    </clipPath>
  </defs>
  <g
     inkscape:label="Vrstva 1"
     inkscape:groupmode="layer"
     id="layer1"
     transform="translate(-43.724726,-82.463291)">
    <g
       id="g1763"
       transform="matrix(0.35277777,0,0,-0.35277777,46.754412,94.944322)"
       clip-path="none">
      <path
         d="m 0,0 c 0,0 -5.135,-0.41 -5.135,5.135 v 21.387 c 0,0 0.078,5.136 5.135,5.136 H 61.667 L -0.052,29.482 c 0,0 -3.27,0.205 -3.27,-4.087 V 4.753 c 0,0 0.513,-3.58 3.322,-4.753"
         style="fill:#ff5b44;fill-opacity:1;fill-rule:nonzero;stroke:none"
         id="path1765" />
    </g>
    <g
       id="g1767"
       transform="matrix(0.35277777,0,0,-0.35277777,62.597382,94.997733)"
       clip-path="none">
      <path
         d="m 0,0 39.243,0.151 c 0,0 5.135,-0.001 5.135,5.136 V 26.159 L 42.849,5.722 c 0,0 -0.136,-3.883 -4.224,-3.883 C 35.764,1.839 0,0 0,0"
         style="fill:#ff5b44;fill-opacity:1;fill-rule:nonzero;stroke:none"
         id="path1769" />
    </g>
  </g>
</svg>
