<?xml version="1.0" encoding="UTF-8" standalone="no"?>
<!-- Created with Inkscape (http://www.inkscape.org/) -->

<svg
   width="106.27513mm"
   height="50.912289mm"
   viewBox="0 0 106.27513 50.912289"
   version="1.1"
   id="svg2456"
   inkscape:version="1.2.2 (732a01da63, 2022-12-09)"
   sodipodi:docname="camera.svg"
   xmlns:inkscape="http://www.inkscape.org/namespaces/inkscape"
   xmlns:sodipodi="http://sodipodi.sourceforge.net/DTD/sodipodi-0.dtd"
   xmlns="http://www.w3.org/2000/svg"
   xmlns:svg="http://www.w3.org/2000/svg">
  <sodipodi:namedview
     id="namedview2458"
     pagecolor="#ffffff"
     bordercolor="#000000"
     borderopacity="0.25"
     inkscape:showpageshadow="2"
     inkscape:pageopacity="0.0"
     inkscape:pagecheckerboard="0"
     inkscape:deskcolor="#d1d1d1"
     inkscape:document-units="mm"
     showgrid="false"
     inkscape:zoom="3.659624"
     inkscape:cx="137.99232"
     inkscape:cy="157.93972"
     inkscape:window-width="3840"
     inkscape:window-height="2054"
     inkscape:window-x="3829"
     inkscape:window-y="-11"
     inkscape:window-maximized="1"
     inkscape:current-layer="layer1"
     showguides="false" />
  <defs
     id="defs2453" />
  <g
     inkscape:label="Vrstva 1"
     inkscape:groupmode="layer"
     id="layer1"
     transform="translate(-17.136045,-14.741523)">
    <g
       id="g1507"
       transform="matrix(0.35277777,0,0,-0.35277777,17.508351,61.50197)"
       clip-path="none">
      <path
         d="m 0,0 4.05,-7.961 c 1.189,-2.336 3.588,-3.808 6.209,-3.808 H 293.23 c 3.848,0 6.967,3.12 6.967,6.967 v 115.884 c 0,0.816 -0.143,1.626 -0.424,2.393 l -5.77,15.771 -1.238,-130.485 z"
         style="fill:#e72b2f;fill-opacity:1;fill-rule:nonzero;stroke:none"
         id="path1509" />
    </g>
    <path
       d="m 20.296636,14.741523 h 98.529424 c 1.7279,0 3.12843,1.400881 3.12843,3.128786 v 42.105438 c 0,1.727906 -1.40053,3.128786 -3.12843,3.128786 H 20.376717 c -1.721203,0 -3.119261,-1.387122 -3.128786,-3.108325 -0.04727,-8.736894 -0.169687,-33.443332 -0.07973,-42.162235 0.01764,-1.715206 1.413227,-3.09245 3.128433,-3.09245"
       style="fill:#ff3914;fill-opacity:1;fill-rule:nonzero;stroke:none;stroke-width:0.352778"
       id="path1513"
       clip-path="none" />
  </g>
</svg>
