<?xml version="1.0" encoding="UTF-8" standalone="no"?>
<!-- Created with Inkscape (http://www.inkscape.org/) -->

<svg
   width="167.04579mm"
   height="103.9848mm"
   preserveAspectRatio="none"
   viewBox="0 0 167.04579 103.9848"
   version="1.1"
   id="svg2171"
   inkscape:version="1.2.2 (732a01da63, 2022-12-09)"
   sodipodi:docname="screen.svg"
   xmlns:inkscape="http://www.inkscape.org/namespaces/inkscape"
   xmlns:sodipodi="http://sodipodi.sourceforge.net/DTD/sodipodi-0.dtd"
   xmlns="http://www.w3.org/2000/svg"
   xmlns:svg="http://www.w3.org/2000/svg">
  <sodipodi:namedview
     id="namedview2173"
     pagecolor="#ffffff"
     bordercolor="#000000"
     borderopacity="0.25"
     inkscape:showpageshadow="2"
     inkscape:pageopacity="0.0"
     inkscape:pagecheckerboard="0"
     inkscape:deskcolor="#d1d1d1"
     inkscape:document-units="mm"
     showgrid="false"
     inkscape:zoom="0.914906"
     inkscape:cx="327.90254"
     inkscape:cy="452.5055"
     inkscape:window-width="3840"
     inkscape:window-height="2054"
     inkscape:window-x="3829"
     inkscape:window-y="-11"
     inkscape:window-maximized="1"
     inkscape:current-layer="layer1" />
  <defs
     id="defs2168" />
  <g
     inkscape:label="Vrstva 1"
     inkscape:groupmode="layer"
     id="layer1"
     transform="translate(-18.272561,-28.692013)">
    <path
       id="path1223"
       style="fill:#351f3d;fill-opacity:1;fill-rule:nonzero;stroke:none;stroke-width:0.352778"
       d="m 101.16873,28.693675 c -1.07378,0.0027 -2.147066,0.0089 -3.219436,0.01809 -16.217939,0.13866 -32.196663,1.02267 -45.565689,2.739368 -13.36903,1.716518 -24.128936,4.265538 -29.909286,7.733895 -0.485068,1.333588 -0.925181,2.78846 -1.3224,4.349088 -0.397047,1.560629 -0.75103,3.227024 -1.062984,4.984192 0.179764,-0.09909 0.364968,-0.197535 0.555522,-0.295072 0.190553,-0.09754 0.386914,-0.193918 0.588077,-0.289905 -0.201163,0.09599 -0.397524,0.192367 -0.588077,0.289905 -0.190554,0.09754 -0.375758,0.195983 -0.555522,0.295072 -0.956874,5.390715 -1.518942,11.635124 -1.725476,18.295007 -0.206533,6.65989 -0.05736,13.73508 0.409277,20.787362 0.933276,14.104563 3.135728,28.117653 6.29729,38.532523 2.627572,1.05092 6.665403,1.98076 11.760006,2.78536 5.094777,0.80444 11.246174,1.48364 18.099154,2.03399 13.706132,1.10071 30.220383,1.68516 46.707224,1.72237 17.44251,0.0394 34.85438,-0.53381 48.87867,-1.75596 7.01232,-0.61115 13.17767,-1.38459 18.07641,-2.32493 4.89858,-0.94033 8.53041,-2.04724 10.47637,-3.32589 3.16156,-7.06709 5.12371,-21.33049 5.88646,-36.602413 0.38171,-7.635882 0.46302,-15.523952 0.24495,-22.890591 -0.21808,-7.366643 -0.73604,-14.212054 -1.55391,-19.762618 -0.26665,-1.809188 -0.56552,-3.481098 -0.89556,-4.988326 -0.33038,-1.507399 -0.69247,-2.850471 -1.08623,-4.00234 -7.00509,-2.779677 -19.35455,-4.930621 -34.24236,-6.35 0.0825,0.599615 0.17264,1.266331 0.26613,1.989543 -0.0935,-0.723212 -0.18362,-1.389928 -0.26613,-1.989543 -13.95731,-1.330667 -30.14577,-2.018344 -46.25248,-1.978174 z M 52.1831,32.460887 c -0.06514,0.350315 -0.128674,0.714158 -0.190169,1.089856 -0.0615,0.375699 -0.121149,0.763549 -0.1788,1.162203 -0.05765,0.398654 -0.113301,0.808133 -0.166915,1.227315 -0.05366,0.419183 -0.105057,0.847911 -0.154513,1.285193 -0.04946,0.437282 -0.09703,0.882882 -0.14211,1.335836 0.04508,-0.452954 0.09265,-0.898554 0.14211,-1.335836 0.04946,-0.437282 0.100856,-0.86601 0.154513,-1.285193 0.05361,-0.419182 0.109263,-0.828661 0.166915,-1.227315 0.05765,-0.398654 0.117305,-0.786504 0.1788,-1.162203 0.0615,-0.375698 0.125025,-0.739541 0.190169,-1.089856 z m 4.70824,2.864425 c -0.892723,0.09623 -1.776229,0.195715 -2.650484,0.298173 0.874255,-0.102458 1.757761,-0.201946 2.650484,-0.298173 z m 91.60526,5.085478 c 0.96542,0.07654 1.92054,0.15553 2.86494,0.237194 0.9444,0.08167 1.87813,0.165927 2.79983,0.252698 0.92169,0.08677 1.83172,0.175828 2.72903,0.267684 0.89731,0.09186 1.78182,0.186269 2.65307,0.283187 -0.87125,-0.09692 -1.75576,-0.191331 -2.65307,-0.283187 -0.89731,-0.09186 -1.80734,-0.180912 -2.72903,-0.267684 -0.9217,-0.08677 -1.85543,-0.171033 -2.79983,-0.252698 -0.9444,-0.08166 -1.89952,-0.160659 -2.86494,-0.237194 z m -50.612416,0.788065 c 0.0306,1.676174 0.0717,3.445693 0.12196,5.294251 -0.0503,-1.848558 -0.0914,-3.618077 -0.12196,-5.294251 z m -47.05914,4.811076 c -0.03949,0.81741 -0.07542,1.65436 -0.107487,2.509924 -0.03206,0.855564 -0.06045,1.729407 -0.08527,2.619995 -0.02482,0.890589 -0.0458,1.79828 -0.06356,2.720765 -0.01776,0.922484 -0.032,1.859945 -0.04289,2.811198 0.01089,-0.951253 0.02513,-1.888714 0.04289,-2.811198 0.01776,-0.922485 0.03874,-1.830176 0.06356,-2.720765 0.02482,-0.890588 0.0532,-1.764431 0.08527,-2.619995 0.03207,-0.855564 0.06799,-1.692514 0.107487,-2.509924 z m 98.783116,10.206095 c 0.12928,1.983369 0.25855,4.027103 0.38602,6.116423 0.12694,2.081403 0.25169,4.208518 0.3731,6.364986 -0.12142,-2.156573 -0.24615,-4.283485 -0.3731,-6.364986 -0.12747,-2.08932 -0.25674,-4.133054 -0.38602,-6.116423 z m -41.28431,5.367115 c 1.09681,4.78e-4 2.19552,0.0021 3.29541,0.0052 -2.19977,-0.0061 -4.39533,-0.0072 -6.57893,-0.0031 1.0918,-0.002 2.18671,-0.0025 3.28352,-0.0021 z m 74.17842,3.58066 c 0.49915,0.0972 0.97383,0.196834 1.42369,0.298689 -0.44986,-0.101855 -0.92454,-0.201485 -1.42369,-0.298689 z M 31.469636,87.316457 c 0.05008,0.98935 0.104413,1.97786 0.162781,2.96416 0.05838,0.98648 0.120518,1.97087 0.187068,2.951756 0.06655,0.98088 0.137274,1.95834 0.211874,2.93109 -0.0746,-0.97275 -0.145323,-1.95021 -0.211874,-2.93109 -0.06655,-0.980886 -0.12869,-1.965276 -0.187068,-2.951756 -0.05837,-0.9863 -0.112705,-1.97481 -0.162781,-2.96416 z m 4.373893,0.0568 c 1.525482,0.0254 3.116167,0.0567 4.764051,0.0925 -1.647885,-0.0359 -3.238572,-0.0671 -4.764051,-0.0925 z m -13.307715,0.007 c -0.489342,0.0161 -0.956115,0.0348 -1.398881,0.0563 0.44276,-0.0215 0.909545,-0.0403 1.398881,-0.0563 z m 149.447726,1.28468 c 0.008,1.04966 0.0127,2.09569 0.0129,3.13572 -2.5e-4,-1.04003 -0.005,-2.08606 -0.0129,-3.13572 z M 151.7517,110.59485 c -0.003,0.95786 -0.0106,1.89876 -0.0222,2.8205 0.0116,-0.92188 0.0189,-1.86247 0.0222,-2.8205 z m -0.0222,2.82102 c -0.0116,0.9219 -0.0277,1.82432 -0.048,2.70629 0.0203,-0.88181 0.0365,-1.78457 0.048,-2.70629 z m 17.33745,13.70459 c -0.0759,0.26148 -0.15327,0.51502 -0.23255,0.76068 0.0793,-0.24566 0.15665,-0.4992 0.23255,-0.76068 z" />
  </g>
</svg>
